<svg width="24" height="24" viewBox="0 0 24 24" fill="none" xmlns="http://www.w3.org/2000/svg">
<path d="M17.25 12C17.25 12.2321 17.1578 12.4546 16.9937 12.6187C16.8296 12.7828 16.6071 12.875 16.375 12.875H7.625C7.39294 12.875 7.17038 12.7828 7.00629 12.6187C6.84219 12.4546 6.75 12.2321 6.75 12C6.75 11.7679 6.84219 11.5454 7.00629 11.3813C7.17038 11.2172 7.39294 11.125 7.625 11.125H16.375C16.6071 11.125 16.8296 11.2172 16.9937 11.3813C17.1578 11.5454 17.25 11.7679 17.25 12ZM23.375 12C23.375 14.2498 22.7079 16.449 21.458 18.3196C20.2081 20.1902 18.4315 21.6482 16.353 22.5091C14.2745 23.3701 11.9874 23.5953 9.78085 23.1564C7.57432 22.7175 5.54749 21.6342 3.95667 20.0433C2.36584 18.4525 1.28248 16.4257 0.843573 14.2192C0.404666 12.0126 0.629929 9.72548 1.49088 7.64698C2.35182 5.56847 3.80978 3.79193 5.68039 2.54203C7.551 1.29213 9.75024 0.625 12 0.625C15.0159 0.628185 17.9073 1.82764 20.0398 3.96018C22.1724 6.09271 23.3718 8.98414 23.375 12ZM21.625 12C21.625 10.0964 21.0605 8.23546 20.0029 6.65264C18.9453 5.06981 17.4421 3.83615 15.6833 3.10766C13.9246 2.37917 11.9893 2.18856 10.1223 2.55994C8.25519 2.93132 6.54018 3.84802 5.1941 5.1941C3.84802 6.54018 2.93133 8.25519 2.55995 10.1223C2.18856 11.9893 2.37917 13.9246 3.10766 15.6833C3.83616 17.4421 5.06982 18.9453 6.65264 20.0029C8.23546 21.0605 10.0964 21.625 12 21.625C14.5518 21.6221 16.9983 20.6071 18.8027 18.8027C20.6071 16.9983 21.6221 14.5518 21.625 12Z" fill="black"/>
</svg>
