<svg width="32" height="32" viewBox="0 0 32 32" fill="none" xmlns="http://www.w3.org/2000/svg">
<path d="M21.2154 14.8154C21.2154 15.8864 20.8978 16.9335 20.3027 17.824C19.7077 18.7146 18.8619 19.4087 17.8724 19.8185C16.8828 20.2284 15.794 20.3357 14.7435 20.1267C13.693 19.9178 12.7281 19.402 11.9707 18.6446C11.2134 17.8873 10.6976 16.9224 10.4887 15.8719C10.2797 14.8214 10.387 13.7325 10.7968 12.743C11.2067 11.7535 11.9008 10.9077 12.7914 10.3127C13.6819 9.71761 14.7289 9.4 15.8 9.4C17.2358 9.40163 18.6122 9.9727 19.6275 10.9879C20.6427 12.0032 21.2138 13.3796 21.2154 14.8154ZM28.6 15.8C28.6 18.3316 27.8493 20.8063 26.4428 22.9113C25.0363 25.0162 23.0372 26.6569 20.6983 27.6257C18.3595 28.5945 15.7858 28.8479 13.3028 28.354C10.8199 27.8602 8.53915 26.6411 6.74904 24.851C4.95893 23.0609 3.73984 20.7801 3.24595 18.2972C2.75206 15.8142 3.00555 13.2405 3.97435 10.9017C4.94315 8.56276 6.58376 6.56367 8.68871 5.15719C10.7937 3.75071 13.2684 3 15.8 3C19.1937 3.00358 22.4473 4.3533 24.847 6.75299C27.2467 9.15268 28.5964 12.4063 28.6 15.8ZM26.6308 15.8C26.6292 14.3422 26.3336 12.8997 25.7618 11.5587C25.1899 10.2178 24.3535 9.0059 23.3025 7.99561C22.2516 6.98532 21.0077 6.19736 19.6452 5.67884C18.2827 5.16033 16.8297 4.92191 15.3729 4.97785C9.576 5.20185 4.95324 10.0302 4.96924 15.8308C4.97479 18.4714 5.94871 21.0183 7.70647 22.9889C8.42231 21.9507 9.33162 21.0601 10.3846 20.3662C10.4744 20.3069 10.5811 20.2786 10.6885 20.2857C10.7958 20.2928 10.8979 20.3349 10.9791 20.4055C12.3171 21.5629 14.0272 22.1998 15.7963 22.1998C17.5655 22.1998 19.2755 21.5629 20.6135 20.4055C20.6947 20.3349 20.7968 20.2928 20.9041 20.2857C21.0115 20.2786 21.1182 20.3069 21.208 20.3662C22.2623 21.0598 23.1729 21.9503 23.8898 22.9889C25.6563 21.0111 26.6321 18.4518 26.6308 15.8Z" fill="white"/>
<circle cx="25" cy="26" r="5" fill="white"/>
<path fill-rule="evenodd" clip-rule="evenodd" d="M22.2348 24.7348C22.3813 24.5884 22.6187 24.5884 22.7652 24.7348L25 26.9697L27.2348 24.7348C27.3813 24.5884 27.6187 24.5884 27.7652 24.7348C27.9116 24.8813 27.9116 25.1187 27.7652 25.2652L25.2652 27.7652C25.1187 27.9116 24.8813 27.9116 24.7348 27.7652L22.2348 25.2652C22.0884 25.1187 22.0884 24.8813 22.2348 24.7348Z" fill="#002FA1"/>
</svg>
