<svg width="448" height="448" viewBox="0 0 448 448" fill="none" xmlns="http://www.w3.org/2000/svg">
<path d="M432 0C423.2 0 416 7.16 416 16V145.3C384.2 67.72 308.6 16 224 16C122 16 35.7 88.91 18.9 189.3C17.42 198.1 23.3 206.3 32.02 207.8C32.91 207.9 33.8 208 34.67 208C42.342 208 49.12 202.469 50.44 194.66C64.69 109.7 137.7 48 224 48C296.49 48 361.3 92.88 387.6 160H272C263.2 160 256 167.2 256 176C256 184.8 263.2 192 272 192H432C440.8 192 448 184.8 448 176V16C448 7.16 440.8 0 432 0ZM415.1 240.2C406.334 238.638 398.13 244.606 396.68 253.32C383.3 338.3 310.3 400 223.1 400C150.61 400 85.8 355.12 59.5 288H176C184.8 288 192 280.8 192 272C192 263.2 184.8 256 176 256H16C7.16 256 0 263.2 0 272V432C0 440.8 7.16 448 16 448C24.84 448 32 440.8 32 432V302.7C63.84 380.3 139.4 432 224 432C325.1 432 412.3 359.09 429.1 258.7C430.6 249.9 424.7 241.7 415.1 240.2Z" fill="white"/>
</svg>
