<svg width="25" height="20" viewBox="0 0 25 20" fill="none" xmlns="http://www.w3.org/2000/svg">
<path d="M22.5 3H14.917L11.883 0.725C11.5796 0.498654 11.2115 0.375939 10.833 0.375H5.875C5.41087 0.375 4.96575 0.559374 4.63756 0.887563C4.30937 1.21575 4.125 1.66087 4.125 2.125V3.875H2.375C1.91087 3.875 1.46575 4.05937 1.13756 4.38756C0.809374 4.71575 0.625 5.16087 0.625 5.625V17.875C0.625 18.3391 0.809374 18.7842 1.13756 19.1124C1.46575 19.4406 1.91087 19.625 2.375 19.625H19.0973C19.5355 19.6244 19.9555 19.4501 20.2653 19.1403C20.5751 18.8305 20.7494 18.4105 20.75 17.9723V16.125H22.5973C23.0355 16.1244 23.4555 15.9501 23.7653 15.6403C24.0751 15.3305 24.2494 14.9105 24.25 14.4723V4.75C24.25 4.28587 24.0656 3.84075 23.7374 3.51256C23.4092 3.18437 22.9641 3 22.5 3ZM19 17.875H2.375V5.625H7.33297L10.367 7.9C10.6704 8.12635 11.0385 8.24906 11.417 8.25H19V17.875ZM22.5 14.375H20.75V8.25C20.75 7.78587 20.5656 7.34075 20.2374 7.01256C19.9092 6.68437 19.4641 6.5 19 6.5H11.417L8.38297 4.225C8.07961 3.99865 7.71146 3.87594 7.33297 3.875H5.875V2.125H10.833L13.867 4.4C14.1704 4.62635 14.5385 4.74906 14.917 4.75H22.5V14.375Z" fill="#2E2E2E"/>
<path d="M13.6163 13.7927C13.7804 13.6286 13.8726 13.4061 13.8726 13.174C13.8726 12.9419 13.7804 12.7194 13.6163 12.5553C13.4522 12.3912 13.2297 12.299 12.9976 12.299H11.2476V10.549C11.2476 10.3169 11.1554 10.0944 10.9913 9.93029C10.8272 9.7662 10.6047 9.67401 10.3726 9.67401C10.1406 9.67401 9.918 9.7662 9.7539 9.93029C9.58981 10.0944 9.49762 10.3169 9.49762 10.549V12.299H7.74762C7.51556 12.299 7.293 12.3912 7.1289 12.5553C6.96481 12.7194 6.87262 12.9419 6.87262 13.174C6.87262 13.4061 6.96481 13.6286 7.1289 13.7927C7.293 13.9568 7.51556 14.049 7.74762 14.049H9.49762V15.799C9.49762 16.0311 9.58981 16.2536 9.7539 16.4177C9.918 16.5818 10.1406 16.674 10.3726 16.674C10.6047 16.674 10.8272 16.5818 10.9913 16.4177C11.1554 16.2536 11.2476 16.0311 11.2476 15.799V14.049H12.9976C13.2297 14.049 13.4522 13.9568 13.6163 13.7927Z" fill="#2E2E2E"/>
</svg>
