<svg width="32" height="33" viewBox="0 0 32 33" fill="none" xmlns="http://www.w3.org/2000/svg">
<path d="M9 13H4C3.44772 13 3 13.4477 3 14V19C3 19.5523 3.44772 20 4 20H9C9.55228 20 10 19.5523 10 19V14C10 13.4477 9.55228 13 9 13Z" stroke="white" stroke-width="1.5" stroke-linecap="round" stroke-linejoin="round"/>
<path d="M27 5.5H21C20.4477 5.5 20 5.94772 20 6.5V12.5C20 13.0523 20.4477 13.5 21 13.5H27C27.5523 13.5 28 13.0523 28 12.5V6.5C28 5.94772 27.5523 5.5 27 5.5Z" stroke="white" stroke-width="1.5" stroke-linecap="round" stroke-linejoin="round"/>
<path d="M27 19.5H21C20.4477 19.5 20 19.9477 20 20.5V26.5C20 27.0523 20.4477 27.5 21 27.5H27C27.5523 27.5 28 27.0523 28 26.5V20.5C28 19.9477 27.5523 19.5 27 19.5Z" stroke="white" stroke-width="1.5" stroke-linecap="round" stroke-linejoin="round"/>
<path d="M10 16.5H15" stroke="white" stroke-width="1.5" stroke-linecap="round" stroke-linejoin="round"/>
<path d="M20 23.5H18C17.6056 23.5017 17.2147 23.4252 16.85 23.275C16.4853 23.1249 16.1539 22.9039 15.875 22.625C15.5961 22.3461 15.3752 22.0148 15.225 21.65C15.0748 21.2853 14.9984 20.8945 15 20.5V12.5C14.9984 12.1056 15.0748 11.7147 15.225 11.35C15.3752 10.9853 15.5961 10.6539 15.875 10.375C16.1539 10.0961 16.4853 9.8752 16.85 9.72502C17.2147 9.57484 17.6056 9.49837 18 9.50003H20" stroke="white" stroke-width="1.5" stroke-linecap="round" stroke-linejoin="round"/>
</svg>
