<svg width="46" height="61" viewBox="0 0 46 61" fill="none" xmlns="http://www.w3.org/2000/svg">
<g clip-path="url(#clip0_504_183)">
<path d="M7.66667 0C3.43802 0 0 3.41934 0 7.625V53.375C0 57.5807 3.43802 61 7.66667 61H38.3333C42.562 61 46 57.5807 46 53.375V19.0625H30.6667C28.5464 19.0625 26.8333 17.3588 26.8333 15.25V0H7.66667ZM30.6667 0V15.25H46L30.6667 0ZM18.6516 29.809L23 35.9924L27.3484 29.809C28.2589 28.5104 30.0557 28.2006 31.3495 29.1061C32.6432 30.0115 32.9667 31.7986 32.0563 33.0854L26.5099 40.9844L32.0682 48.8715C32.9786 50.1701 32.6672 51.9453 31.3615 52.8508C30.0557 53.7563 28.2708 53.4465 27.3604 52.1479L23 45.9645L18.6516 52.1479C17.7411 53.4465 15.9443 53.7563 14.6505 52.8508C13.3568 51.9453 13.0333 50.1582 13.9437 48.8715L19.4901 40.9844L13.9318 33.0973C13.0214 31.7986 13.3328 30.0234 14.6385 29.118C15.9443 28.2125 17.7292 28.5223 18.6396 29.8209L18.6516 29.809Z" fill="white"/>
</g>
<defs>
<clipPath id="clip0_504_183">
<rect width="46" height="61" fill="white"/>
</clipPath>
</defs>
</svg>
