<svg width="20" height="25" viewBox="0 0 20 25" fill="none" xmlns="http://www.w3.org/2000/svg">
<path d="M14.375 15.625C14.375 15.8571 14.2828 16.0796 14.1187 16.2437C13.9546 16.4078 13.7321 16.5 13.5 16.5H6.5C6.26794 16.5 6.04538 16.4078 5.88128 16.2437C5.71719 16.0796 5.625 15.8571 5.625 15.625C5.625 15.393 5.71719 15.1704 5.88128 15.0063C6.04538 14.8422 6.26794 14.75 6.5 14.75H13.5C13.7321 14.75 13.9546 14.8422 14.1187 15.0063C14.2828 15.1704 14.375 15.393 14.375 15.625ZM13.5 11.25H6.5C6.26794 11.25 6.04538 11.3422 5.88128 11.5063C5.71719 11.6704 5.625 11.893 5.625 12.125C5.625 12.3571 5.71719 12.5796 5.88128 12.7437C6.04538 12.9078 6.26794 13 6.5 13H13.5C13.7321 13 13.9546 12.9078 14.1187 12.7437C14.2828 12.5796 14.375 12.3571 14.375 12.125C14.375 11.893 14.2828 11.6704 14.1187 11.5063C13.9546 11.3422 13.7321 11.25 13.5 11.25ZM19.625 4.25002V22.625C19.625 23.0892 19.4406 23.5343 19.1124 23.8625C18.7842 24.1906 18.3391 24.375 17.875 24.375H2.125C1.66087 24.375 1.21575 24.1906 0.887563 23.8625C0.559374 23.5343 0.375 23.0892 0.375 22.625V4.25002C0.375 3.7859 0.559374 3.34078 0.887563 3.01259C1.21575 2.6844 1.66087 2.50002 2.125 2.50002H6.09094C6.58258 1.94957 7.18494 1.50915 7.85858 1.2076C8.53222 0.906058 9.26195 0.750183 10 0.750183C10.7381 0.750183 11.4678 0.906058 12.1414 1.2076C12.8151 1.50915 13.4174 1.94957 13.9091 2.50002H17.875C18.3391 2.50002 18.7842 2.6844 19.1124 3.01259C19.4406 3.34078 19.625 3.7859 19.625 4.25002ZM6.5 6.00002H13.5C13.5 5.07177 13.1313 4.18153 12.4749 3.52515C11.8185 2.86877 10.9283 2.50002 10 2.50002C9.07174 2.50002 8.1815 2.86877 7.52513 3.52515C6.86875 4.18153 6.5 5.07177 6.5 6.00002ZM17.875 4.25002H14.9492C15.1483 4.81201 15.25 5.40383 15.25 6.00002V6.87502C15.25 7.10709 15.1578 7.32965 14.9937 7.49374C14.8296 7.65784 14.6071 7.75002 14.375 7.75002H5.625C5.39294 7.75002 5.17038 7.65784 5.00628 7.49374C4.84219 7.32965 4.75 7.10709 4.75 6.87502V6.00002C4.75002 5.40383 4.85174 4.81201 5.05078 4.25002H2.125V22.625H17.875V4.25002Z" fill="black"/>
</svg>
