<svg width="17" height="18" viewBox="0 0 17 18" fill="none" xmlns="http://www.w3.org/2000/svg">
<path d="M8.36719 9.28125C7.99219 9.28125 7.74219 9.00781 7.74219 8.61719V1.60156C7.74219 1.20312 7.99219 0.9375 8.36719 0.9375C8.74219 0.9375 9 1.20312 9 1.60156V8.61719C9 9.00781 8.74219 9.28125 8.36719 9.28125ZM8.36719 17.3281C4.01562 17.3281 0.398438 13.7109 0.398438 9.35938C0.398438 6.96094 1.48438 4.875 2.99219 3.50781C3.67969 2.88281 4.57031 3.80469 3.88281 4.46094C2.5625 5.67188 1.74219 7.39844 1.73438 9.35938C1.73438 13.0469 4.67969 16 8.36719 16C12.0547 16 15.0156 13.0469 15.0078 9.35938C15 7.41406 14.1797 5.67969 12.8516 4.46875C12.1719 3.82031 13.0547 2.89062 13.7422 3.51562C15.2422 4.88281 16.3359 6.96094 16.3359 9.35938C16.3359 13.7109 12.7266 17.3281 8.36719 17.3281Z" fill="black"/>
</svg>
