<svg width="22" height="25" viewBox="0 0 22 25" fill="none" xmlns="http://www.w3.org/2000/svg">
<path d="M19.9088 2.5029H17.0046V1.37545C17.0046 1.19603 16.934 1.02397 16.8083 0.897108C16.6826 0.770245 16.5121 0.698975 16.3344 0.698975C16.1566 0.698975 15.9861 0.770245 15.8604 0.897108C15.7348 1.02397 15.6641 1.19603 15.6641 1.37545V2.5029H6.28117V1.37545C6.28117 1.19603 6.21056 1.02397 6.08487 0.897108C5.95918 0.770245 5.78871 0.698975 5.61095 0.698975C5.4332 0.698975 5.26273 0.770245 5.13704 0.897108C5.01135 1.02397 4.94074 1.19603 4.94074 1.37545V2.5029H2.03649C1.62173 2.5029 1.22397 2.66919 0.930691 2.96521C0.637417 3.26122 0.472656 3.6627 0.472656 4.08133V22.6205C0.472656 23.0392 0.637417 23.4406 0.930691 23.7367C1.22397 24.0327 1.62173 24.199 2.03649 24.199H19.9088C20.3236 24.199 20.7213 24.0327 21.0146 23.7367C21.3079 23.4406 21.4727 23.0392 21.4727 22.6205V4.08133C21.4727 3.6627 21.3079 3.26122 21.0146 2.96521C20.7213 2.66919 20.3236 2.5029 19.9088 2.5029ZM2.03649 3.85584H4.94074V4.98329C4.94074 5.1627 5.01135 5.33476 5.13704 5.46163C5.26273 5.58849 5.4332 5.65976 5.61095 5.65976C5.78871 5.65976 5.95918 5.58849 6.08487 5.46163C6.21056 5.33476 6.28117 5.1627 6.28117 4.98329V3.85584H15.6641V4.98329C15.6641 5.1627 15.7348 5.33476 15.8604 5.46163C15.9861 5.58849 16.1566 5.65976 16.3344 5.65976C16.5121 5.65976 16.6826 5.58849 16.8083 5.46163C16.934 5.33476 17.0046 5.1627 17.0046 4.98329V3.85584H19.9088C19.9681 3.85584 20.0249 3.87959 20.0668 3.92188C20.1087 3.96417 20.1322 4.02152 20.1322 4.08133V7.91466H1.81308V4.08133C1.81308 4.02152 1.83662 3.96417 1.87852 3.92188C1.92041 3.87959 1.97724 3.85584 2.03649 3.85584ZM19.9088 22.846H2.03649C1.97724 22.846 1.92041 22.8223 1.87852 22.78C1.83662 22.7377 1.81308 22.6803 1.81308 22.6205V9.2676H20.1322V22.6205C20.1322 22.6803 20.1087 22.7377 20.0668 22.78C20.0249 22.8223 19.9681 22.846 19.9088 22.846Z" fill="#474848"/>
<path d="M18.4727 20.699C18.4727 21.2513 18.0249 21.699 17.4727 21.699H16.4727C15.9204 21.699 15.4727 21.2513 15.4727 20.699V19.699C15.4727 19.1467 15.9204 18.699 16.4727 18.699H17.4727C18.0249 18.699 18.4727 19.1467 18.4727 19.699V20.699Z" fill="#474848"/>
<path d="M14.4727 20.699C14.4727 21.2513 14.0249 21.699 13.4727 21.699H12.4727C11.9204 21.699 11.4727 21.2513 11.4727 20.699V19.699C11.4727 19.1467 11.9204 18.699 12.4727 18.699H13.4727C14.0249 18.699 14.4727 19.1467 14.4727 19.699V20.699Z" fill="#474848"/>
<path d="M10.4727 20.699C10.4727 21.2513 10.0249 21.699 9.47266 21.699H8.47266C7.92037 21.699 7.47266 21.2513 7.47266 20.699V19.699C7.47266 19.1467 7.92037 18.699 8.47266 18.699H9.47266C10.0249 18.699 10.4727 19.1467 10.4727 19.699V20.699Z" fill="#474848"/>
<path d="M6.47266 20.699C6.47266 21.2513 6.02494 21.699 5.47266 21.699H4.47266C3.92037 21.699 3.47266 21.2513 3.47266 20.699V19.699C3.47266 19.1467 3.92037 18.699 4.47266 18.699H5.47266C6.02494 18.699 6.47266 19.1467 6.47266 19.699V20.699Z" fill="#474848"/>
<path d="M18.4727 16.699C18.4727 17.2513 18.0249 17.699 17.4727 17.699H16.4727C15.9204 17.699 15.4727 17.2513 15.4727 16.699V15.699C15.4727 15.1467 15.9204 14.699 16.4727 14.699H17.4727C18.0249 14.699 18.4727 15.1467 18.4727 15.699V16.699Z" fill="#474848"/>
<path d="M18.4727 12.699C18.4727 13.2513 18.0249 13.699 17.4727 13.699H16.4727C15.9204 13.699 15.4727 13.2513 15.4727 12.699V11.699C15.4727 11.1467 15.9204 10.699 16.4727 10.699H17.4727C18.0249 10.699 18.4727 11.1467 18.4727 11.699V12.699Z" fill="#474848"/>
<path d="M14.4727 16.699C14.4727 17.2513 14.0249 17.699 13.4727 17.699H12.4727C11.9204 17.699 11.4727 17.2513 11.4727 16.699V15.699C11.4727 15.1467 11.9204 14.699 12.4727 14.699H13.4727C14.0249 14.699 14.4727 15.1467 14.4727 15.699V16.699Z" fill="#474848"/>
<path d="M10.4727 16.699C10.4727 17.2513 10.0249 17.699 9.47266 17.699H8.47266C7.92037 17.699 7.47266 17.2513 7.47266 16.699V15.699C7.47266 15.1467 7.92037 14.699 8.47266 14.699H9.47266C10.0249 14.699 10.4727 15.1467 10.4727 15.699V16.699Z" fill="#474848"/>
<path d="M6.47266 16.699C6.47266 17.2513 6.02494 17.699 5.47266 17.699H4.47266C3.92037 17.699 3.47266 17.2513 3.47266 16.699V15.699C3.47266 15.1467 3.92037 14.699 4.47266 14.699H5.47266C6.02494 14.699 6.47266 15.1467 6.47266 15.699V16.699Z" fill="#474848"/>
<path d="M14.4727 12.699C14.4727 13.2513 14.0249 13.699 13.4727 13.699H12.4727C11.9204 13.699 11.4727 13.2513 11.4727 12.699V11.699C11.4727 11.1467 11.9204 10.699 12.4727 10.699H13.4727C14.0249 10.699 14.4727 11.1467 14.4727 11.699V12.699Z" fill="#474848"/>
<path d="M10.4727 12.699C10.4727 13.2513 10.0249 13.699 9.47266 13.699H8.47266C7.92037 13.699 7.47266 13.2513 7.47266 12.699V11.699C7.47266 11.1467 7.92037 10.699 8.47266 10.699H9.47266C10.0249 10.699 10.4727 11.1467 10.4727 11.699V12.699Z" fill="#474848"/>
</svg>
