<svg width="480" height="496" viewBox="0 0 480 496" fill="none" xmlns="http://www.w3.org/2000/svg">
<path d="M272 32C272 14.3 257.7 0 240 0C222.3 0 208 14.3 208 32V256C208 273.7 222.3 288 240 288C257.7 288 272 273.7 272 256V32ZM127.5 120.6C141.1 109.3 142.9 89.1 131.6 75.5C120.3 61.9 100.1 60.1 86.5 71.4C33.7 115.4 0 181.8 0 256C0 388.5 107.5 496 240 496C372.5 496 480 388.5 480 256C480 181.8 446.2 115.4 393.4 71.4C379.8 60.1 359.6 62 348.3 75.5C337 89 338.9 109.3 352.4 120.6C391.3 152.9 415.9 201.6 415.9 256C415.9 353.2 337.1 432 239.9 432C142.7 432 63.9 353.2 63.9 256C63.9 201.6 88.6 152.9 127.4 120.6H127.5Z" fill="white"/>
</svg>
