<svg width="25" height="20" viewBox="0 0 25 20" fill="none" xmlns="http://www.w3.org/2000/svg">
<path d="M22.5 3H14.917L11.883 0.725C11.5796 0.498654 11.2115 0.375939 10.833 0.375H5.875C5.41087 0.375 4.96575 0.559374 4.63756 0.887563C4.30937 1.21575 4.125 1.66087 4.125 2.125V3.875H2.375C1.91087 3.875 1.46575 4.05937 1.13756 4.38756C0.809374 4.71575 0.625 5.16087 0.625 5.625V17.875C0.625 18.3391 0.809374 18.7842 1.13756 19.1124C1.46575 19.4406 1.91087 19.625 2.375 19.625H19.0973C19.5355 19.6244 19.9555 19.4501 20.2653 19.1403C20.5751 18.8305 20.7494 18.4105 20.75 17.9723V16.125H22.5973C23.0355 16.1244 23.4555 15.9501 23.7653 15.6403C24.0751 15.3305 24.2494 14.9105 24.25 14.4723V4.75C24.25 4.28587 24.0656 3.84075 23.7374 3.51256C23.4092 3.18437 22.9641 3 22.5 3ZM19 17.875H2.375V5.625H7.33297L10.367 7.9C10.6704 8.12635 11.0385 8.24906 11.417 8.25H19V17.875ZM22.5 14.375H20.75V8.25C20.75 7.78587 20.5656 7.34075 20.2374 7.01256C19.9092 6.68437 19.4641 6.5 19 6.5H11.417L8.38297 4.225C8.07961 3.99865 7.71146 3.87594 7.33297 3.875H5.875V2.125H10.833L13.867 4.4C14.1704 4.62635 14.5385 4.74906 14.917 4.75H22.5V14.375Z" fill="#2E2E2E"/>
</svg>
