<svg width="21" height="21" viewBox="0 0 21 21" fill="none" xmlns="http://www.w3.org/2000/svg">
<path d="M17.1923 13.4422C17.1342 13.5003 17.0653 13.5464 16.9894 13.5779C16.9136 13.6093 16.8322 13.6255 16.7501 13.6255C16.668 13.6255 16.5866 13.6093 16.5108 13.5779C16.4349 13.5464 16.366 13.5003 16.3079 13.4422L10.5001 7.6336L4.69229 13.4422C4.57502 13.5595 4.41596 13.6254 4.2501 13.6254C4.08425 13.6254 3.92519 13.5595 3.80792 13.4422C3.69064 13.3249 3.62476 13.1659 3.62476 13C3.62476 12.8342 3.69064 12.6751 3.80792 12.5578L10.0579 6.30782C10.116 6.24971 10.1849 6.20361 10.2608 6.17215C10.3366 6.1407 10.418 6.12451 10.5001 6.12451C10.5822 6.12451 10.6636 6.1407 10.7394 6.17215C10.8153 6.20361 10.8842 6.24971 10.9423 6.30782L17.1923 12.5578C17.2504 12.6159 17.2965 12.6848 17.328 12.7607C17.3594 12.8365 17.3756 12.9179 17.3756 13C17.3756 13.0821 17.3594 13.1635 17.328 13.2393C17.2965 13.3152 17.2504 13.3841 17.1923 13.4422Z" fill="white"/>
</svg>
