<svg width="23" height="23" viewBox="0 0 23 23" fill="none" xmlns="http://www.w3.org/2000/svg">
<path d="M22.1191 4.38095L18.6191 0.880954C18.5378 0.7996 18.4413 0.735061 18.3351 0.691027C18.2288 0.646993 18.115 0.624329 18 0.624329C17.885 0.624329 17.7711 0.646993 17.6649 0.691027C17.5587 0.735061 17.4622 0.7996 17.3809 0.880954L6.88094 11.381C6.79971 11.4623 6.73529 11.5588 6.69138 11.665C6.64747 11.7712 6.62491 11.8851 6.625 12V15.5C6.625 15.7321 6.71719 15.9546 6.88128 16.1187C7.04538 16.2828 7.26794 16.375 7.5 16.375H11C11.1149 16.3751 11.2288 16.3525 11.335 16.3086C11.4412 16.2647 11.5377 16.2003 11.6191 16.1191L22.1191 5.61908C22.2004 5.53782 22.265 5.44131 22.309 5.33509C22.353 5.22887 22.3757 5.11501 22.3757 5.00002C22.3757 4.88503 22.353 4.77117 22.309 4.66494C22.265 4.55872 22.2004 4.46222 22.1191 4.38095ZM10.638 14.625H8.375V12.362L15.375 5.36205L17.638 7.62502L10.638 14.625ZM18.875 6.38799L16.612 4.12502L18 2.73705L20.263 5.00002L18.875 6.38799ZM21.5 11.125V20.75C21.5 21.2141 21.3156 21.6593 20.9874 21.9875C20.6592 22.3156 20.2141 22.5 19.75 22.5H2.25C1.78587 22.5 1.34075 22.3156 1.01256 21.9875C0.684374 21.6593 0.5 21.2141 0.5 20.75V3.25002C0.5 2.78589 0.684374 2.34077 1.01256 2.01258C1.34075 1.68439 1.78587 1.50002 2.25 1.50002H11.875C12.1071 1.50002 12.3296 1.5922 12.4937 1.7563C12.6578 1.92039 12.75 2.14295 12.75 2.37502C12.75 2.60708 12.6578 2.82964 12.4937 2.99373C12.3296 3.15783 12.1071 3.25002 11.875 3.25002H2.25V20.75H19.75V11.125C19.75 10.893 19.8422 10.6704 20.0063 10.5063C20.1704 10.3422 20.3929 10.25 20.625 10.25C20.8571 10.25 21.0796 10.3422 21.2437 10.5063C21.4078 10.6704 21.5 10.893 21.5 11.125Z" fill="black"/>
</svg>
