<svg width="27" height="34" viewBox="0 0 27 34" fill="none" xmlns="http://www.w3.org/2000/svg">
<path d="M26.6347 14.5079H16.2938C15.3535 14.5079 14.4517 14.1343 13.7868 13.4694C13.1219 12.8045 12.7484 11.9027 12.7484 10.9624V0.621504C12.7484 0.543145 12.7172 0.467995 12.6618 0.412586C12.6064 0.357178 12.5313 0.32605 12.4529 0.32605H5.65745C4.4037 0.32605 3.2013 0.8241 2.31476 1.71064C1.42823 2.59717 0.930176 3.79957 0.930176 5.05332V28.6897C0.930176 29.9434 1.42823 31.1458 2.31476 32.0324C3.2013 32.9189 4.4037 33.417 5.65745 33.417H22.2029C23.4567 33.417 24.6591 32.9189 25.5456 32.0324C26.4321 31.1458 26.9302 29.9434 26.9302 28.6897V14.8033C26.9302 14.725 26.899 14.6498 26.8436 14.5944C26.7882 14.539 26.7131 14.5079 26.6347 14.5079Z" fill="#21A366"/>
<path d="M7.17676 18.3723C7.17676 17.5435 7.84865 16.8716 8.67748 16.8716H19.1825C20.0114 16.8716 20.6833 17.5435 20.6833 18.3723V28.8774C20.6833 29.7062 20.0114 30.3781 19.1825 30.3781H8.67748C7.84865 30.3781 7.17676 29.7062 7.17676 28.8774V18.3723Z" fill="#0D6E36"/>
<path d="M12.4698 19.4579L14.055 22.223L15.6709 19.4579H17.71L15.1861 23.5478L17.8101 27.7917H15.7709L14.0781 24.9111L12.3852 27.7917H10.3384L12.9546 23.5478L10.4384 19.4579H12.4698Z" fill="white"/>
<path d="M25.986 11.8925L15.3637 1.27013C15.343 1.2496 15.3168 1.23563 15.2882 1.22998C15.2596 1.22433 15.23 1.22725 15.2031 1.23838C15.1762 1.24951 15.1532 1.26835 15.1369 1.29253C15.1207 1.31671 15.1119 1.34515 15.1118 1.37428V10.9625C15.1118 11.276 15.2363 11.5766 15.458 11.7982C15.6796 12.0198 15.9802 12.1443 16.2936 12.1443H25.8819C25.911 12.1442 25.9394 12.1355 25.9636 12.1192C25.9878 12.103 26.0066 12.08 26.0178 12.0531C26.0289 12.0261 26.0318 11.9965 26.0262 11.968C26.0205 11.9394 26.0066 11.9131 25.986 11.8925Z" fill="#21A366"/>
</svg>
