<svg width="20" height="24" viewBox="0 0 20 24" fill="none" xmlns="http://www.w3.org/2000/svg">
<path d="M19.3691 7.00594L13.2441 0.880938C13.1627 0.799708 13.0662 0.735295 12.96 0.691381C12.8538 0.647466 12.7399 0.62491 12.625 0.625H2.125C1.66087 0.625 1.21575 0.809375 0.887563 1.13756C0.559374 1.46575 0.375 1.91087 0.375 2.375V21.625C0.375 22.0891 0.559374 22.5342 0.887563 22.8624C1.21575 23.1906 1.66087 23.375 2.125 23.375H17.875C18.3391 23.375 18.7842 23.1906 19.1124 22.8624C19.4406 22.5342 19.625 22.0891 19.625 21.625V7.625C19.6251 7.51006 19.6025 7.39623 19.5586 7.29001C19.5147 7.18379 19.4503 7.08726 19.3691 7.00594ZM13.5 3.61203L16.638 6.75H13.5V3.61203ZM17.875 21.625H2.125V2.375H11.75V7.625C11.75 7.85706 11.8422 8.07962 12.0063 8.24372C12.1704 8.40781 12.3929 8.5 12.625 8.5H17.875V21.625ZM13.5 14.625C13.5 14.8571 13.4078 15.0796 13.2437 15.2437C13.0796 15.4078 12.8571 15.5 12.625 15.5H10.875V17.25C10.875 17.4821 10.7828 17.7046 10.6187 17.8687C10.4546 18.0328 10.2321 18.125 10 18.125C9.76794 18.125 9.54538 18.0328 9.38128 17.8687C9.21719 17.7046 9.125 17.4821 9.125 17.25V15.5H7.375C7.14294 15.5 6.92038 15.4078 6.75628 15.2437C6.59219 15.0796 6.5 14.8571 6.5 14.625C6.5 14.3929 6.59219 14.1704 6.75628 14.0063C6.92038 13.8422 7.14294 13.75 7.375 13.75H9.125V12C9.125 11.7679 9.21719 11.5454 9.38128 11.3813C9.54538 11.2172 9.76794 11.125 10 11.125C10.2321 11.125 10.4546 11.2172 10.6187 11.3813C10.7828 11.5454 10.875 11.7679 10.875 12V13.75H12.625C12.8571 13.75 13.0796 13.8422 13.2437 14.0063C13.4078 14.1704 13.5 14.3929 13.5 14.625Z" fill="#2E2E2E"/>
</svg>
