<svg width="448" height="448" viewBox="0 0 448 448" fill="none" xmlns="http://www.w3.org/2000/svg">
<path d="M448 224C448 347.5 347.6 447.9 224.1 447.9C154.69 447.9 90.2 416.6 47.4 361.85C41.962 354.912 43.197 344.85 50.15 339.41C57.134 333.879 67.18 335.16 72.62 342.16C109.3 389.1 164.5 416 224 416C329.9 416 416 329.87 416 224C416 118.13 329.87 32 224 32C155.1 32 92.5 68.7 58.15 128H144C152.8 128 160 135.2 160 144C160 152.8 152.8 160 144 160H16C7.16 160 0 152.8 0 144V16C0 7.16 7.16 0 16 0C24.84 0 32 7.16 32 16V109.56C72.4 41.87 144.6 0.110001 224.1 0.110001C347.6 0.110001 448 100.5 448 224Z" fill="white"/>
</svg>
