<svg width="24" height="22" viewBox="0 0 24 22" fill="none" xmlns="http://www.w3.org/2000/svg">
<path d="M23.2218 1.91737C23.0872 1.60621 22.864 1.34151 22.5801 1.15618C22.2962 0.970855 21.964 0.873084 21.625 0.875028H2.37497C2.03627 0.875696 1.70504 0.974636 1.42147 1.15985C1.13789 1.34506 0.914157 1.60858 0.777404 1.91845C0.640651 2.22831 0.596756 2.57121 0.651046 2.90553C0.705335 3.23985 0.855475 3.55123 1.08325 3.8019L1.092 3.81175L8.49997 11.7217V20.125C8.4999 20.4418 8.58578 20.7526 8.74847 21.0243C8.91115 21.2961 9.14454 21.5186 9.42374 21.6681C9.70294 21.8176 10.0175 21.8886 10.3339 21.8734C10.6502 21.8582 10.9565 21.7575 11.2201 21.5819L14.7201 19.2478C14.9601 19.088 15.1568 18.8714 15.2928 18.6172C15.4289 18.3631 15.5 18.0792 15.5 17.791V11.7217L22.909 3.81175L22.9178 3.8019C23.148 3.55238 23.2996 3.24058 23.3536 2.90543C23.4077 2.57028 23.3619 2.22663 23.2218 1.91737ZM14.2247 10.5307C13.9207 10.8529 13.7509 11.2788 13.75 11.7217V17.791L10.25 20.125V11.7217C10.251 11.2772 10.0819 10.8491 9.77747 10.5252L2.37497 2.62503H21.625L14.2247 10.5307Z" fill="white"/>
</svg>
