<svg width="138" height="28" viewBox="0 0 138 28" fill="none" xmlns="http://www.w3.org/2000/svg">
<g clip-path="url(#clip0_12_650)">
<path d="M3.48644 0C1.52539 0 0.0727539 1.52526 0.0727539 3.48632V26.8737H23.1696C25.1306 26.8737 26.8738 25.1305 26.8738 23.1695V0H3.48644ZM20.6275 19.4653L6.31907 22.0074V7.62632L20.6275 4.86632V19.4653Z" fill="white"/>
<path d="M72.5591 7.69896C68.3464 7.69896 65.3685 10.7495 65.3685 15.6884C65.3685 20.1916 68.9275 22.9516 72.6317 22.9516C74.8107 22.9516 76.1907 22.5884 76.917 21.9348V19.4653C75.8275 20.0463 74.4475 20.1916 73.2854 20.1916C71.0338 20.1916 69.218 18.9569 68.9275 16.9958V16.8505H71.5422C74.0117 16.8505 75.7549 16.6326 76.8443 16.0516C77.9338 15.4705 78.4422 14.6716 78.4422 13.3642C78.4422 9.87791 75.6096 7.69896 72.5591 7.69896ZM74.3022 14.1632C73.6486 14.3811 72.5591 14.5263 70.7433 14.5263H68.9275V13.8726C69.0001 12.0569 70.3075 10.5316 72.2685 10.5316C73.1401 10.5316 73.8664 10.7495 74.4475 11.1126C74.9559 11.5484 75.3191 12.1295 75.2464 12.9284C75.2464 13.4369 74.9559 13.9453 74.3022 14.1632ZM80.258 13.3642V22.6611H83.7443V14.0179C83.7443 12.8558 83.9622 12.0569 84.4707 11.4758C84.9791 10.8948 85.6328 10.6769 86.5043 10.6769C86.8675 10.6769 87.158 10.6769 87.4486 10.7495V7.98949C87.0128 7.77159 86.4317 7.62633 85.7054 7.62633C81.7833 7.69896 80.258 10.459 80.258 13.3642ZM34.8633 3.92212V22.6611H38.3496V3.92212H34.8633ZM47.5738 7.69896C42.998 7.69896 40.9643 10.8221 40.9643 13.9453V22.7337H44.378V14.2358C44.378 13.1463 44.6685 12.2748 45.177 11.6211C45.6854 11.04 46.4117 10.6769 47.2833 10.6769C48.3001 10.6769 49.0991 10.9674 49.6075 11.6211C50.1885 12.2748 50.4064 13.219 50.4064 14.4537V22.6611H53.8201V14.1632C53.8928 9.95054 51.0601 7.69896 47.5738 7.69896ZM59.9212 3.92212H56.5075V17.4316C56.5075 20.8453 58.2507 22.879 61.9549 22.879C63.5528 22.879 64.497 22.3705 64.8601 21.5716V19.4653C64.2791 19.7558 63.4075 19.8284 62.3907 19.8284C61.5917 19.8284 60.938 19.6105 60.5022 19.1748C60.0664 18.739 59.8485 18.0126 59.8485 16.9958V10.6769H62.8264C64.2791 10.6769 64.9328 9.73265 64.9328 9.07896V7.69896H59.8485V3.92212H59.9212ZM116.283 13.3642V22.6611H119.697V14.0179C119.697 12.8558 119.915 12.0569 120.423 11.4758C120.932 10.8948 121.585 10.6769 122.457 10.6769C122.82 10.6769 123.111 10.6769 123.401 10.7495V7.98949C122.965 7.77159 122.384 7.62633 121.658 7.62633C117.809 7.69896 116.356 10.3863 116.283 13.3642ZM107.858 7.62633C103.355 7.62633 100.885 11.1853 100.885 15.5432C100.885 19.4653 103.282 22.7337 107.495 22.7337C111.998 22.7337 114.468 19.4653 114.468 15.0348C114.468 11.1853 112.071 7.62633 107.858 7.62633ZM107.858 19.6832C105.461 19.6832 104.444 18.0853 104.444 15.1074C104.444 12.6379 105.461 10.8221 107.568 10.8221C109.892 10.8221 110.981 12.6379 110.981 15.6158C110.981 18.0853 109.964 19.6832 107.858 19.6832ZM92.1696 16.1242V16.2695C92.4601 18.2305 93.9854 19.9737 96.237 19.9737C97.3991 19.9737 98.7064 19.8284 99.8686 19.2474V21.5716C99.0696 22.2253 97.7622 22.879 95.5833 22.879C91.9517 22.879 88.2475 20.119 88.2475 15.6158C88.2475 10.6769 91.298 7.62633 95.5107 7.62633C97.6896 7.62633 99.0696 8.28001 99.7959 8.86107V11.2579C98.7064 10.6769 97.3264 10.5316 96.1643 10.5316C93.9128 10.5316 92.3875 12.2021 92.0243 14.1632C92.0243 15.2526 92.1696 16.1242 92.1696 16.1242ZM131.536 7.77159C126.524 7.77159 124.491 11.1853 124.491 16.0516V24.259C124.491 25.8569 125.725 26.8011 126.96 26.8011H128.05V20.9905C128.776 22.2253 130.011 22.9516 131.609 22.9516C135.749 22.9516 138 19.7558 138 14.9621C137.927 11.4032 135.313 7.77159 131.536 7.77159ZM131.463 19.9737C129.357 19.9737 127.977 18.3032 127.977 15.3253C127.977 12.7832 129.066 11.04 130.955 11.04C133.206 11.04 134.296 12.5653 134.296 16.0516C134.369 18.4484 133.134 19.9737 131.463 19.9737Z" fill="white"/>
</g>
<defs>
<clipPath id="clip0_12_650">
<rect width="138" height="27.0159" fill="white"/>
</clipPath>
</defs>
</svg>
