<svg width="33" height="33" viewBox="0 0 33 33" fill="none" xmlns="http://www.w3.org/2000/svg">
<path fill-rule="evenodd" clip-rule="evenodd" d="M16.5 5.5C10.4249 5.5 5.5 10.4249 5.5 16.5C5.5 22.5751 10.4249 27.5 16.5 27.5C22.5751 27.5 27.5 22.5751 27.5 16.5C27.5 10.4249 22.5751 5.5 16.5 5.5ZM2.75 16.5C2.75 8.90608 8.90608 2.75 16.5 2.75C24.0939 2.75 30.25 8.90608 30.25 16.5C30.25 24.0939 24.0939 30.25 16.5 30.25C8.90608 30.25 2.75 24.0939 2.75 16.5ZM16.9027 11.4027C17.4397 10.8658 18.3103 10.8658 18.8473 11.4027L22.9723 15.5277C23.5092 16.0647 23.5092 16.9353 22.9723 17.4723L18.8473 21.5973C18.3103 22.1342 17.4397 22.1342 16.9027 21.5973C16.3658 21.0603 16.3658 20.1897 16.9027 19.6527L18.6805 17.875L11 17.875C10.2406 17.875 9.625 17.2594 9.625 16.5C9.625 15.7406 10.2406 15.125 11 15.125L18.6805 15.125L16.9027 13.3473C16.3658 12.8103 16.3658 11.9397 16.9027 11.4027Z" fill="white"/>
</svg>
