<svg width="57" height="58" viewBox="0 0 57 58" fill="none" xmlns="http://www.w3.org/2000/svg">
<path fill-rule="evenodd" clip-rule="evenodd" d="M18.7518 51.6668C17.6787 51.6668 16.6976 51.0605 16.2176 50.1006L6.30097 30.2673C5.35903 28.3834 6.72894 26.1668 8.83519 26.1668H27.9997C29.5645 26.1668 30.833 24.8983 30.833 23.3335C30.833 21.7687 29.5645 20.5002 27.9997 20.5002H25.1663V9.16683C25.1663 7.60203 26.4349 6.3335 27.9997 6.3335C28.0511 8.82221 28.8144 11.2467 30.1972 13.321L39.333 27.0247V49.4546L30.8226 51.5822C30.5979 51.6384 30.3671 51.6668 30.1354 51.6668H18.7518ZM44.9997 48.8335V26.1668H47.833C49.3978 26.1668 50.6663 27.4354 50.6663 29.0002V46.0002C50.6663 47.565 49.3978 48.8335 47.833 48.8335H44.9997ZM41.7938 20.5002L34.9122 10.1777C34.0998 8.9592 33.6663 7.52748 33.6663 6.06299C33.6663 3.08277 31.2504 0.666831 28.2702 0.666831H27.9997C23.3052 0.666831 19.4997 4.47241 19.4997 9.16683V20.5002H8.83519C2.51644 20.5002 -1.59328 27.1498 1.23255 32.8015L11.1492 52.6348C12.5891 55.5145 15.5323 57.3335 18.7518 57.3335H30.1354C30.8304 57.3335 31.5227 57.2483 32.197 57.0797L42.5151 54.5002H47.833C52.5274 54.5002 56.333 50.6946 56.333 46.0002V29.0002C56.333 24.3057 52.5274 20.5002 47.833 20.5002H41.7938Z" fill="white" fill-opacity="0.8"/>
</svg>
