<svg width="16" height="16" viewBox="0 0 16 16" fill="none" xmlns="http://www.w3.org/2000/svg">
<path fill-rule="evenodd" clip-rule="evenodd" d="M8.00065 14.6667C11.6825 14.6667 14.6673 11.6819 14.6673 8.00001C14.6673 4.31811 11.6826 1.33334 8.00065 1.33334C4.31875 1.33334 1.33398 4.31811 1.33398 8.00001C1.33398 11.6819 4.31875 14.6667 8.00065 14.6667ZM8.00065 6.00001C8.36884 6.00001 8.66732 5.70153 8.66732 5.33334C8.66732 4.96515 8.36884 4.66668 8.00065 4.66668H7.99398C7.62579 4.66668 7.32732 4.96515 7.32732 5.33334C7.32732 5.70153 7.62579 6.00001 7.99398 6.00001H8.00065ZM7.33398 10.6667C7.33398 11.0349 7.63246 11.3333 8.00065 11.3333C8.36884 11.3333 8.66732 11.0349 8.66732 10.6667L8.66732 8.00001C8.66732 7.63182 8.36884 7.33334 8.00065 7.33334C7.63246 7.33334 7.33398 7.63182 7.33398 8.00001V10.6667Z" fill="white"/>
</svg>
