<svg xmlns="http://www.w3.org/2000/svg" enable-background="new 0 0 4000 2500" viewBox="0 0 4000 2500"><path fill="#ffc6bd" d="M1085.5,405.1L964.1,710.2c-3.1,7.9,3.8,16.1,12.1,14.5l144-28.5L935,1075l397.6-518.2c6-7.9-0.9-19-10.6-17.2  L1159.6,572l116.9-201.8c4.5-8.2-2.9-17.9-12-15.7l-167.8,40.7C1091.5,396.6,1087.4,400.2,1085.5,405.1z"/><path fill="#abbaf4" d="M3408,610.8c30.6-172.9-68.7-289.5-224.4-307.6c-118-13.7-278.3,85.7-321.1,188.1  C2839.2,451,2801,424,2747.6,424c-124.8,0-230.9,109.1-266.1,242.3c-37.3-30.9-71.9-48.2-124.1-48.2  c-186.7,0-229.8,167.1-445.5,318.1c-97.6,68.3,91.6,113.2,445.5,113.2c117.3,0,777.5,0,881.4,0c125,0,275.9-84.4,316.7-226.3  C3580.1,737.4,3514.7,612.1,3408,610.8z"/><path fill="#7b92db" d="M2818.8,935.2C2818.8,935.2,2818.8,935.2,2818.8,935.2C2818.8,935.2,2818.8,935.2,2818.8,935.2z"/><path fill="#7b92db" d="M2818.8,935.2c-0.1,0-0.1,0-0.2,0C2818.7,935.2,2818.7,935.2,2818.8,935.2z"/><path fill="#7b92db" d="M2818.6,935.2c0,0-0.1,0-0.1,0C2818.5,935.2,2818.6,935.2,2818.6,935.2z"/><path fill="#7b92db" d="M2818.8,935.2C2818.8,935.2,2818.8,935.2,2818.8,935.2C2818.8,935.2,2818.8,935.2,2818.8,935.2z"/><path fill="#7b92db" d="M2819,935.2C2819,935.2,2819,935.2,2819,935.2C2819,935.2,2819,935.2,2819,935.2z"/><path fill="#7b92db" d="M2819.1,925.3C2819.1,925.3,2819.1,925.3,2819.1,925.3C2819,925.3,2819.1,925.3,2819.1,925.3   C2819.1,925.3,2819.1,925.3,2819.1,925.3z"/><path fill="#7b92db" d="M2818.5,935.2C2818.5,935.2,2818.5,935.2,2818.5,935.2C2818.5,935.2,2818.5,935.2,2818.5,935.2z"/><path fill="#7b92db" d="M2818.4,935.2C2818.4,935.2,2818.4,935.2,2818.4,935.2C2818.4,935.2,2818.4,935.2,2818.4,935.2   C2818.4,935.2,2818.4,935.2,2818.4,935.2z"/><path fill="#7b92db" d="M3534.1,753.1c-0.4-1.4-1.9-2.3-3.3-1.9c-93.7,25.3-210.6,41.2-304.8,21.2c-17.9-3.8-36-8.9-53.1-15.9   c15.8-23.1,29.2-48.6,32.7-71.4c3.2-22.6-0.4-53.8-12.8-77.7c-33.3-64-110.6-63.3-123.5-5.7c-6.7,28.1,0.7,70.2,21.9,101.1   c17.2,25.2,41.9,43.1,69.8,55.8c-8.9,12.3-18.2,23.7-26.7,33.3c-44.4,49.5-103.4,94.5-164.6,117.7c-45.9,17.2-71.6,15.4-99.6,16.7   l-12.8,0.5c-27.7-1-35.8-1.3-37.8-1.3c0,0-0.1,0-0.3,0c0,0-0.1,0-0.1,0c0,0,0,0,0,0l0,0c0,0-0.1,0-0.1,0c0,0,0,0,0,0   c0,0-0.1,0-0.1,0c0,0,0,0,0,0c0,0,0,0-0.1,0c0,0,0,0-0.1,0c0,0,0,0,0,0s0,0,0,0c0,0,0,0,0,0c-5.8-0.2-43.6-4.2-50.8-5.8   c-12.2-2.7-16.4-1.7-62.4-13.6c-47.4-13.4-89.6-31.4-132.5-48.7c-68-27.5-127.7-47.9-201.8-46.3c-74.4-4.2-645.4,125.9-709.3,140.3   l-402.4,92.2c-94.3,21.8-295,68.3-389.8,87c-4.1,0.7-8.1,1.2-12.1,1.9l-0.9,0.1c-4.6,0.7-7.7,5-7,9.6c0.7,4.6,5,7.7,9.6,7   c55.7-8.6,226.6-49.4,403.7-90.6l402-93.6c59.1-13.6,632.8-146.5,706.5-142.5c72.1-1.8,130.3,17.8,197.5,44.8   c47.7,19,84.5,34.9,133.8,48.6c47.3,12.1,50.3,10.8,63.6,13.6c7.4,1.6,45.7,5.5,51.7,5.7c0,0,0,0,0,0h0c0,0,0,0,0,0c0,0,0,0,0,0   c0,0,0,0,0,0c0,0,0,0,0,0c0,0,0,0,0,0c0,0,0,0,0,0c0,0,0,0,0,0c0.2,0,0.4,0,0.5,0c0,0-0.1,0-0.1,0c0.1,0,0.1,0,0.2,0c0,0,0,0,0,0   c0,0,0,0,0,0c0,0,0,0,0,0c0,0,0,0,0,0c2.1,0.1,10.3,0.3,38.4,1.2l13-0.5c27.8-1.4,55,0.4,102.6-17.6c63-24,122.9-70.3,167.8-120.7   c9-10.2,18.9-22.4,28.2-35.6c17.8,7.4,36.7,12.7,55.7,16.7c95.3,19.9,213,3.6,307.5-22.3C3533.6,756,3534.5,754.5,3534.1,753.1z    M2819.5,925.3c0,0-0.1,0-0.1,0C2819.4,925.3,2819.5,925.3,2819.5,925.3z M2819.6,925.4C2819.6,925.4,2819.6,925.4,2819.6,925.4   C2819.6,925.4,2819.6,925.4,2819.6,925.4z M3097,698.9c-20.8-30.5-26.7-71.3-20.6-95.4c11.2-50.3,79.2-50.9,109.3,7.5   c11.5,22.3,14.8,51.3,11.8,72.8c-3.4,21.7-16.9,46.7-32.6,69.3C3137.9,740.8,3113.7,723.5,3097,698.9z"/><path fill="#7b92db" d="M2819.2,925.3C2819.2,925.3,2819.2,925.3,2819.2,925.3C2819.2,925.3,2819.2,925.3,2819.2,925.3z"/><path fill="#ffc69f" d="M2891.5,775.5l-151.8,368.4c-3.7,8.9,3.9,18.4,13.5,16.7l164.4-29L2698,1557.9l464.3-579.7  c7.1-8.8-0.5-21.7-11.6-19.7L2959,991.2l144.1-250.9c5.3-9.3-2.9-20.4-13.4-18.1l-185.4,42.2  C2898.6,765.9,2893.7,769.9,2891.5,775.5z"/><path fill="#8eaeed" d="M2301.2,858.1c8.2-28.8,8.3-59.4,12.7-90.5c23.9-171.1-101.1-338.2-283.3-338.2c-170,0-328.9,129.4-374.6,302.2  c-24.4-48.8-84.9-91.9-159.1-91.9c-144.8,0-264.2,124-317.5,264.4c-44.2-37.5-101.4-60.3-163.9-60.1  c-208.7,0.6-219.4,210.9-537.5,394.2c-124.1,71.5,237.2,113.2,537.5,113.2c122.3,0,1156,0,1295.4,0s295.9-114.2,318.1-253.4  C2650.9,960.2,2501.5,800.4,2301.2,858.1z"/><path fill="#4a90f4" d="M1104.7,1998.2c-100.1,0-199.1-75.6-176.8-287.9s137.2-287.9,237.3-287.9s199.1,75.6,176.8,287.9   C1314.7,1970.2,1166.9,1998.2,1104.7,1998.2z M1156.5,1505.7c-78.7,0-131.6,74.6-145.3,204.7s23.6,204.7,102.3,204.7   c102.3,0,135.5-111.3,145.3-204.7C1272.4,1580.3,1235.1,1505.7,1156.5,1505.7z"/><path fill="#6fb8ef" d="M3528.9,1513.3c38.1-172.8-89.6-323.7-269.2-323.7c-143.9,0-296.5,86.3-365.9,221.4  c-44.3-27.7-84.8-48.9-140.8-48.9c-142.8,0-248,102.4-296.6,244.9c-40.3-37.4-94.3-60-153.6-60.3c-207.5-1.2-239.8,192.8-477,370.7  c-14.7,11-15.7,42.6,10.8,53.9c51,21.8,192.8,27,274.9,27c101.1,0,1252.3,0,1363.9,0c134.2,0,294.7-90,317.5-243  C3825.8,1534.6,3626.3,1475.3,3528.9,1513.3z"/><g><path fill="#4a90f4" d="M631,1998c-74.3-3.2-135.2-49-160.9-115.4c-2.9-7.5,1.7-16.5,9.7-19.5l53.4-19.9c7.1-2.6,14.3,0.3,17,6.8   c15.4,36.6,49.2,62.1,90.5,64.8c71.3,4.7,137-55.4,138.8-127.4c1.6-63.8-50.4-110.2-114.6-108.1c-62.4,2-100.7,26-102.4,27   l-39,25.9c-13.3,8.8-29.5-0.1-27.8-15.2l4.9-44.8l25.2-239.6c0.9-9,9.7-15.8,18.4-14.5l30.6,4.8c0.9,0.1,86.4,13.4,144.9,13.4   c56.7,0,108.7-12.5,109.2-12.6l21.8-5.3c10.8-2.6,20.9,3.8,22.4,14.4l6.2,42.5c1.5,10.6-6,21.3-16.9,23.9l-21.8,5.3   c-2.5,0.6-62.8,15.1-129.6,15.1c-35.5,0-78.2-4.1-110.2-8l-10.2,96.9c21.3-6.1,47-11,76.5-12.3c112.5-4.9,202.2,78.8,195.9,190.8   C856.4,1905.4,748.8,2003.1,631,1998z"/></g><path fill="#638ed3" d="M2412.3,1026.6c-0.7-0.7-1.7-0.7-2.4,0c-49.9,47.3-122.5,75.8-190.9,87.1c-50.8,8.3-109.1,8.4-157.8-7.5  c-37.8-12.3-95.1-45.5-147.4-63.1c-10.6-3.6-21.1-6.6-31.5-9c5.1-20.2,4.5-41.2-4.1-61.2c-27-62-114.4-95.5-181.4-107.5  c-73-12.6-142.2-5.2-213.7,16.2c-68.3,20.5-136.5,55.4-187.1,105.2c-10.3,10.2-19.9,21.1-28.6,32.7c-15.7-8.2-32.8-12.3-48.4-10.5  c-7.4,0.9-21.6,4.7-27.5,7.2c-26.4,9.6-47.7,28.8-66.4,49.6c-23.9,27.4-44.5,56.3-68.5,81.9c-78,83.9-171.1,116.5-280.9,120.8  c-69.9,3.2-243.7-8.2-319.5-14.2c-71-5.7-142-12.3-212.7-20l-0.1,0l-0.1,0c-5.5-0.6-10.4,3.4-11,8.9c-0.6,5.5,3.4,10.4,8.9,11  c71.1,7.4,142.2,13.6,213.4,18.9c80.1,5.9,250.3,16.1,321.6,12.5c113.7-5.2,210.9-39.8,291.5-127.5c24.7-26.6,45.4-56.1,68.4-82.5  c16.6-18.8,36.3-37.2,60.4-46c5.6-2.5,18.7-5.9,24.1-6.5c12-1.5,25.5,1.5,38.3,7.9c-20.8,30.2-38.2,69-24.9,102.9  c5.9,14.9,17.9,26,33.9,28.9c28.3,5,48.5-16.8,54.7-42.6c9-37.1-13.9-73.8-44.9-94.5c8.1-10.7,17-20.9,26.5-30.5  c49-48.8,115.5-83,181.8-103.4c70.4-21.5,137.3-29,208.9-16.8c63.5,11.1,149,42.9,174.7,101.4c7.8,18.1,8.3,37.3,3.7,55.7  c-57.8-11.6-112.8-5.1-171.7,13.7c-32.4,10.4-73.2,26.9-92.8,54.6c-13.7,20-9.1,39.9,8.6,51.9c14.7,10.1,35.3,13.7,53.2,14.2  c81.9,1.2,153.9-36.2,190.6-88.2c8.4-12,15.1-25.1,19.2-38.6c10.3,2.3,20.7,5.2,31.2,8.8c52.1,17.2,108.8,49.7,147.8,62.3  c49.5,16,108.5,15.7,159.9,7.1c69.3-11.7,142.4-40.7,192.6-88.7C2413,1028.4,2413,1027.3,2412.3,1026.6z M1309.6,1117.1  c-4.4,18.9-18.4,36.4-39.3,32.9c-11.6-2.1-20-10-24.4-20.9c-11.8-29.2,5.7-65.7,23.7-92C1296.3,1054.6,1317.1,1085.7,1309.6,1117.1z   M1854.3,1073.2c-34.5,49.3-103.5,86-183.2,85.1c-16.1-0.3-35.7-3.4-49-12.5c-14.4-9.7-18.1-24.6-6.9-41.2  c18-26,58.4-42.4,88.7-52.2c57.9-18.9,111.6-25.5,167.9-14.6C1868.1,1050.2,1862,1062.1,1854.3,1073.2z"/><path fill="#4ca1d6" d="M1747,1932.1c47.6,9.5,121.2,12.6,169.6,12.8c126.1,1.1,219.8-18.1,333.4-62.2c53.4-20.4,106.1-44.5,163.1-58.2  c50.6-11.8,101.9-14.9,174.1-1.5c97.6,18,170.3,60,249,63.5c60.9,2.8,108.5-15.7,154.4-53.6c61.3-50.7,116.1-138.9,123.3-215.4  c3.1-34-5.7-61.1-18.2-78.5c-33.5-47.1-90.2-21.9-68.7,70.9c27.7,115.2,294.5,171.3,458,109.8c80.5-30.7,220.5-109.4,318.1-132.3  c28.1-6.6,57.3-10.1,86.3-8c1.5,0.1,2.6,1.4,2.5,2.9c-0.1,1.5-1.4,2.6-2.9,2.5c-28.4-1.9-56.9,1.6-84.6,8.3  c-96.5,23.2-235.5,102.2-316.8,133.7c-166.3,63.5-440.2,8.4-470.3-114.4c-25.3-107,47.9-133.8,87.2-79.6  c17.7,25,23.3,56.4,20.6,85.8c-7.1,79.9-62.9,170.9-126.5,224c-48,39.9-98.5,59.9-162.9,57.3c-81.3-3.2-154.5-45.2-251.1-62.5  c-70.7-12.8-119.9-9.3-167.8,2.1c-54.9,13.5-107.1,37.5-160.8,58.4c-117.1,46.1-211.6,65.2-339.3,65.1  c-50.1,0.2-124.3-2.4-173.7-11.9c-5.3-1-8.7-6.1-7.7-11.4c1-5.3,6.1-8.7,11.4-7.7l0.1,0L1747,1932.1z"/><g><path fill="#4a90f4" d="M1546.8,1998c-74.3-3.2-135.2-49-160.9-115.4c-2.9-7.5,1.7-16.5,9.7-19.5l53.4-19.9c7.1-2.6,14.3,0.3,17,6.8   c15.4,36.6,49.2,62.1,90.5,64.8c71.3,4.7,137-55.4,138.8-127.4c1.6-63.8-50.4-110.2-114.6-108.1c-62.4,2-100.7,26-102.4,27   l-39,25.9c-13.3,8.8-29.5-0.1-27.8-15.2l4.9-44.8l25.2-239.6c0.9-9,9.7-15.8,18.4-14.5l30.6,4.8c0.9,0.1,86.4,13.4,144.9,13.4   c56.7,0,108.7-12.5,109.2-12.6l21.8-5.3c10.8-2.6,20.9,3.8,22.4,14.4l6.2,42.5c1.5,10.6-6,21.3-16.9,23.9l-21.8,5.3   c-2.5,0.6-62.8,15.1-129.6,15.1c-35.5,0-78.2-4.1-110.2-8l-10.2,96.9c21.3-6.1,47-11,76.5-12.3c112.5-4.9,202.2,78.8,195.9,190.8   C1772.1,1905.4,1664.5,2003.1,1546.8,1998z"/></g><path fill="#4ca1d6" d="M1806.1,1892.6c24.7,5,56.2,7.9,80.9,9.7c55.3,3.9,109.2,3.6,164.6,1.7c37.6-1.4,68-4,82.4-4.9l0,0  c0.9-0.1,1.7,0.6,1.7,1.5c0.1,0.9-0.6,1.6-1.5,1.7c-30.2,3.4-53.8,6-82.3,8.2c-55.7,4.2-109.8,6.7-165.7,5  c-25.2-0.9-56.9-2.5-83.5-6.7c-4.5-0.7-7.6-5-6.9-9.5c0.7-4.5,5-7.6,9.5-6.9c0.1,0,0.2,0,0.3,0.1L1806.1,1892.6z"/><path fill="#638ed3" d="M112.8,1313c47.3,10.3,115.1,14.4,163.6,15.7c79.1,2.4,164.9-3.4,165-3.4c0.7-0.1,1.4,0.5,1.5,1.3  c0.1,0.7-0.5,1.4-1.3,1.5c-34.6,3.1-111.8,6.7-165.3,6c-49.1-0.6-117.2-3.6-165.2-13.3c-2.1-0.4-3.5-2.5-3.1-4.6  c0.4-2.1,2.5-3.5,4.6-3.1c0,0,0,0,0,0L112.8,1313z"/><path fill="#638ed3" d="M362.1,1170.8c40.5,10.8,86,15.8,117.1,20c72.6,8.2,134.9,9.2,149.3,9.9l30,0.5c68.7,1.8,178.2-4,179.8-4.1l0,0  c0.8,0,1.5,0.6,1.5,1.4c0,0.8-0.6,1.5-1.4,1.5c-35.7,2.5-118.3,8.6-180,8.4l-30.1,0.2c-12.2-0.3-79.2-0.1-150.3-6.4  c-33.2-3.7-77.4-7.4-119.8-17.6c-3.8-0.9-6.2-4.8-5.3-8.6c0.9-3.8,4.8-6.2,8.6-5.3c0,0,0.1,0,0.1,0L362.1,1170.8z"/><path fill="#ffd19f" d="M2046.5,1208l-224.7,559.6c-3,7.9,3.8,16.1,12.1,14.4l260-50.5l-285.3,545.7c-8.3,17.7,16.1,32.2,27.7,16.4  l610.6-789.8c5.7-8-1.3-18.7-10.9-16.8l-290.6,57.9l235.1-399.3c4.8-8.1-2.4-18-11.6-16l-310.7,68.3  C2052.8,1199.2,2048.5,1202.9,2046.5,1208z"/></svg>