<svg width="20" height="18" viewBox="0 0 20 18" fill="none" xmlns="http://www.w3.org/2000/svg">
<path d="M14.0229 6.34794H19.0149L15.8339 3.16494C14.8098 2.14081 13.5341 1.40433 12.1351 1.02955C10.7361 0.654757 9.26309 0.654867 7.86416 1.02986C6.46522 1.40486 5.18965 2.14153 4.16569 3.16581C3.14172 4.19009 2.40545 5.46588 2.03089 6.86494M0.984887 16.6439V11.6519M0.984887 11.6519H5.97689M0.984887 11.6519L4.16489 14.8349C5.189 15.8591 6.46468 16.5955 7.86368 16.9703C9.26267 17.3451 10.7357 17.345 12.1346 16.97C13.5336 16.595 14.8091 15.8584 15.8331 14.8341C16.8571 13.8098 17.5933 12.534 17.9679 11.1349M19.0149 1.35594V6.34594" stroke="white" stroke-width="1.5" stroke-linecap="round" stroke-linejoin="round"/>
</svg>
