<?xml version="1.0" standalone="no"?>
<!DOCTYPE svg PUBLIC "-//W3C//DTD SVG 20010904//EN"
 "http://www.w3.org/TR/2001/REC-SVG-20010904/DTD/svg10.dtd">
<svg version="1.0" xmlns="http://www.w3.org/2000/svg"
 width="512.000000pt" height="512.000000pt" viewBox="0 0 512.000000 512.000000"
 preserveAspectRatio="xMidYMid meet">

<g transform="translate(0.000000,512.000000) scale(0.100000,-0.100000)"
fill="#000000" stroke="none">
<path d="M683 5110 c-64 -13 -116 -45 -166 -100 -110 -122 -105 -294 12 -411
66 -66 124 -89 221 -89 117 0 224 70 273 179 33 72 30 180 -6 253 -61 124
-203 195 -334 168z"/>
<path d="M2395 5109 c-236 -24 -494 -118 -695 -252 -208 -139 -353 -296 -515
-561 -9 -14 -20 -15 -97 -5 -95 11 -214 2 -321 -26 -324 -84 -580 -354 -655
-690 -23 -105 -20 -289 6 -398 25 -102 75 -214 132 -298 l40 -59 -40 -60 c-97
-143 -179 -343 -221 -540 -30 -140 -33 -427 -6 -565 38 -192 105 -368 199
-522 l53 -88 1 -140 c0 -166 23 -275 84 -400 257 -532 963 -667 1393 -266 34
32 52 42 61 36 131 -99 204 -144 304 -185 426 -178 909 -85 1244 240 l81 78
96 -5 c157 -9 367 20 529 73 115 38 305 134 407 205 111 79 281 247 358 355
361 509 378 1185 45 1706 l-50 78 40 60 c54 80 97 174 125 268 30 103 32 360
4 462 -25 90 -75 203 -122 275 -49 76 -183 210 -256 258 l-56 36 14 53 c21 76
21 257 -1 338 -85 325 -365 543 -696 543 -173 0 -322 -53 -459 -164 l-61 -49
-101 51 c-268 134 -567 189 -864 158z m-582 -1904 c156 -41 220 -110 166 -179
-25 -32 -68 -34 -114 -6 -17 11 -60 27 -94 36 -148 37 -297 -30 -372 -168 -32
-58 -34 -69 -34 -153 0 -78 4 -97 28 -147 54 -111 175 -188 294 -188 79 0 125
17 184 67 62 53 106 58 138 17 31 -40 26 -69 -20 -119 -83 -90 -228 -136 -363
-115 -431 66 -570 612 -223 873 117 88 270 119 410 82z m980 0 c89 -23 156
-62 223 -129 126 -126 173 -300 129 -471 -61 -234 -308 -395 -545 -355 -346
58 -526 451 -339 741 114 178 333 266 532 214z m903 -2 c101 -34 184 -151 184
-260 0 -94 -42 -177 -205 -400 l-104 -143 145 0 146 0 30 -30 c24 -25 29 -36
23 -58 -3 -15 -15 -36 -26 -47 -18 -19 -33 -20 -253 -20 -234 0 -234 0 -260
24 -28 26 -34 68 -15 103 6 12 51 74 99 139 141 189 219 303 246 364 24 51 25
61 15 95 -6 21 -25 50 -41 64 -72 60 -156 38 -202 -54 -41 -85 -86 -103 -135
-54 -22 22 -25 32 -20 69 2 26 18 65 36 94 72 111 208 158 337 114z"/>
<path d="M2603 3060 c-98 -21 -179 -85 -225 -178 -30 -60 -33 -75 -33 -152 0
-101 20 -154 85 -224 57 -61 133 -97 219 -104 141 -10 256 55 321 183 32 61
35 76 35 149 0 68 -4 90 -28 138 -68 139 -227 219 -374 188z"/>
</g>
</svg>
