<?xml version="1.0" encoding="UTF-8" standalone="no"?>
<!DOCTYPE svg PUBLIC "-//W3C//DTD SVG 1.1//EN" "http://www.w3.org/Graphics/SVG/1.1/DTD/svg11.dtd">
<svg width="100%" height="100%" viewBox="0 0 509 966" version="1.1" xmlns="http://www.w3.org/2000/svg" xmlns:xlink="http://www.w3.org/1999/xlink" xml:space="preserve" xmlns:serif="http://www.serif.com/" style="fill-rule:evenodd;clip-rule:evenodd;stroke-linejoin:round;stroke-miterlimit:2;">
    <g transform="matrix(1,0,0,1,-2868.88,-4501.69)">
        <g transform="matrix(3.86453,0,0,0.433794,15228.6,84.0649)">
            <g transform="matrix(0.258764,0,0,3.41644,-2961.54,-18276.4)">
                <g>
                    <g transform="matrix(1,0,0,0.674751,-811.368,8966.3)">
                        <path d="M-44.061,-74.236C-43.496,-73.39 -42.841,-72.532 -42.083,-71.681C-32.955,-61.444 -13.792,-50.527 24.359,-41.71C63.577,-32.646 95.239,-20.108 112.853,-12.311C120.814,-8.788 129.628,-7.306 138.457,-7.92C178.325,-10.694 270.839,-15.353 299.523,-6.677C307.447,-4.28 311.934,4.1 309.538,12.024C307.141,19.948 298.761,24.435 290.837,22.039C264.072,13.943 177.74,19.42 140.538,22.008C126.8,22.962 113.096,20.604 100.711,15.121C84.169,7.8 54.433,-3.968 17.603,-12.48C-96.651,-38.887 -76.427,-91.873 -76.427,-91.873C-75.075,-96.113 -71.909,-99.535 -67.786,-101.212C-62.503,-103.36 -53.104,-104.449 -42.457,-104.207C-22.631,-103.756 2.38,-99.755 2.38,-99.755C10.553,-98.442 16.123,-90.739 14.81,-82.565C13.497,-74.392 5.794,-68.822 -2.38,-70.135C-2.38,-70.135 -25.114,-73.805 -43.139,-74.215C-43.448,-74.222 -43.756,-74.229 -44.061,-74.236Z" style="fill:rgb(0,188,228);"/>
                    </g>
                    <g transform="matrix(1,0,0,0.674751,-555.172,8888.59)">
                        <path d="M-185.538,22.746L-95.652,56.676C-90.521,58.612 -85.043,59.624 -79.49,59.674L0.132,60.377C8.411,60.45 15.073,67.23 14.999,75.508C14.926,83.787 8.146,90.449 -0.132,90.375L-79.756,89.672C-88.857,89.592 -97.835,87.917 -106.245,84.744L-222.648,40.804C-227.94,38.807 -231.658,34.003 -232.264,28.38L-232.164,23.055L-230.748,17.147C-229.516,13.691 -227.337,9.585 -223.308,5.623C-216.605,-0.966 -202.844,-8.836 -172.996,-7.052C-138.312,-4.98 -114.292,7.963 -102.119,16.375C-83.74,6.195 -41.702,-13.495 -1.166,-6.981C55.291,2.09 72.582,27.119 72.582,27.119C77.562,33.733 76.235,43.145 69.622,48.125C63.008,53.105 53.596,51.778 48.616,45.165C48.616,45.165 35.078,29.227 -5.926,22.639C-49.441,15.647 -94.878,46.917 -94.878,46.917C-100.737,50.879 -108.568,50.209 -113.669,45.311C-113.669,45.311 -135.276,25.255 -174.786,22.894C-178.817,22.653 -182.384,22.611 -185.538,22.746Z" style="fill:rgb(0,188,228);"/>
                    </g>
                    <g transform="matrix(1,0,0,0.674751,-618.403,8723.56)">
                        <path d="M-258.857,-58.006C-261.058,-50.261 -263.058,-41.79 -264.459,-33.571C-266.485,-21.686 -267.821,-10.391 -265.015,-3.643C-254.567,21.492 -228.237,35.521 -201.201,44.353C-156.627,58.915 -108.659,58.461 -108.659,58.461C-108.423,58.458 -108.187,58.462 -107.951,58.471C-87.065,59.264 -70.532,76.408 -70.532,97.309L-70.532,190.023C-70.532,203.666 -59.473,214.725 -45.83,214.725L-39.702,214.725C-26.059,214.725 -15,203.666 -15,190.023L-15,121.291C-15,113.012 -8.279,106.291 -0,106.291C8.279,106.291 15,113.012 15,121.291L15,190.023C15,220.234 -9.491,244.725 -39.702,244.725L-45.83,244.725C-76.041,244.725 -100.532,220.234 -100.532,190.023L-100.532,97.309C-100.532,92.615 -104.193,88.761 -108.856,88.461C-114.22,88.462 -164.039,88.054 -210.517,72.87C-245.999,61.278 -279.005,40.859 -292.717,7.873C-296.128,-0.334 -297.098,-12.645 -295.705,-26.44C-292.917,-54.06 -281.461,-88.339 -274.797,-99.866C-273.803,-101.585 -272.844,-102.979 -271.988,-104.05L-268.773,-107.31L-264.658,-109.769L-259.997,-110.939L-253.282,-110.119L-247.724,-106.734L-244.372,-102.263C-244.372,-102.263 -242.709,-97.455 -242.709,-97.455C-235.174,-60.665 -189.165,-6.334 -114.229,14.006C-106.239,16.174 -101.513,24.422 -103.682,32.411C-105.85,40.401 -114.098,45.127 -122.087,42.958C-190.125,24.49 -236.775,-19.058 -258.857,-58.006Z" style="fill:rgb(0,144,59);"/>
                    </g>
                    <g transform="matrix(0.523414,0.574941,0.852079,-0.353174,-786.962,8596.48)">
                        <path d="M-40.153,-79.218C-48.141,-77.044 -52.861,-68.794 -50.687,-60.806C-48.512,-52.817 -40.262,-48.097 -32.274,-50.272C15.329,-63.228 64.494,-64.802 111.351,-50.406C119.265,-47.975 127.664,-52.426 130.095,-60.34C132.526,-68.254 128.075,-76.652 120.161,-79.084C67.86,-95.152 12.982,-93.681 -40.153,-79.218Z" style="fill:rgb(124,187,92);"/>
                    </g>
                    <g transform="matrix(0.969956,0.164153,0.24328,-0.654479,-742.826,8687.69)">
                        <path d="M-7.467,-35.92C-15.331,-33.335 -19.618,-24.851 -17.033,-16.986C-14.448,-9.121 -5.964,-4.835 1.901,-7.42C49.241,-22.98 105.671,-24.533 171.425,-7.167C179.429,-5.053 187.644,-9.835 189.758,-17.84C191.872,-25.844 187.09,-34.059 179.085,-36.173C106.727,-55.283 44.628,-53.043 -7.467,-35.92Z" style="fill:rgb(124,187,92);"/>
                    </g>
                    <g transform="matrix(0.991145,-0.0895979,-0.132787,-0.668776,-537.348,8731.08)">
                        <path d="M-0.773,-12.085C-9.045,-11.765 -15.502,-4.789 -15.182,3.483C-14.863,11.756 -7.887,18.213 0.386,17.893C14.038,17.365 28.238,17.356 43,17.894C51.273,18.195 58.234,11.723 58.536,3.45C58.837,-4.823 52.365,-11.785 44.092,-12.086C28.55,-12.652 13.601,-12.64 -0.773,-12.085Z" style="fill:rgb(124,187,92);"/>
                    </g>
                    <g transform="matrix(0.475512,0.593585,0.879709,-0.320852,-696.129,8540.74)">
                        <path d="M-76.043,-111.919C-82.704,-107.002 -84.121,-97.603 -79.204,-90.942C-74.288,-84.281 -64.889,-82.865 -58.228,-87.781C19.082,-144.843 99.414,-135.647 165.568,-87.704C172.271,-82.846 181.658,-84.344 186.516,-91.048C191.374,-97.751 189.876,-107.138 183.172,-111.996C106.549,-167.526 13.502,-178.011 -76.043,-111.919Z" style="fill:rgb(124,187,92);"/>
                    </g>
                    <g transform="matrix(0.998026,0.0423734,0.0627986,-0.673419,-664.163,8682.57)">
                        <path d="M-3.853,-19.381C-11.905,-17.457 -16.879,-9.357 -14.954,-1.305C-13.03,6.747 -4.93,11.721 3.122,9.797C50.695,-1.575 100.835,0.311 149.115,9.919C157.234,11.535 165.138,6.255 166.754,-1.864C168.37,-9.984 163.09,-17.888 154.97,-19.504C102.448,-29.957 47.901,-31.753 -3.853,-19.381Z" style="fill:rgb(124,187,92);"/>
                    </g>
                    <g transform="matrix(1,0,0,0.674751,-478.063,8771.52)">
                        <path d="M2.402,-108.445C-5.77,-107.119 -13.481,-112.677 -14.806,-120.849C-16.132,-129.021 -10.574,-136.732 -2.402,-138.057C11.154,-140.256 24.874,-140.749 37.436,-135.748C61.574,-126.14 75.019,-97.396 70.578,-71.797C66.569,-48.68 50.162,-28.972 30.024,-16.929C12.047,-6.177 -8.657,-0.937 -29.255,2.866C-57.513,8.083 -85.176,15.378 -113.818,17.519C-122.073,18.136 -129.277,11.935 -129.894,3.679C-130.511,-4.576 -124.31,-11.78 -116.054,-12.397C-88.492,-14.458 -61.895,-21.615 -34.701,-26.636C-17.605,-29.791 -0.294,-33.753 14.626,-42.675C27.388,-50.307 38.479,-62.274 41.02,-76.925C43.132,-89.099 37.82,-103.306 26.34,-107.876C18.803,-110.876 10.536,-109.764 2.402,-108.445Z" style="fill:rgb(0,144,59);"/>
                    </g>
                    <g transform="matrix(-0.992338,-0.0833695,-0.123556,0.669581,-669.46,8581.6)">
                        <path d="M-178.731,-44.03C-184.877,-49.576 -194.37,-49.089 -199.916,-42.942C-205.463,-36.796 -204.975,-27.303 -198.829,-21.757C-166.522,7.396 -132.729,21.005 -97.313,20.707C-62.748,20.416 -26.28,6.631 12.192,-20.659C18.944,-25.448 20.538,-34.819 15.748,-41.572C10.958,-48.324 1.587,-49.918 -5.165,-45.128C-37.737,-22.023 -68.301,-9.538 -97.566,-9.292C-125.98,-9.053 -152.81,-20.64 -178.731,-44.03Z" style="fill:rgb(124,187,92);"/>
                    </g>
                    <g transform="matrix(1,0,0,0.674751,-501.978,8556.99)">
                        <path d="M-10.418,-37.208C-4.462,-42.958 5.042,-42.79 10.792,-36.834C16.542,-30.878 16.374,-21.374 10.418,-15.624C-11.388,5.427 -38.244,15.546 -70.467,11.077C-77.501,10.101 -84.309,8.163 -90.881,5.523C-98.563,2.437 -102.295,-6.305 -99.209,-13.987C-96.123,-21.669 -87.381,-25.401 -79.699,-22.315C-75.397,-20.587 -70.951,-19.277 -66.345,-18.639C-44.053,-15.547 -25.504,-22.643 -10.418,-37.208Z" style="fill:rgb(124,187,92);"/>
                    </g>
                    <g transform="matrix(1,0,0,0.674751,-616.701,8608.81)">
                        <path d="M8.736,-114.494C15.466,-109.673 17.015,-100.295 12.193,-93.565C7.372,-86.835 -2.006,-85.286 -8.736,-90.108C-18.571,-97.154 -28.058,-104.714 -38.485,-110.839C-51.455,-118.456 -67.733,-124.382 -81.201,-117.682C-93.172,-111.727 -98.345,-96.77 -97.065,-83.461C-95.505,-67.245 -86.227,-52.76 -75.539,-40.465C-55.079,-16.931 -27.716,0.528 2.248,9.165C48.788,22.58 99.156,11.127 145.069,0.021C153.116,-1.926 161.229,3.027 163.175,11.073C165.122,19.12 160.169,27.233 152.123,29.179C101.296,41.475 45.459,52.842 -6.062,37.991C-41.546,27.762 -73.951,7.087 -98.179,-20.783C-112.93,-37.751 -124.775,-58.21 -126.927,-80.589C-129.36,-105.879 -117.311,-133.225 -94.563,-144.542C-72.243,-155.647 -44.789,-149.332 -23.292,-136.707L-23.291,-136.707C-12.083,-130.123 -1.835,-122.068 8.736,-114.494Z" style="fill:rgb(124,187,92);"/>
                    </g>
                    <g transform="matrix(1,0,0,0.674751,-580.871,8445.34)">
                        <path d="M11.11,39.633C16.672,45.764 16.21,55.259 10.078,60.821C3.947,66.383 -5.548,65.921 -11.11,59.789C-11.11,59.789 -51.371,15 -105.222,15C-148.054,15 -181.877,49.057 -181.877,49.057C-187.741,54.901 -197.247,54.884 -203.091,49.021C-208.935,43.157 -208.918,33.651 -203.055,27.807C-203.055,27.807 -159.752,-15 -105.222,-15C-38.818,-15 11.11,39.633 11.11,39.633Z" style="fill:rgb(124,187,92);"/>
                    </g>
                    <g transform="matrix(1,0,0,0.674751,-607.498,8385.29)">
                        <path d="M-97.362,8.273C-91.464,3.325 -86.366,-0.808 -83.321,-2.977C-64.465,-16.408 -33.911,-13.446 -15.918,15.729C-9.729,25.765 13.036,65.753 13.036,65.753C17.131,72.948 14.615,82.114 7.42,86.209C0.225,90.304 -8.941,87.788 -13.036,80.593C-13.036,80.593 -35.376,41.33 -41.452,31.477C-48.253,20.451 -58.791,16.383 -65.917,21.459C-77.275,29.548 -118.467,66.329 -118.467,66.329C-119.24,67.018 -120.083,67.625 -120.981,68.141L-127.66,70.549L-134.61,70.485L-140.718,68.248L-145.558,64.43L-149.025,59.331L-150.825,53.08L-150.396,46.141L-147.521,39.649L-148.29,40.926C-148.29,40.926 -137.776,21.333 -125.332,-1.16C-121.325,-8.404 -112.19,-11.032 -104.946,-7.024C-99.329,-3.917 -96.488,2.272 -97.362,8.273Z" style="fill:rgb(0,144,59);"/>
                    </g>
                    <g transform="matrix(1,0,0,0.674751,-701.997,8355.63)">
                        <path d="M13.01,26.019C8.889,33.199 -0.286,35.684 -7.466,31.563C-14.646,27.442 -17.131,18.267 -13.01,11.087C-5.795,-1.485 0.753,-12.439 5.002,-18.68C22.191,-43.927 63.241,-44.529 80.94,-15.636C90.532,0.022 102.015,18.654 113.658,37.907C117.943,44.991 115.669,54.22 108.585,58.504C101.501,62.789 92.272,60.515 87.988,53.431C76.377,34.232 64.924,15.65 55.358,0.034C49.391,-9.707 35.595,-10.309 29.8,-1.796C25.833,4.031 19.747,14.279 13.01,26.019Z" style="fill:rgb(0,144,59);"/>
                    </g>
                    <g transform="matrix(1,0,0,0.674751,-583.532,8533.93)">
                        <path d="M-12.924,-181.442C-17.126,-188.575 -14.747,-197.778 -7.615,-201.981C-0.482,-206.183 8.721,-203.804 12.924,-196.672C31.728,-164.757 48.528,-134.353 55.955,-115.723C70.938,-78.145 62.962,-44.831 46.382,-26.563C36.657,-15.848 23.911,-9.786 10.031,-9.597C-2.953,-9.421 -17.302,-14.427 -30.99,-27.131C-38.832,-34.409 -48.835,-44.746 -60.958,-53.71C-67.615,-58.631 -69.024,-68.032 -64.102,-74.688C-59.181,-81.345 -49.78,-82.754 -43.124,-77.832C-29.989,-68.122 -19.078,-57.005 -10.582,-49.119C-0.267,-39.546 10.29,-37.283 18.605,-42.143C33.82,-51.035 39.425,-76.18 28.089,-104.613C21.032,-122.311 4.94,-151.123 -12.924,-181.442Z" style="fill:rgb(124,187,92);"/>
                    </g>
                    <g transform="matrix(1,0,0,0.674751,-668.88,8575.61)">
                        <path d="M4.028,-159.114C12.003,-156.891 16.672,-148.612 14.449,-140.637C12.226,-132.662 3.947,-127.993 -4.028,-130.216C-21.604,-135.115 -42.055,-132.029 -65.536,-113.454C-101.586,-84.936 -97.291,-30.642 -84.688,0.282C-81.564,7.948 -85.251,16.709 -92.918,19.834C-100.584,22.958 -109.345,19.271 -112.47,11.604C-128.998,-28.952 -131.427,-99.582 -84.148,-136.982C-50.664,-163.471 -21.036,-166.101 4.028,-159.114Z" style="fill:rgb(124,187,92);"/>
                    </g>
                    <g transform="matrix(-0.962504,-0.183038,-0.271267,0.64945,-741.425,8621.46)">
                        <path d="M-277.927,-39.67C-284.524,-44.671 -293.941,-43.375 -298.942,-36.777C-303.943,-30.18 -302.647,-20.763 -296.049,-15.762C-296.049,-15.762 -134.074,106.921 24.349,-15.86C30.893,-20.931 32.088,-30.361 27.016,-36.905C21.945,-43.448 12.515,-44.643 5.972,-39.572C-134.404,69.222 -277.927,-39.67 -277.927,-39.67Z" style="fill:rgb(124,187,92);"/>
                    </g>
                </g>
            </g>
        </g>
    </g>
</svg>
