<svg width="887" height="536" viewBox="0 0 887 536" fill="none" xmlns="http://www.w3.org/2000/svg">
<path d="M8.80933 310.66C8.80933 310.66 8.43867 307.455 8 297.592" stroke="#7FBC5C" stroke-width="15.64" stroke-miterlimit="10" stroke-linecap="round" stroke-linejoin="round"/>
<path d="M42.5738 324.467C42.5738 324.467 33.0738 274.563 46.5871 208.576" stroke="#7FBC5C" stroke-width="15.64" stroke-miterlimit="10" stroke-linecap="round" stroke-linejoin="round"/>
<path d="M72.2193 255.743C72.2193 255.743 66.0967 293.631 80.6393 356.393" stroke="#7FBC5C" stroke-width="15.64" stroke-miterlimit="10" stroke-linecap="round" stroke-linejoin="round"/>
<path d="M73.75 231.632C73.75 231.632 80.5953 193.754 89.4193 173.275" stroke="#7FBC5C" stroke-width="15.64" stroke-miterlimit="10" stroke-linecap="round" stroke-linejoin="round"/>
<path d="M119.292 391.655C119.292 391.655 108.193 358.055 106.663 335.793" stroke="#7FBC5C" stroke-width="15.64" stroke-miterlimit="10" stroke-linecap="round" stroke-linejoin="round"/>
<path d="M103.346 313.274C103.346 313.274 92.6579 217.454 147.754 124.083" stroke="#7FBC5C" stroke-width="15.64" stroke-miterlimit="10" stroke-linecap="round" stroke-linejoin="round"/>
<path d="M152.442 388.396C148.392 375.079 144.338 361.747 141.32 348.159C122.658 264.132 146.813 171.735 204.21 107.593" stroke="#7FBC5C" stroke-width="15.64" stroke-miterlimit="10" stroke-linecap="round" stroke-linejoin="round"/>
<path d="M182.236 388.396C178.186 375.079 174.132 361.747 171.114 348.159C152.452 264.132 180.078 155.521 252.766 100.205" stroke="#7FBC5C" stroke-width="15.64" stroke-miterlimit="10" stroke-linecap="round" stroke-linejoin="round"/>
<path d="M212.851 391.732C204.796 356.868 197.911 321.476 197.621 285.695C197.332 249.915 203.948 213.474 221.467 182.272C237.817 153.152 262.928 129.796 290.197 110.515" stroke="#7FBC5C" stroke-width="15.64" stroke-miterlimit="10" stroke-linecap="round" stroke-linejoin="round"/>
<path d="M231.615 469.206C247.401 435.038 244.711 395.531 238.769 358.364C233.542 325.676 224.97 292.09 230.273 258.847C234.987 229.29 245.593 205.412 263.069 181.622C281.01 157.198 307.542 134.604 333.942 119.406" stroke="#7FBC5C" stroke-width="15.64" stroke-miterlimit="10" stroke-linecap="round" stroke-linejoin="round"/>
<path d="M261.372 484.702C265.496 467.703 269.619 450.705 273.743 433.705" stroke="#7FBC5C" stroke-width="15.64" stroke-miterlimit="10" stroke-linecap="round" stroke-linejoin="round"/>
<path d="M274.352 404.033C275.427 383.944 273.926 363.721 269.918 344.007C266.066 325.057 260.258 308.04 260.258 288.301C260.258 202.624 329.714 133.169 415.391 133.169C497.758 133.169 559.898 195.559 572.731 277.02" stroke="#7FBC5C" stroke-width="15.64" stroke-miterlimit="10" stroke-linecap="round" stroke-linejoin="round"/>
<path d="M576.598 300.646C578.69 316.094 580.78 331.544 582.872 346.992" stroke="#7FBC5C" stroke-width="15.64" stroke-miterlimit="10" stroke-linecap="round" stroke-linejoin="round"/>
<path d="M284.821 510.748C305.206 468.335 306.443 421.206 302.938 374.243C300.546 342.216 288.009 318.488 289.099 290.042C290.197 261.419 297.185 233.647 320.657 208.607" stroke="#7FBC5C" stroke-width="15.64" stroke-miterlimit="10" stroke-linecap="round" stroke-linejoin="round"/>
<path d="M336.778 192.51C357.076 175.34 383.226 165.219 409.795 164.247C436.364 163.276 463.183 171.46 484.682 187.102C512.891 207.624 530.94 239.743 540.8 273.204C550.659 306.666 553.083 341.798 555.422 376.603" stroke="#7FBC5C" stroke-width="15.64" stroke-miterlimit="10" stroke-linecap="round" stroke-linejoin="round"/>
<path d="M312.961 527.679C330.908 478.059 338.565 424.744 335.311 372.079" stroke="#7FBC5C" stroke-width="15.64" stroke-miterlimit="10" stroke-linecap="round" stroke-linejoin="round"/>
<path d="M332.365 346.575C320.274 318.571 316.637 286.225 326.305 257.296C335.973 228.365 365.491 205.455 395.271 198.855C425.465 192.163 459.881 202.335 481.887 224.063C503.893 245.791 508.987 276.171 514.933 306.519C520.878 336.868 521.547 349.787 523.969 397.316" stroke="#7FBC5C" stroke-width="15.64" stroke-miterlimit="10" stroke-linecap="round" stroke-linejoin="round"/>
<path d="M349.034 521.939C354.836 502.309 359.458 482.331 362.871 462.149C366.164 442.675 369.963 421.767 368.722 402.019C366.967 374.111 363.535 346.308 358.447 318.812C355.616 303.512 350.996 288.293 354.988 273.255C358.98 258.215 368.666 244.76 381.662 236.203C389.092 231.308 397.662 227.965 406.54 227.388C433.066 225.665 459.459 237.843 470.838 261.732C478.932 278.724 482.107 300.863 485.239 319.315C488.524 338.672 490.271 358.249 491.66 377.823" stroke="#7FBC5C" stroke-width="15.64" stroke-miterlimit="10" stroke-linecap="round" stroke-linejoin="round"/>
<path d="M397.266 414.007C400.319 381.773 397.628 349.004 389.358 317.701C386.316 306.188 382.504 294.152 385.468 282.619C388.263 271.745 397.432 262.737 408.382 260.251C419.33 257.765 431.551 261.977 438.552 270.755C444.396 278.081 446.435 287.652 448.176 296.861C454.612 330.909 459.335 365.28 462.323 399.803" stroke="#7FBC5C" stroke-width="15.64" stroke-miterlimit="10" stroke-linecap="round" stroke-linejoin="round"/>
<path d="M430.013 412.772C432.237 370.953 426.947 328.746 414.471 288.77" stroke="#7FBC5C" stroke-width="15.64" stroke-miterlimit="10" stroke-linecap="round" stroke-linejoin="round"/>
<path d="M456.757 107.797C501.934 115.433 542.946 144.975 568.428 183.055C593.909 221.133 608.84 284.08 612.821 329.725" stroke="#7FBC5C" stroke-width="15.64" stroke-miterlimit="10" stroke-linecap="round" stroke-linejoin="round"/>
<path d="M637.508 284.441C637.508 284.441 627.676 202.91 591.581 158.966" stroke="#7FBC5C" stroke-width="15.64" stroke-miterlimit="10" stroke-linecap="round" stroke-linejoin="round"/>
<path d="M572.731 138.948C572.731 138.948 545.407 107.508 504.583 91.0813" stroke="#7FBC5C" stroke-width="15.64" stroke-miterlimit="10" stroke-linecap="round" stroke-linejoin="round"/>
<path d="M663.146 252.914C663.146 252.914 654.726 161.145 565.461 92.233" stroke="#7FBC5C" stroke-width="15.64" stroke-miterlimit="10" stroke-linecap="round" stroke-linejoin="round"/>
<path d="M700.468 278.405C700.468 278.405 690.448 172.63 619.391 95.897" stroke="#7FBC5C" stroke-width="15.64" stroke-miterlimit="10" stroke-linecap="round" stroke-linejoin="round"/>
<path d="M730.885 277.02C730.885 277.02 718.255 154.849 651.665 87.0049" stroke="#7FBC5C" stroke-width="15.64" stroke-miterlimit="10" stroke-linecap="round" stroke-linejoin="round"/>
<path d="M762.266 271.619C762.266 271.619 748.562 169.991 702.777 102.052" stroke="#7FBC5C" stroke-width="15.64" stroke-miterlimit="10" stroke-linecap="round" stroke-linejoin="round"/>
<path d="M793.157 261.432C793.157 261.432 787.09 224.744 769.919 169.991" stroke="#7FBC5C" stroke-width="15.64" stroke-miterlimit="10" stroke-linecap="round" stroke-linejoin="round"/>
<path d="M740.58 106.061C740.58 106.061 748.562 115.857 760.081 144.314" stroke="#7FBC5C" stroke-width="15.64" stroke-miterlimit="10" stroke-linecap="round" stroke-linejoin="round"/>
<path d="M820.692 253.84C820.692 253.84 817.675 235.757 812.653 208.472" stroke="#7FBC5C" stroke-width="15.64" stroke-miterlimit="10" stroke-linecap="round" stroke-linejoin="round"/>
<path d="M849.692 242.619C849.692 242.619 847.652 229.874 842.632 202.589" stroke="#7FBC5C" stroke-width="15.64" stroke-miterlimit="10" stroke-linecap="round" stroke-linejoin="round"/>
<path d="M791.543 135.683L795.994 149.025" stroke="#7FBC5C" stroke-width="15.64" stroke-miterlimit="10" stroke-linecap="round" stroke-linejoin="round"/>
<path d="M871.886 191.049L878.264 225.895" stroke="#7FBC5C" stroke-width="15.64" stroke-miterlimit="10" stroke-linecap="round" stroke-linejoin="round"/>
<path d="M353.221 72.2551L367.189 59.6645" stroke="#7FBC5C" stroke-width="15.64" stroke-miterlimit="10" stroke-linecap="round" stroke-linejoin="round"/>
<path d="M407.756 34.0237C407.756 34.0237 429.983 22.5423 456.757 19.673" stroke="#7FBC5C" stroke-width="15.64" stroke-miterlimit="10" stroke-linecap="round" stroke-linejoin="round"/>
<path d="M500.753 15.4626L517.018 7.99998" stroke="#7FBC5C" stroke-width="15.64" stroke-miterlimit="10" stroke-linecap="round" stroke-linejoin="round"/>
</svg>
