<svg width="230" height="230" viewBox="0 0 230 230" fill="none" xmlns="http://www.w3.org/2000/svg">
<rect width="230" height="230" fill="white"/>
<path d="M84.6014 105.203C95.9792 105.203 105.203 95.9792 105.203 84.6014C105.203 73.2235 95.9792 64 84.6014 64C73.2235 64 64 73.2235 64 84.6014C64 95.9792 73.2235 105.203 84.6014 105.203Z" fill="#C3E0B4" stroke="#598541" stroke-width="6.2071" stroke-linecap="round" stroke-linejoin="round"/>
<path d="M145.772 105.203C157.15 105.203 166.374 95.9792 166.374 84.6014C166.374 73.2236 157.15 64.0001 145.772 64.0001C134.394 64.0001 125.171 73.2236 125.171 84.6014C125.171 95.9792 134.394 105.203 145.772 105.203Z" fill="#C3E0B4" stroke="#598541" stroke-width="6.2071" stroke-linecap="round" stroke-linejoin="round"/>
<path d="M84.6014 166.374C95.9792 166.374 105.203 157.15 105.203 145.772C105.203 134.395 95.9792 125.171 84.6014 125.171C73.2235 125.171 64 134.395 64 145.772C64 157.15 73.2235 166.374 84.6014 166.374Z" fill="#C3E0B4" stroke="#598541" stroke-width="6.2071" stroke-linecap="round" stroke-linejoin="round"/>
<path d="M125.171 145.772H166.38" stroke="#598541" stroke-width="6.2071" stroke-linecap="round" stroke-linejoin="round"/>
<path d="M145.772 166.38V125.171" stroke="#598541" stroke-width="6.2071" stroke-linecap="round" stroke-linejoin="round"/>
</svg>
