<svg width="162" height="161" viewBox="0 0 162 161" fill="none" xmlns="http://www.w3.org/2000/svg">
<g clip-path="url(#clip0_11_11)" filter="url(#filter0_i_11_11)">
<path d="M80.6552 125.001C82.8361 125.001 84.6043 123.233 84.6043 121.052V106.08C85.3441 105.983 86.1513 105.852 87.0127 105.678C90.1983 105.033 93.11 103.992 95.668 102.584C99.0795 100.707 101.79 98.2123 103.724 95.1694C106.022 91.5542 107.187 87.216 107.187 82.2765C107.187 76.6399 105.902 70.6231 103.368 64.3935C101.389 59.5299 98.6435 54.5146 95.2073 49.4871C89.4011 40.9914 83.6412 35.3953 83.399 35.1615C81.8689 33.6835 79.4426 33.6835 77.9119 35.1615C77.6697 35.3958 71.9099 40.9919 66.1037 49.4871C62.6675 54.5146 59.9221 59.5299 57.9433 64.3935C55.4085 70.6236 54.1238 76.6399 54.1238 82.2765C54.1238 87.216 55.289 91.5537 57.5869 95.1694C59.5208 98.2123 62.2315 100.707 65.643 102.584C68.2009 103.992 71.1132 105.033 74.2983 105.678C75.1592 105.852 75.9669 105.983 76.7067 106.08V121.052C76.7067 123.233 78.4748 125.001 80.6557 125.001H80.6552ZM62.0214 82.2765C62.0214 71.7288 67.7391 61.1179 72.5354 54.0733C75.5325 49.6719 78.5596 46.0699 80.6547 43.741C86.4256 50.1569 99.2885 66.2554 99.2885 82.276C99.2885 93.9089 90.1409 97.1871 84.6037 98.106V83.0216C84.6037 80.8406 82.8356 79.0725 80.6547 79.0725C78.4737 79.0725 76.7056 80.8406 76.7056 83.0216V98.106C71.169 97.1871 62.0209 93.9094 62.0209 82.276L62.0214 82.2765Z" fill="#D1D3D4" fill-opacity="0.15"/>
<path d="M40.9667 23.3869C51.4959 13.3989 65.2908 7.89814 79.8102 7.89814C110.937 7.89814 136.261 33.2222 136.261 64.3493C136.261 66.5302 138.03 68.2984 140.21 68.2984C142.391 68.2984 144.16 66.5302 144.16 64.3493C144.16 55.664 142.458 47.2361 139.101 39.3006C137.488 35.4869 135.492 31.8084 133.167 28.3685C130.866 24.9618 128.223 21.7588 125.312 18.8476C122.401 15.9363 119.198 13.2936 115.791 10.9921C112.351 8.66794 108.673 6.67182 104.859 5.05849C96.9234 1.70179 88.4961 0 79.8108 0C63.2594 0 47.5342 6.2706 35.5312 17.6571C33.9489 19.1583 33.8831 21.6577 35.3843 23.24C36.8849 24.8223 39.3849 24.8881 40.9672 23.3874L40.9667 23.3869Z" fill="#D1D3D4" fill-opacity="0.15"/>
<path d="M160.154 63.5457C158.612 62.0035 156.111 62.0035 154.569 63.5457L140.21 77.9045L125.854 63.5462C124.312 62.004 121.812 62.004 120.269 63.5462C118.727 65.0885 118.727 67.5885 120.269 69.1313L137.418 86.2824C138.159 87.0232 139.163 87.4392 140.21 87.4392C141.257 87.4392 142.262 87.0232 143.002 86.2824L160.153 69.1313C161.696 67.589 161.696 65.0885 160.153 63.5462L160.154 63.5457Z" fill="#D1D3D4" fill-opacity="0.15"/>
<path d="M120.343 136.861C109.814 146.849 96.0193 152.35 81.4999 152.35C50.3728 152.35 25.0488 127.026 25.0488 95.8987C25.0488 93.7177 23.2806 91.9496 21.0997 91.9496C18.9188 91.9496 17.1506 93.7177 17.1506 95.8987C17.1506 104.584 18.8524 113.012 22.2091 120.947C23.8225 124.761 25.8186 128.44 28.1427 131.879C30.4443 135.286 33.087 138.489 35.9982 141.4C38.9095 144.311 42.1124 146.954 45.5192 149.256C48.9596 151.58 52.6375 153.577 56.4512 155.189C64.3873 158.546 72.8146 160.248 81.4999 160.248C98.0507 160.248 113.776 153.977 125.78 142.591C127.362 141.09 127.428 138.59 125.927 137.008C124.426 135.426 121.926 135.36 120.344 136.861L120.343 136.861Z" fill="#D1D3D4" fill-opacity="0.15"/>
<path d="M35.4564 96.7022C36.2278 97.4736 37.2383 97.859 38.2492 97.859C39.2602 97.859 40.2701 97.4736 41.0415 96.7027C42.5837 95.1605 42.5837 92.6605 41.0415 91.1177L23.8925 73.9666C23.1517 73.2258 22.1475 72.8098 21.1003 72.8098C20.053 72.8098 19.0483 73.2258 18.308 73.9666L1.15693 91.1172C-0.385317 92.6594 -0.385317 95.16 1.15693 96.7022C2.69917 98.2445 5.19972 98.2445 6.74196 96.7022L21.1003 82.3434L35.4564 96.7017V96.7022Z" fill="#D1D3D4" fill-opacity="0.15"/>
</g>
<defs>
<filter id="filter0_i_11_11" x="0" y="0" width="161.31" height="164.248" filterUnits="userSpaceOnUse" color-interpolation-filters="sRGB">
<feFlood flood-opacity="0" result="BackgroundImageFix"/>
<feBlend mode="normal" in="SourceGraphic" in2="BackgroundImageFix" result="shape"/>
<feColorMatrix in="SourceAlpha" type="matrix" values="0 0 0 0 0 0 0 0 0 0 0 0 0 0 0 0 0 0 127 0" result="hardAlpha"/>
<feOffset dy="4"/>
<feGaussianBlur stdDeviation="2"/>
<feComposite in2="hardAlpha" operator="arithmetic" k2="-1" k3="1"/>
<feColorMatrix type="matrix" values="0 0 0 0 0.570434 0 0 0 0 0.602445 0 0 0 0 0.664583 0 0 0 0.25 0"/>
<feBlend mode="normal" in2="shape" result="effect1_innerShadow_11_11"/>
</filter>
<clipPath id="clip0_11_11">
<rect width="161.31" height="160.248" fill="white"/>
</clipPath>
</defs>
</svg>
