<svg width="24" height="25" viewBox="0 0 24 25" fill="none" xmlns="http://www.w3.org/2000/svg">
<g clip-path="url(#clip0_473_160)">
<path opacity="0.2" d="M15.75 9.875C15.75 10.9875 15.4201 12.0751 14.802 13.0001C14.1839 13.9251 13.3054 14.6461 12.2776 15.0718C11.2498 15.4976 10.1188 15.609 9.02762 15.3919C7.93648 15.1749 6.9342 14.6391 6.14753 13.8525C5.36086 13.0658 4.82513 12.0635 4.60809 10.9724C4.39104 9.88124 4.50244 8.75024 4.92818 7.72241C5.35392 6.69457 6.07489 5.81607 6.99992 5.19798C7.92495 4.5799 9.01248 4.25 10.125 4.25C11.6168 4.25 13.0476 4.84263 14.1025 5.89752C15.1574 6.95242 15.75 8.38316 15.75 9.875Z" fill="#00903B"/>
<path d="M13.5 15.2825C14.6757 14.5502 15.5809 13.4549 16.0787 12.1624C16.5765 10.8698 16.6398 9.45028 16.259 8.11855C15.8782 6.78681 15.074 5.61534 13.9681 4.78135C12.8622 3.94736 11.5148 3.49625 10.1296 3.49625C8.74453 3.49625 7.3971 3.94736 6.2912 4.78135C5.18531 5.61534 4.38112 6.78681 4.00031 8.11855C3.6195 9.45028 3.68278 10.8698 4.18058 12.1624C4.67838 13.4549 5.58361 14.5502 6.75933 15.2825C4.82339 15.9162 3.08151 17.1003 1.68089 18.7672C1.55284 18.9195 1.49053 19.1164 1.50767 19.3146C1.52482 19.5129 1.62 19.6962 1.7723 19.8242C1.92459 19.9523 2.12151 20.0146 2.31974 19.9974C2.51797 19.9803 2.70128 19.8851 2.82933 19.7328C4.71089 17.4866 7.30401 16.25 10.125 16.25C12.9459 16.25 15.539 17.4866 17.4253 19.7328C17.5533 19.8851 17.7366 19.9803 17.9348 19.9974C18.1331 20.0146 18.33 19.9523 18.4823 19.8242C18.6346 19.6962 18.7298 19.5129 18.7469 19.3146C18.7641 19.1164 18.7018 18.9195 18.5737 18.7672C17.1731 17.1003 15.4312 15.9162 13.5 15.2825ZM5.24995 9.875C5.24995 8.91081 5.53587 7.96828 6.07154 7.16659C6.60721 6.3649 7.36858 5.74006 8.25937 5.37108C9.15016 5.00211 10.1304 4.90556 11.076 5.09367C12.0217 5.28177 12.8903 5.74607 13.5721 6.42785C14.2539 7.10963 14.7182 7.97827 14.9063 8.92393C15.0944 9.86959 14.9978 10.8498 14.6289 11.7406C14.2599 12.6314 13.635 13.3927 12.8334 13.9284C12.0317 14.4641 11.0891 14.75 10.125 14.75C8.83248 14.7485 7.59337 14.2344 6.67945 13.3205C5.76553 12.4066 5.25144 11.1675 5.24995 9.875ZM23.7806 13.0306L20.7806 16.0306C20.7109 16.1004 20.6282 16.1557 20.5372 16.1934C20.4461 16.2312 20.3485 16.2506 20.25 16.2506C20.1514 16.2506 20.0538 16.2312 19.9627 16.1934C19.8717 16.1557 19.789 16.1004 19.7193 16.0306L18.2193 14.5306C18.0786 14.3899 17.9995 14.199 17.9995 14C17.9995 13.801 18.0786 13.6101 18.2193 13.4694C18.3601 13.3286 18.5509 13.2496 18.75 13.2496C18.949 13.2496 19.1398 13.3286 19.2806 13.4694L20.25 14.4397L22.7193 11.9694C22.8601 11.8286 23.0509 11.7496 23.25 11.7496C23.449 11.7496 23.6398 11.8286 23.7806 11.9694C23.9213 12.1101 24.0004 12.301 24.0004 12.5C24.0004 12.699 23.9213 12.8899 23.7806 13.0306Z" fill="#00903B"/>
</g>
<defs>
<clipPath id="clip0_473_160">
<rect width="24" height="24" fill="white" transform="translate(0 0.5)"/>
</clipPath>
</defs>
</svg>
