<svg width="25" height="26" viewBox="0 0 25 26" fill="none" xmlns="http://www.w3.org/2000/svg">
<circle cx="12.5" cy="13" r="12.5" fill="#B0DDC2"/>
<path d="M13.2108 1.49074C13.2108 1.41106 13.2429 1.34542 13.2862 1.30322C13.3269 1.26351 13.3741 1.24626 13.4279 1.2507C15.4109 1.41445 17.3256 2.07977 18.9888 3.19108C20.9211 4.48219 22.4271 6.31728 23.3164 8.46431C24.2058 10.6113 24.4384 12.9739 23.9851 15.2532C23.5317 17.5324 22.4126 19.6261 20.7694 21.2693C19.1261 22.9126 17.0324 24.0317 14.7532 24.4851C12.4739 24.9384 10.1114 24.7058 7.96433 23.8164C5.8173 22.9271 3.9822 21.4211 2.69109 19.4888C1.57978 17.8256 0.914454 15.9109 0.750704 13.9279C0.746263 13.8741 0.763508 13.8269 0.803217 13.7862C0.845417 13.7429 0.911062 13.7109 0.990741 13.7109C1.12875 13.7109 1.30237 13.834 1.32503 14.063C1.50554 15.8869 2.13204 17.6446 3.15653 19.1778C4.38613 21.018 6.13381 22.4523 8.17855 23.2993C10.2233 24.1462 12.4733 24.3678 14.644 23.936C16.8146 23.5043 18.8086 22.4385 20.3735 20.8735C21.9385 19.3085 23.0043 17.3146 23.436 15.1439C23.8678 12.9733 23.6462 10.7233 22.7993 8.67853C21.9523 6.63379 20.518 4.88612 18.6778 3.65652C17.1445 2.63203 15.3868 2.00554 13.563 1.82503C13.334 1.80237 13.2108 1.62875 13.2108 1.49074Z" stroke="#00903B" stroke-width="1.5"/>
</svg>
