<svg width="230" height="230" viewBox="0 0 230 230" fill="none" xmlns="http://www.w3.org/2000/svg">
<rect width="230" height="230" fill="white"/>
<path d="M133.079 151.427L41.4548 179.573L4 156.934C4 156.934 70.5496 138.629 77.8517 136.41C85.1538 134.191 90.1233 127.947 90.9696 125.831C90.9696 125.831 97.6525 134.372 108.954 139.796C120.89 145.524 133.079 151.433 133.079 151.433V151.427Z" fill="#F2F8EF" stroke="#598541" stroke-width="5.16048" stroke-linecap="round" stroke-linejoin="round"/>
<path d="M133.079 142.696L41.4548 170.841L4 148.197C4 148.197 70.5496 129.893 77.8517 127.674C85.1538 125.455 90.1233 119.21 90.9696 117.095C90.9696 117.095 97.6525 125.635 108.954 131.059C120.89 136.787 133.079 142.696 133.079 142.696Z" fill="#F2F8EF" stroke="#598541" stroke-width="5.16048" stroke-linecap="round" stroke-linejoin="round"/>
<path d="M133.079 133.959L41.4548 162.104L4 139.46C4 139.46 70.5496 121.156 77.8517 118.937C85.1538 116.718 90.1233 110.474 90.9696 108.358C90.9696 108.358 97.6525 116.899 108.954 122.322C120.89 128.05 133.079 133.959 133.079 133.959Z" fill="#F2F8EF" stroke="#598541" stroke-width="5.16048" stroke-linecap="round" stroke-linejoin="round"/>
<path d="M133.079 125.223L41.4548 153.368L4 130.724C4 130.724 70.5496 112.419 77.8517 110.2C85.1538 107.981 90.1233 101.737 90.9696 99.6213C90.9696 99.6213 97.6525 108.162 108.954 113.586C120.89 119.314 133.079 125.223 133.079 125.223Z" fill="#F2F8EF" stroke="#598541" stroke-width="5.16048" stroke-linecap="round" stroke-linejoin="round"/>
<path d="M133.079 116.486L41.4548 144.631L4 121.987C4 121.987 70.5496 103.683 77.8517 101.464C85.1538 99.2446 90.1233 93.0004 90.9696 90.8846C90.9696 90.8846 97.6525 99.4252 108.954 104.849C120.89 110.577 133.079 116.486 133.079 116.486Z" fill="#C3E0B4" stroke="#598541" stroke-width="5.16048" stroke-linecap="round" stroke-linejoin="round"/>
<path d="M185.752 60.8712C178.016 56.7066 175.467 53.1098 175.467 46.3444V29H143.482V46.3444C143.482 53.1098 140.933 56.7066 133.198 60.8712C118.237 68.9267 117.375 75.0212 117.375 83.5308V159.369C117.375 167.879 124.275 174.779 132.785 174.779H186.16C194.669 174.779 201.569 167.879 201.569 159.369V83.536C201.569 75.0264 200.707 68.9318 185.747 60.8763L185.752 60.8712Z" fill="#F2F8EF" stroke="#598541" stroke-width="5.16048" stroke-linecap="round" stroke-linejoin="round"/>
<path d="M204.247 85.9717H114.697V99.6573H204.247V85.9717Z" fill="#C3E0B4" stroke="#598541" stroke-width="5.16048" stroke-linecap="round" stroke-linejoin="round"/>
<path d="M204.247 116.321H114.697V130.006H204.247V116.321Z" fill="#C3E0B4" stroke="#598541" stroke-width="5.16048" stroke-linecap="round" stroke-linejoin="round"/>
<path d="M204.247 146.664H114.697V160.35H204.247V146.664Z" fill="#C3E0B4" stroke="#598541" stroke-width="5.16048" stroke-linecap="round" stroke-linejoin="round"/>
<path d="M141.439 45.6581H177.511" stroke="#598541" stroke-width="5.16048" stroke-linecap="round" stroke-linejoin="round"/>
<path d="M175.467 29H143.482V45.658H175.467V29Z" fill="#F2F8EF" stroke="#598541" stroke-width="5.16048" stroke-linecap="round" stroke-linejoin="round"/>
<path d="M178.986 29H139.968C139.7 29 139.482 29.2172 139.482 29.4851V29.4902C139.482 29.7582 139.7 29.9753 139.968 29.9753H178.986C179.254 29.9753 179.471 29.7582 179.471 29.4902V29.4851C179.471 29.2172 179.254 29 178.986 29Z" fill="#F2F8EF" stroke="#598541" stroke-width="5.16048" stroke-linecap="round" stroke-linejoin="round"/>
<path d="M220.586 123.133C220.586 129.263 210.812 134.233 198.746 134.233C186.681 134.233 177.052 129.341 176.907 123.272C176.907 123.225 176.907 123.184 176.907 123.138C176.907 117.007 186.686 112.032 198.746 112.032C210.806 112.032 220.586 117.007 220.586 123.138V123.133Z" fill="#F2F8EF" stroke="#598541" stroke-width="5.16048" stroke-linecap="round" stroke-linejoin="round"/>
<path d="M198.746 126.466C200.59 126.466 202.084 124.972 202.084 123.128C202.084 121.284 200.59 119.789 198.746 119.789C196.902 119.789 195.407 121.284 195.407 123.128C195.407 124.972 196.902 126.466 198.746 126.466Z" fill="#598541"/>
<path d="M226.236 137.85V198.109C226.236 200.111 224.389 201.727 222.108 201.727H198.746C186.965 201.727 177.361 196.984 176.923 191.05C176.912 190.91 176.902 190.766 176.902 190.627V123.272C177.046 129.341 186.769 134.233 198.741 134.233V134.351L220.58 134.243L222.082 134.233C224.373 134.222 226.231 135.843 226.231 137.85H226.236Z" fill="#C3E0B4" stroke="#598541" stroke-width="5.16048" stroke-linecap="round" stroke-linejoin="round"/>
<path d="M220.585 123.132V134.238L198.746 134.346V134.228C210.811 134.228 220.585 129.258 220.585 123.127V123.132Z" fill="#C3E0B4" stroke="#598541" stroke-width="5.16048" stroke-linecap="round" stroke-linejoin="round"/>
</svg>
