<svg width="138" height="162" viewBox="0 0 138 162" fill="none" xmlns="http://www.w3.org/2000/svg">
<g clip-path="url(#clip0_11_21)" filter="url(#filter0_i_11_21)">
<path d="M100.445 78.8363C98.7099 82.0065 96.449 84.6637 93.7261 86.7341C90.2669 89.3639 85.9949 91.0594 81.3718 91.6366C80.0388 91.8033 78.8482 91.8555 77.8752 91.8555C76.3471 91.8555 75.3546 91.7256 75.1879 91.7019C72.7544 91.359 71.0601 89.1082 71.403 86.6754C71.7459 84.2425 73.996 82.5476 76.4295 82.8905C76.4942 82.8994 83.0299 83.6866 88.34 79.6502C92.2002 76.7154 94.6029 71.8378 95.4815 65.1531C96.6946 55.9235 94.082 43.0608 87.9265 27.9545C85.2053 21.277 82.3317 15.5047 80.3544 11.759C77.5359 14.021 74.8355 16.1638 72.195 18.2592C62.1959 26.1932 54.2986 32.4602 48.5614 38.411C42.8152 44.3719 39.8775 49.386 39.0363 54.6706C38.1986 59.9302 39.8591 65.3922 43.9727 70.904C47.2776 75.3326 51.0299 78.0757 51.0026 78.1125C51.0026 78.1125 51.002 78.1125 51.0014 78.1125C55.5616 81.9306 50.1204 88.515 45.7346 85.2842C45.5477 85.1466 41.1008 81.8612 37.0092 76.4502C34.5555 73.2052 32.7094 69.8392 31.5229 66.447C29.9846 62.0493 29.5557 57.616 30.248 53.2711C30.8537 49.4684 32.1903 45.8508 34.3343 42.2119C36.235 38.9858 38.7931 35.7224 42.1544 32.2353C48.3021 25.8574 56.4046 19.4284 66.663 11.2886C70.5493 8.20491 74.5679 5.01564 78.8838 1.50958C79.8887 0.692687 81.1998 0.355132 82.4746 0.58353C83.7495 0.811928 84.8613 1.58492 85.5198 2.70022C85.7452 3.08167 91.0986 12.1879 96.1174 24.4769C99.0854 31.7441 101.315 38.6204 102.745 44.9141C104.582 53 105.107 60.1996 104.304 66.3129C103.675 71.0915 102.377 75.3047 100.444 78.8363H100.445Z" fill="#D1D3D4" fill-opacity="0.15"/>
<path d="M66.8237 38.853C67.5943 36.5204 70.1102 35.2538 72.4428 36.0239C74.7761 36.7939 76.0432 39.3098 75.2732 41.643C75.2477 41.7202 72.6985 49.4922 70.1856 60.8243C67.882 71.2138 65.1359 86.8143 65.1359 102.139C65.1359 104.596 63.1438 106.588 60.6866 106.588C58.2294 106.588 56.2373 104.596 56.2373 102.139C56.2373 94.979 56.7955 87.1933 57.896 78.9983C58.7722 72.4744 59.9931 65.6723 61.5242 58.7812C64.1333 47.041 66.7151 39.1811 66.8237 38.8524V38.853Z" fill="#D1D3D4" fill-opacity="0.15"/>
<path d="M3.39183 116.913C6.88187 112.614 13.0534 111.587 17.7471 114.525L37.5293 126.906C39.0474 122.537 43.2055 119.393 48.0843 119.393H82.1844C82.9628 119.183 86.8995 117.875 97.8175 110.858C101.672 108.381 106.004 106.777 110.695 106.092C114.371 105.554 118.262 105.58 122.263 106.169C129.002 107.162 133.818 109.441 134.02 109.538C135.988 110.382 138.109 112.73 136.943 115.638C135.972 118.058 132.748 118.804 130.19 117.57C130.15 117.552 126.185 115.703 120.714 114.937C113.749 113.961 107.665 115.108 102.629 118.344C96.4009 122.347 91.3814 125.193 87.7099 126.802C84.6897 128.126 83.2849 128.302 82.4917 128.292L48.0849 128.292C46.832 128.292 45.8134 129.312 45.8134 130.564C45.8134 131.816 46.8326 132.835 48.0849 132.835L82.5309 132.835C84.9881 132.835 86.9802 134.828 86.9802 137.285C86.9802 139.742 84.9881 141.734 82.5309 141.734L48.0849 141.734C45.267 141.734 42.6899 140.685 40.7228 138.957C40.1295 138.871 39.544 138.664 39.0035 138.326L13.0273 122.069C12.1362 121.511 10.964 121.706 10.3013 122.522C9.78163 123.163 9.80537 123.843 9.86529 124.193C9.9258 124.541 10.1322 125.191 10.837 125.619L45.3002 146.565C54.0132 151.86 64.3664 153.954 74.4527 152.46L131.447 144.016C133.878 143.656 136.14 145.334 136.5 147.766C136.861 150.196 135.182 152.459 132.751 152.819L75.7566 161.262C73.1867 161.643 70.6067 161.833 68.0291 161.833C64.5361 161.833 61.0472 161.484 57.5969 160.786C51.5998 159.573 45.9077 157.347 40.6789 154.169L6.21566 133.223C3.50395 131.575 1.63821 128.837 1.09717 125.711C0.556135 122.584 1.3926 119.378 3.39242 116.914L3.39183 116.913Z" fill="#D1D3D4" fill-opacity="0.15"/>
</g>
<defs>
<filter id="filter0_i_11_21" x="0.935791" y="0.51355" width="136.34" height="165.319" filterUnits="userSpaceOnUse" color-interpolation-filters="sRGB">
<feFlood flood-opacity="0" result="BackgroundImageFix"/>
<feBlend mode="normal" in="SourceGraphic" in2="BackgroundImageFix" result="shape"/>
<feColorMatrix in="SourceAlpha" type="matrix" values="0 0 0 0 0 0 0 0 0 0 0 0 0 0 0 0 0 0 127 0" result="hardAlpha"/>
<feOffset dy="4"/>
<feGaussianBlur stdDeviation="2"/>
<feComposite in2="hardAlpha" operator="arithmetic" k2="-1" k3="1"/>
<feColorMatrix type="matrix" values="0 0 0 0 0.570434 0 0 0 0 0.602445 0 0 0 0 0.664583 0 0 0 0.25 0"/>
<feBlend mode="normal" in2="shape" result="effect1_innerShadow_11_21"/>
</filter>
<clipPath id="clip0_11_21">
<rect width="136.34" height="161.319" fill="white" transform="matrix(-1 0 0 1 137.276 0.51355)"/>
</clipPath>
</defs>
</svg>
