<svg width="24" height="25" viewBox="0 0 24 25" fill="none" xmlns="http://www.w3.org/2000/svg">
<path opacity="0.2" d="M15.75 9.875C15.75 10.9875 15.4201 12.0751 14.802 13.0001C14.1839 13.9251 13.3054 14.6461 12.2776 15.0718C11.2498 15.4976 10.1188 15.609 9.02762 15.3919C7.93648 15.1749 6.9342 14.6391 6.14753 13.8525C5.36086 13.0658 4.82513 12.0635 4.60809 10.9724C4.39104 9.88124 4.50244 8.75024 4.92818 7.72241C5.35392 6.69457 6.07489 5.81607 6.99992 5.19798C7.92495 4.5799 9.01248 4.25 10.125 4.25C11.6168 4.25 13.0476 4.84263 14.1025 5.89752C15.1574 6.95242 15.75 8.38316 15.75 9.875Z" fill="#EE3725"/>
<path d="M18.5747 18.7672C18.7027 18.9196 18.765 19.1166 18.7478 19.315C18.7305 19.5133 18.6352 19.6966 18.4828 19.8247C18.3304 19.9527 18.1334 20.015 17.935 19.9978C17.7367 19.9805 17.5534 19.8852 17.4253 19.7328C15.5391 17.4866 12.9459 16.25 10.125 16.25C7.30406 16.25 4.71094 17.4866 2.82469 19.7328C2.69664 19.8851 2.51334 19.9803 2.3151 19.9974C2.11687 20.0146 1.91995 19.9523 1.76766 19.8242C1.61536 19.6962 1.52018 19.5129 1.50304 19.3146C1.48589 19.1164 1.5482 18.9195 1.67625 18.7672C3.07688 17.1003 4.81875 15.9162 6.75469 15.2825C5.57897 14.5502 4.67374 13.4549 4.17594 12.1624C3.67814 10.8698 3.61486 9.45028 3.99567 8.11855C4.37649 6.78681 5.18067 5.61534 6.28657 4.78135C7.39246 3.94736 8.73989 3.49625 10.125 3.49625C11.5101 3.49625 12.8575 3.94736 13.9634 4.78135C15.0693 5.61534 15.8735 6.78681 16.2543 8.11855C16.6351 9.45028 16.5719 10.8698 16.0741 12.1624C15.5763 13.4549 14.671 14.5502 13.4953 15.2825C15.4313 15.9162 17.1731 17.1003 18.5747 18.7672ZM10.125 14.75C11.0892 14.75 12.0317 14.4641 12.8334 13.9284C13.6351 13.3927 14.2599 12.6314 14.6289 11.7406C14.9979 10.8498 15.0944 9.86959 14.9063 8.92393C14.7182 7.97827 14.2539 7.10963 13.5721 6.42785C12.8904 5.74607 12.0217 5.28177 11.0761 5.09367C10.1304 4.90556 9.15021 5.00211 8.25942 5.37108C7.36863 5.74006 6.60726 6.3649 6.07159 7.16659C5.53591 7.96828 5.25 8.91081 5.25 9.875C5.25149 11.1675 5.76558 12.4066 6.6795 13.3205C7.59342 14.2344 8.83253 14.7485 10.125 14.75Z" fill="#EE3725"/>
<path d="M23.3411 11.659C23.3411 11.4601 23.2621 11.2693 23.1215 11.1287C22.9808 10.988 22.7901 10.909 22.5911 10.909C22.3922 10.909 22.2015 10.988 22.0608 11.1287L21.0001 12.1893L19.9395 11.1287C19.7988 10.988 19.6081 10.909 19.4092 10.909C19.2102 10.909 19.0195 10.988 18.8788 11.1287C18.7382 11.2693 18.6592 11.4601 18.6592 11.659C18.6592 11.8579 18.7382 12.0487 18.8788 12.1893L19.9395 13.25L18.8788 14.3107C18.7382 14.4513 18.6592 14.6421 18.6592 14.841C18.6592 15.0399 18.7382 15.2307 18.8788 15.3713C19.0195 15.512 19.2102 15.591 19.4092 15.591C19.6081 15.591 19.7988 15.512 19.9395 15.3713L21.0001 14.3107L22.0608 15.3713C22.2015 15.512 22.3922 15.591 22.5911 15.591C22.7901 15.591 22.9808 15.512 23.1215 15.3713C23.2621 15.2307 23.3411 15.0399 23.3411 14.841C23.3411 14.6421 23.2621 14.4513 23.1215 14.3107L22.0608 13.25L23.1215 12.1893C23.2621 12.0487 23.3411 11.8579 23.3411 11.659Z" fill="#EE3725"/>
</svg>
