<svg width="230" height="230" viewBox="0 0 230 230" fill="none" xmlns="http://www.w3.org/2000/svg">
<rect width="230" height="230" fill="white"/>
<path d="M68.7861 73.7939H161.657V132.668C161.657 145.66 151.111 156.199 138.126 156.199H92.3235C79.332 156.199 68.7923 145.654 68.7923 132.668V73.7939H68.7861Z" fill="#C3E0B4" stroke="#598541" stroke-width="6.2071" stroke-linecap="round" stroke-linejoin="round"/>
<path d="M175.443 73.7939H55" stroke="#598541" stroke-width="6.2071" stroke-linecap="round" stroke-linejoin="round"/>
<path d="M115.221 141.725C129.983 141.725 141.949 129.758 141.949 114.997C141.949 100.235 129.983 88.269 115.221 88.269C100.46 88.269 88.4937 100.235 88.4937 114.997C88.4937 129.758 100.46 141.725 115.221 141.725Z" fill="#F2F8EF" stroke="#598541" stroke-width="6.2071" stroke-linecap="round" stroke-linejoin="round"/>
<path d="M113.012 98.461L106.761 115.127H123.688L116.916 131.532" stroke="#598541" stroke-width="6.2071" stroke-linecap="round" stroke-linejoin="round"/>
<path d="M140.105 43.9999V73.794" stroke="#598541" stroke-width="6.2071" stroke-linecap="round" stroke-linejoin="round"/>
<path d="M89.7041 43.9999V73.794" stroke="#598541" stroke-width="6.2071" stroke-linecap="round" stroke-linejoin="round"/>
<path d="M108.629 156.206H121.311V178.893C121.311 182.393 118.468 185.23 114.973 185.23C111.472 185.23 108.636 182.387 108.636 178.893V156.206H108.629Z" fill="#598541"/>
</svg>
