<svg width="230" height="230" viewBox="0 0 230 230" fill="none" xmlns="http://www.w3.org/2000/svg">
<rect width="230" height="230" fill="white"/>
<path d="M23.5625 210.748H47.4412" stroke="#598541" stroke-width="6.2071" stroke-linecap="round" stroke-linejoin="round"/>
<path d="M190.217 139.236V190.581H78.9668V109.125L117.954 139.236V109.125L151.571 135.09L156.94 139.236H190.217Z" fill="#F2F8EF" stroke="#598541" stroke-width="6.2071" stroke-linecap="round" stroke-linejoin="round"/>
<path d="M190.217 139.236H156.94L151.571 135.089L161.695 70.455H179.441L190.217 139.236Z" fill="#C3E0B4" stroke="#598541" stroke-width="6.2071" stroke-linecap="round" stroke-linejoin="round"/>
<path d="M104.168 165.542H121.759" stroke="#598541" stroke-width="6.2071" stroke-linecap="round" stroke-linejoin="round"/>
<path d="M147.432 165.542H165.023" stroke="#598541" stroke-width="6.2071" stroke-linecap="round" stroke-linejoin="round"/>
<path d="M67.5586 190.581H199.733" stroke="#598541" stroke-width="6.2071" stroke-linecap="round" stroke-linejoin="round"/>
<path d="M31.1226 179.644H40.8429V210.729C40.8429 213.082 38.9311 214.993 36.5786 214.993H35.393C33.0406 214.993 31.1288 213.082 31.1288 210.729V179.644H31.1226Z" fill="#C3E0B4" stroke="#598541" stroke-width="6.2071" stroke-linecap="round" stroke-linejoin="round"/>
<path d="M61.9596 171.109C61.9596 167.608 59.6382 164.579 56.2801 163.158C56.2926 162.947 56.305 162.73 56.305 162.512C56.305 158.105 53.4373 154.369 49.4523 153.04C47.6523 149.571 43.6425 147.162 38.9747 147.162C34.636 147.162 30.8621 149.254 28.9068 152.333C28.6151 152.314 28.3234 152.302 28.0254 152.302C21.6818 152.302 16.5361 156.771 16.5361 162.289C16.5361 162.99 16.6168 163.667 16.7782 164.325C12.8056 165.641 10 168.8 10 172.493C10 177.006 14.1774 180.718 19.5651 181.252C20.7072 183.635 23.0846 185.516 26.064 186.372C28.342 188.005 31.2904 188.992 34.518 188.992C37.7457 188.992 40.6817 188.011 42.9535 186.391C43.9901 186.714 45.1074 186.888 46.2743 186.888C51.42 186.888 55.6594 183.48 56.2367 179.085C59.6258 177.67 61.9658 174.635 61.9658 171.115L61.9596 171.109Z" fill="#F2F8EF" stroke="#598541" stroke-width="6.2071" stroke-linecap="round" stroke-linejoin="round"/>
<path d="M201.551 16C191.57 16 183.482 21.1457 183.482 27.4893C183.482 28.3832 183.65 29.2522 183.954 30.0839C183.283 29.997 182.601 29.9411 181.899 29.9411C175.245 29.9411 169.857 33.9882 169.857 38.9725C169.857 39.9594 170.075 40.9029 170.466 41.7905C166.524 42.4485 163.52 45.8624 163.52 49.9901C163.52 54.5833 167.244 58.3076 171.838 58.3076C176.431 58.3076 180.155 54.5833 180.155 49.9901C180.155 49.2576 180.05 48.55 179.87 47.8735C180.527 47.9604 181.204 48.01 181.893 48.01C188.547 48.01 193.935 43.963 193.935 38.9787C193.935 38.6063 193.898 38.24 193.836 37.88C196.176 38.5814 198.783 38.9787 201.539 38.9787C211.52 38.9787 219.607 33.833 219.607 27.4893C219.607 21.1457 211.52 16 201.539 16H201.551Z" fill="#C3E0B4" stroke="#598541" stroke-width="6.2071" stroke-linecap="round" stroke-linejoin="round"/>
</svg>
