<svg width="60" height="60" viewBox="0 0 60 60" fill="none" xmlns="http://www.w3.org/2000/svg">
<path d="M30 44.0274C30.6013 44.4278 31.2276 44.7895 31.875 45.1102V54.375C31.875 54.8723 31.6775 55.3492 31.3258 55.7008C30.9742 56.0525 30.4973 56.25 30 56.25C29.5027 56.25 29.0258 56.0525 28.6742 55.7008C28.3225 55.3492 28.125 54.8723 28.125 54.375V45.1102C28.7724 44.7895 29.3987 44.4278 30 44.0274ZM46.4297 14.6695C45.0733 11.4311 42.7901 8.66565 39.867 6.72075C36.9438 4.77585 33.5111 3.73822 30 3.73822C26.4889 3.73822 23.0562 4.77585 20.133 6.72075C17.2099 8.66565 14.9267 11.4311 13.5703 14.6695C10.6411 16.0084 8.15826 18.1607 6.41727 20.8702C4.67628 23.5798 3.75046 26.7325 3.74999 29.9531C3.72656 38.9063 11.25 46.6406 20.1891 46.875C22.9385 46.9402 25.6623 46.3344 28.125 45.1102V36.7828L17.9109 31.6781C17.4659 31.4556 17.1274 31.0654 16.9701 30.5933C16.8127 30.1213 16.8493 29.606 17.0719 29.161C17.2944 28.7159 17.6846 28.3775 18.1567 28.2201C18.6288 28.0627 19.144 28.0994 19.5891 28.3219L28.125 32.5922V20.625C28.125 20.1277 28.3225 19.6508 28.6742 19.2992C29.0258 18.9476 29.5027 18.75 30 18.75C30.4973 18.75 30.9742 18.9476 31.3258 19.2992C31.6775 19.6508 31.875 20.1277 31.875 20.625V26.9672L40.4109 22.6969C40.6313 22.5867 40.8712 22.521 41.117 22.5035C41.3628 22.4861 41.6096 22.5172 41.8433 22.5951C42.077 22.673 42.2931 22.7962 42.4793 22.9576C42.6654 23.1191 42.8179 23.3156 42.9281 23.536C43.0383 23.7563 43.104 23.9962 43.1215 24.242C43.1389 24.4878 43.1078 24.7346 43.0299 24.9683C42.952 25.2021 42.8288 25.4182 42.6674 25.6043C42.5059 25.7904 42.3094 25.943 42.0891 26.0531L31.875 31.1578V45.1102C34.2059 46.2676 36.7725 46.8715 39.375 46.875H39.8016C48.75 46.6406 56.2758 38.9063 56.25 29.9531C56.2495 26.7325 55.3237 23.5798 53.5827 20.8702C51.8417 18.1607 49.3589 16.0084 46.4297 14.6695Z" fill="url(#paint0_linear_299_144)"/>
<defs>
<linearGradient id="paint0_linear_299_144" x1="3.74994" y1="29.9941" x2="56.2501" y2="29.9941" gradientUnits="userSpaceOnUse">
<stop stop-color="#00903B"/>
<stop offset="1" stop-color="#7DBB5C"/>
</linearGradient>
</defs>
</svg>
