<svg width="230" height="230" viewBox="0 0 230 230" fill="none" xmlns="http://www.w3.org/2000/svg">
<rect width="230" height="230" fill="white"/>
<path d="M177.564 146.514L115.282 179.871V117.589L177.564 84.2322V146.514Z" fill="#F2F8EF" stroke="#598541" stroke-width="6.2071" stroke-linecap="round" stroke-linejoin="round"/>
<path d="M53 146.514L115.282 179.871V117.589L53 84.2322V146.514Z" fill="#C3E0B4" stroke="#598541" stroke-width="6.2071" stroke-linecap="round" stroke-linejoin="round"/>
<path d="M53 84.2322L115.282 117.589L177.564 84.2322L115.282 50L53 84.2322Z" fill="#F2F8EF" stroke="#598541" stroke-width="6.2071" stroke-linecap="round" stroke-linejoin="round"/>
<path d="M86.7417 66.2191L148.161 99.9795V134.497" stroke="#598541" stroke-width="6.2071" stroke-linecap="round" stroke-linejoin="round"/>
<path d="M67.9092 164.8H67.9154C71.0213 164.8 73.5391 162.283 73.5391 159.177V150.878C73.5391 147.772 71.0213 145.254 67.9154 145.254H67.9092C64.8034 145.254 62.2856 147.772 62.2856 150.878V159.177C62.2856 162.283 64.8034 164.8 67.9092 164.8Z" fill="#C3E0B4" stroke="#598541" stroke-width="6.2071" stroke-linecap="round" stroke-linejoin="round"/>
<path d="M76.2205 171.982C79.3302 171.982 86.0897 164.235 86.0897 164.235L81.8503 161.964V146.93C81.8503 143.82 79.3302 141.306 76.2267 141.306C73.1169 141.306 70.603 143.826 70.603 146.93V166.352C70.603 169.462 73.1231 171.976 76.2267 171.976L76.2205 171.982Z" fill="#C3E0B4" stroke="#598541" stroke-width="6.2071" stroke-linecap="round" stroke-linejoin="round"/>
<path d="M85.1091 176.743C88.2189 176.743 94.9784 168.996 94.9784 168.996L90.739 166.725V151.691C90.739 148.581 88.2189 146.067 85.1153 146.067C82.0056 146.067 79.4917 148.587 79.4917 151.691V171.113C79.4917 174.223 82.0118 176.737 85.1153 176.737L85.1091 176.743Z" fill="#C3E0B4" stroke="#598541" stroke-width="6.2071" stroke-linecap="round" stroke-linejoin="round"/>
<path d="M92.7999 180.442C94.6124 180.442 104.947 174.316 104.947 174.316C104.01 173.813 98.9325 171.094 98.4235 170.846V157.606C98.4235 154.496 95.9035 151.983 92.7999 151.983C89.6901 151.983 87.1763 154.503 87.1763 157.606V174.825C87.1763 177.934 89.6964 180.448 92.7999 180.448V180.442Z" fill="#C3E0B4" stroke="#598541" stroke-width="6.2071" stroke-linecap="round" stroke-linejoin="round"/>
<path d="M162.655 145.26H162.649C159.543 145.26 157.025 147.778 157.025 150.884V159.183C157.025 162.289 159.543 164.806 162.649 164.806H162.655C165.761 164.806 168.278 162.289 168.278 159.183V150.884C168.278 147.778 165.761 145.26 162.655 145.26Z" fill="#C3E0B4" stroke="#598541" stroke-width="6.2071" stroke-linecap="round" stroke-linejoin="round"/>
<path d="M154.343 171.982C151.234 171.982 144.474 164.235 144.474 164.235L148.714 161.964V146.93C148.714 143.82 151.234 141.306 154.337 141.306C157.447 141.306 159.961 143.826 159.961 146.93V166.352C159.961 169.462 157.441 171.976 154.337 171.976L154.343 171.982Z" fill="#C3E0B4" stroke="#598541" stroke-width="6.2071" stroke-linecap="round" stroke-linejoin="round"/>
<path d="M145.455 176.743C142.345 176.743 135.585 168.996 135.585 168.996L139.825 166.725V151.691C139.825 148.581 142.345 146.067 145.449 146.067C148.558 146.067 151.072 148.587 151.072 151.691V171.113C151.072 174.223 148.552 176.737 145.449 176.737L145.455 176.743Z" fill="#C3E0B4" stroke="#598541" stroke-width="6.2071" stroke-linecap="round" stroke-linejoin="round"/>
<path d="M137.764 180.442C135.952 180.442 125.617 174.316 125.617 174.316C126.554 173.813 131.631 171.094 132.14 170.846V157.606C132.14 154.496 134.66 151.983 137.764 151.983C140.874 151.983 143.388 154.503 143.388 157.606V174.825C143.388 177.934 140.868 180.448 137.764 180.448V180.442Z" fill="#C3E0B4" stroke="#598541" stroke-width="6.2071" stroke-linecap="round" stroke-linejoin="round"/>
</svg>
