<svg width="19" height="18" viewBox="0 0 19 18" fill="none" xmlns="http://www.w3.org/2000/svg">
<path d="M9.1543 8.5V1C9.1543 0.850816 9.21356 0.707742 9.31905 0.602252C9.42454 0.496763 9.56761 0.4375 9.7168 0.4375C9.86598 0.4375 10.0091 0.496763 10.1145 0.602252C10.22 0.707742 10.2793 0.850816 10.2793 1V8.5C10.2793 8.64918 10.22 8.79226 10.1145 8.89775C10.0091 9.00324 9.86598 9.0625 9.7168 9.0625C9.56761 9.0625 9.42454 9.00324 9.31905 8.89775C9.21356 8.79226 9.1543 8.64918 9.1543 8.5ZM14.5243 1.28125C14.4003 1.21373 14.2554 1.19532 14.1184 1.22969C13.9815 1.26405 13.8624 1.34867 13.785 1.46674C13.7075 1.58481 13.6773 1.72769 13.7004 1.86701C13.7234 2.00632 13.798 2.13188 13.9093 2.21875C16.1302 3.66906 17.4043 5.9575 17.4043 8.5C17.4043 10.5389 16.5944 12.4942 15.1527 13.9359C13.711 15.3776 11.7556 16.1875 9.7168 16.1875C7.67795 16.1875 5.7226 15.3776 4.28091 13.9359C2.83923 12.4942 2.0293 10.5389 2.0293 8.5C2.0293 5.9575 3.30336 3.66906 5.5243 2.21875C5.63562 2.13188 5.71021 2.00632 5.73324 1.86701C5.75626 1.72769 5.72605 1.58481 5.6486 1.46674C5.57114 1.34867 5.45212 1.26405 5.31515 1.22969C5.17819 1.19532 5.03331 1.21373 4.9093 1.28125C2.36398 2.93875 0.904297 5.57031 0.904297 8.5C0.904297 10.8372 1.83275 13.0787 3.48542 14.7314C5.13808 16.384 7.37958 17.3125 9.7168 17.3125C12.054 17.3125 14.2955 16.384 15.9482 14.7314C17.6008 13.0787 18.5293 10.8372 18.5293 8.5C18.5293 5.57031 17.0696 2.93875 14.5243 1.28125Z" fill="#474848"/>
</svg>
