<svg width="33" height="33" viewBox="0 0 33 33" fill="none" xmlns="http://www.w3.org/2000/svg">
<path fill-rule="evenodd" clip-rule="evenodd" d="M29.5051 11.2853L24.5051 11.3053C24.3351 11.3053 24.1651 11.2553 24.0351 11.1553C23.8951 11.0553 23.7951 10.9153 23.7351 10.7553L22.5251 7.13531L19.2951 17.7553C19.2451 17.9153 19.1451 18.0653 19.0051 18.1653C18.8651 18.2653 18.7051 18.3253 18.5251 18.3253H18.5151C18.3451 18.3253 18.1751 18.2653 18.0351 18.1653C17.9051 18.0553 17.8051 17.9153 17.7551 17.7453L15.8951 11.3353H12.5051C12.0551 11.3453 11.6951 10.9853 11.6951 10.5453C11.6951 10.1053 12.0551 9.73531 12.4951 9.73531H16.4951C16.6751 9.73531 16.8451 9.77531 16.9851 9.88531C17.1251 9.98531 17.2251 10.1353 17.2751 10.3053L18.5451 14.6853L21.7051 4.27531C21.7651 4.10531 21.8651 3.96531 22.0051 3.86531C22.1351 3.75531 22.3051 3.70531 22.4751 3.69531H4.49507C4.01507 3.69531 3.56507 3.88531 3.22507 4.22531C2.88507 4.55531 2.69507 5.01531 2.69507 5.49531V21.4953C2.69507 21.7353 2.74507 21.9753 2.83507 22.1853C2.92507 22.4053 3.05507 22.6053 3.22507 22.7753C3.56507 23.1153 4.01507 23.3053 4.49507 23.3053H12.6951V27.6953H9.49507C9.16507 27.6953 8.87507 27.8953 8.75507 28.1853C8.71507 28.2853 8.69507 28.3853 8.69507 28.4953C8.69507 28.6053 8.71507 28.7153 8.75507 28.8153C8.87507 29.1053 9.16507 29.3053 9.49507 29.3053H23.4951C23.8351 29.3053 24.1151 29.1053 24.2451 28.8153C24.2851 28.7153 24.3051 28.6053 24.3051 28.4953C24.3051 28.3853 24.2851 28.2853 24.2451 28.1853C24.1151 27.8953 23.8351 27.6953 23.4951 27.6953H20.3051V23.3053H28.4951C28.9751 23.3053 29.4351 23.1153 29.7751 22.7753C30.0251 22.5253 30.1951 22.1953 30.2651 21.8553C30.2951 21.7353 30.3051 21.6153 30.3051 21.4953V10.4753C30.3051 10.9253 29.9451 11.2853 29.5051 11.2853ZM18.6951 27.6953H14.3051V23.3053H18.6951M29.7751 4.22531C29.4351 3.88531 28.9751 3.69531 28.4951 3.69531H22.4951C22.6551 3.69531 22.8151 3.74531 22.9451 3.84531C23.0751 3.94531 23.1851 4.08531 23.2351 4.24531L25.0651 9.69531L29.4851 9.67531C29.9351 9.67531 30.2951 10.0353 30.2951 10.4753H30.3051V5.49531C30.3051 5.01531 30.1151 4.55531 29.7751 4.22531Z" fill="#FFEFB0"/>
</svg>
