<svg width="22" height="25" viewBox="0 0 22 25" fill="none" xmlns="http://www.w3.org/2000/svg">
<g clip-path="url(#clip0_121_2394)">
<path d="M19.9088 2.50314H17.0046V1.37569C17.0046 1.19627 16.934 1.02421 16.8083 0.897352C16.6826 0.770489 16.5121 0.699219 16.3344 0.699219C16.1566 0.699219 15.9861 0.770489 15.8604 0.897352C15.7348 1.02421 15.6641 1.19627 15.6641 1.37569V2.50314H6.28117V1.37569C6.28117 1.19627 6.21056 1.02421 6.08487 0.897352C5.95918 0.770489 5.78871 0.699219 5.61095 0.699219C5.4332 0.699219 5.26273 0.770489 5.13704 0.897352C5.01135 1.02421 4.94074 1.19627 4.94074 1.37569V2.50314H2.03649C1.62173 2.50314 1.22397 2.66943 0.930691 2.96545C0.637417 3.26146 0.472656 3.66294 0.472656 4.08157V22.6207C0.472656 23.0394 0.637417 23.4408 0.930691 23.7369C1.22397 24.0329 1.62173 24.1992 2.03649 24.1992H19.9088C20.3236 24.1992 20.7213 24.0329 21.0146 23.7369C21.3079 23.4408 21.4727 23.0394 21.4727 22.6207V4.08157C21.4727 3.66294 21.3079 3.26146 21.0146 2.96545C20.7213 2.66943 20.3236 2.50314 19.9088 2.50314ZM2.03649 3.85608H4.94074V4.98353C4.94074 5.16294 5.01135 5.335 5.13704 5.46187C5.26273 5.58873 5.4332 5.66 5.61095 5.66C5.78871 5.66 5.95918 5.58873 6.08487 5.46187C6.21056 5.335 6.28117 5.16294 6.28117 4.98353V3.85608H15.6641V4.98353C15.6641 5.16294 15.7348 5.335 15.8604 5.46187C15.9861 5.58873 16.1566 5.66 16.3344 5.66C16.5121 5.66 16.6826 5.58873 16.8083 5.46187C16.934 5.335 17.0046 5.16294 17.0046 4.98353V3.85608H19.9088C19.9681 3.85608 20.0249 3.87983 20.0668 3.92212C20.1087 3.96441 20.1322 4.02176 20.1322 4.08157V7.9149H1.81308V4.08157C1.81308 4.02176 1.83662 3.96441 1.87852 3.92212C1.92041 3.87983 1.97724 3.85608 2.03649 3.85608ZM19.9088 22.8462H2.03649C1.97724 22.8462 1.92041 22.8225 1.87852 22.7802C1.83662 22.7379 1.81308 22.6805 1.81308 22.6207V9.26784H20.1322V22.6207C20.1322 22.6805 20.1087 22.7379 20.0668 22.7802C20.0249 22.8225 19.9681 22.8462 19.9088 22.8462Z" fill="white"/>
<path d="M14.089 16.089C14.2121 15.966 14.2812 15.799 14.2812 15.625C14.2812 15.451 14.2121 15.284 14.089 15.161C13.966 15.0379 13.799 14.9688 13.625 14.9688H11.6562V13C11.6562 12.826 11.5871 12.659 11.464 12.536C11.341 12.4129 11.174 12.3438 11 12.3438C10.826 12.3438 10.659 12.4129 10.536 12.536C10.4129 12.659 10.3438 12.826 10.3438 13V14.9688H8.375C8.20095 14.9688 8.03403 15.0379 7.91096 15.161C7.78789 15.284 7.71875 15.451 7.71875 15.625C7.71875 15.799 7.78789 15.966 7.91096 16.089C8.03403 16.2121 8.20095 16.2812 8.375 16.2812H10.3438V18.25C10.3438 18.424 10.4129 18.591 10.536 18.714C10.659 18.8371 10.826 18.9062 11 18.9062C11.174 18.9062 11.341 18.8371 11.464 18.714C11.5871 18.591 11.6562 18.424 11.6562 18.25V16.2812H13.625C13.799 16.2812 13.966 16.2121 14.089 16.089Z" fill="white"/>
</g>
<defs>
<clipPath id="clip0_121_2394">
<rect width="22" height="25" fill="white"/>
</clipPath>
</defs>
</svg>
