<svg width="19" height="20" viewBox="0 0 19 20" fill="none" xmlns="http://www.w3.org/2000/svg">
<path d="M16.75 0.4375H4.75C4.4019 0.4375 4.06806 0.575781 3.82192 0.821922C3.57578 1.06806 3.4375 1.4019 3.4375 1.75V4.1875H1.75C1.4019 4.1875 1.06806 4.32578 0.821922 4.57192C0.575781 4.81806 0.4375 5.1519 0.4375 5.5V14.5C0.4375 14.8481 0.575781 15.1819 0.821922 15.4281C1.06806 15.6742 1.4019 15.8125 1.75 15.8125H3.4375V18.25C3.4375 18.5981 3.57578 18.9319 3.82192 19.1781C4.06806 19.4242 4.4019 19.5625 4.75 19.5625H16.75C17.0981 19.5625 17.4319 19.4242 17.6781 19.1781C17.9242 18.9319 18.0625 18.5981 18.0625 18.25V1.75C18.0625 1.4019 17.9242 1.06806 17.6781 0.821922C17.4319 0.575781 17.0981 0.4375 16.75 0.4375ZM12.8125 7.5625H16.9375V12.4375H12.8125V7.5625ZM16.9375 1.75V6.4375H12.8125V5.5C12.8125 5.1519 12.6742 4.81806 12.4281 4.57192C12.1819 4.32578 11.8481 4.1875 11.5 4.1875H11.3125V1.5625H16.75C16.7997 1.5625 16.8474 1.58225 16.8826 1.61742C16.9177 1.65258 16.9375 1.70027 16.9375 1.75ZM4.5625 1.75C4.5625 1.70027 4.58225 1.65258 4.61742 1.61742C4.65258 1.58225 4.70027 1.5625 4.75 1.5625H10.1875V4.1875H4.5625V1.75ZM1.5625 14.5V5.5C1.5625 5.45027 1.58225 5.40258 1.61742 5.36742C1.65258 5.33225 1.70027 5.3125 1.75 5.3125H11.5C11.5497 5.3125 11.5974 5.33225 11.6326 5.36742C11.6677 5.40258 11.6875 5.45027 11.6875 5.5V14.5C11.6875 14.5497 11.6677 14.5974 11.6326 14.6326C11.5974 14.6677 11.5497 14.6875 11.5 14.6875H1.75C1.70027 14.6875 1.65258 14.6677 1.61742 14.6326C1.58225 14.5974 1.5625 14.5497 1.5625 14.5ZM4.5625 18.25V15.8125H10.1875V18.4375H4.75C4.70027 18.4375 4.65258 18.4177 4.61742 18.3826C4.58225 18.3474 4.5625 18.2997 4.5625 18.25ZM16.75 18.4375H11.3125V15.8125H11.5C11.8481 15.8125 12.1819 15.6742 12.4281 15.4281C12.6742 15.1819 12.8125 14.8481 12.8125 14.5V13.5625H16.9375V18.25C16.9375 18.2997 16.9177 18.3474 16.8826 18.3826C16.8474 18.4177 16.7997 18.4375 16.75 18.4375ZM4.31781 11.89L5.89281 10L4.31781 8.11C4.26984 8.05333 4.23356 7.98773 4.21106 7.91697C4.18857 7.84622 4.1803 7.77171 4.18674 7.69774C4.19319 7.62377 4.21421 7.55181 4.2486 7.48601C4.28299 7.42021 4.33006 7.36186 4.38711 7.31434C4.44416 7.26682 4.51005 7.23107 4.58099 7.20914C4.65192 7.18721 4.72649 7.17954 4.80041 7.18658C4.87432 7.19361 4.94611 7.2152 5.01163 7.25012C5.07716 7.28503 5.13513 7.33257 5.18219 7.39L6.625 9.12156L8.06781 7.39C8.1637 7.27673 8.30047 7.20595 8.44832 7.19308C8.59616 7.1802 8.74311 7.22627 8.85713 7.32125C8.97116 7.41624 9.04303 7.55243 9.05709 7.70017C9.07115 7.84791 9.02626 7.99522 8.93219 8.11L7.35719 10L8.93219 11.89C8.98016 11.9467 9.01644 12.0123 9.03894 12.083C9.06143 12.1538 9.0697 12.2283 9.06326 12.3023C9.05681 12.3762 9.03579 12.4482 9.0014 12.514C8.96701 12.5798 8.91994 12.6381 8.86289 12.6857C8.80584 12.7332 8.73995 12.7689 8.66901 12.7909C8.59808 12.8128 8.52351 12.8205 8.44959 12.8134C8.37568 12.8064 8.30389 12.7848 8.23837 12.7499C8.17284 12.715 8.11487 12.6674 8.06781 12.61L6.625 10.8784L5.18219 12.61C5.0863 12.7233 4.94953 12.794 4.80168 12.8069C4.65384 12.8198 4.50689 12.7737 4.39287 12.6787C4.27884 12.5838 4.20697 12.4476 4.19291 12.2998C4.17885 12.1521 4.22374 12.0048 4.31781 11.89Z" fill="#00358A"/>
</svg>
