<svg width="8" height="28" viewBox="0 0 8 28" fill="none" xmlns="http://www.w3.org/2000/svg">
<path d="M4 16.9902C5.65685 16.9902 7 15.6471 7 13.9902C7 12.3334 5.65685 10.9902 4 10.9902C2.34315 10.9902 1 12.3334 1 13.9902C1 15.6471 2.34315 16.9902 4 16.9902Z" fill="#FFEFB0" stroke="#00358A" stroke-width="1.5" stroke-linecap="round" stroke-linejoin="round"/>
<path d="M4 6.99023C5.65685 6.99023 7 5.64709 7 3.99023C7 2.33338 5.65685 0.990234 4 0.990234C2.34315 0.990234 1 2.33338 1 3.99023C1 5.64709 2.34315 6.99023 4 6.99023Z" fill="#FFEFB0" stroke="#00358A" stroke-width="1.5" stroke-linecap="round" stroke-linejoin="round"/>
<path d="M4 26.9902C5.65685 26.9902 7 25.6471 7 23.9902C7 22.3334 5.65685 20.9902 4 20.9902C2.34315 20.9902 1 22.3334 1 23.9902C1 25.6471 2.34315 26.9902 4 26.9902Z" fill="#FFEFB0" stroke="#00358A" stroke-width="1.5" stroke-linecap="round" stroke-linejoin="round"/>
</svg>
