<svg width="40" height="40" viewBox="0 0 40 40" fill="none" xmlns="http://www.w3.org/2000/svg">
<path d="M28.295 14.705C28.5057 14.9159 28.624 15.2019 28.624 15.5C28.624 15.7981 28.5057 16.0841 28.295 16.295L17.795 26.795C17.5841 27.0057 17.2981 27.124 17 27.124C16.7019 27.124 16.4159 27.0057 16.205 26.795L11.705 22.295C11.5063 22.0817 11.3981 21.7997 11.4032 21.5082C11.4084 21.2168 11.5265 20.9387 11.7326 20.7326C11.9387 20.5264 12.2168 20.4084 12.5082 20.4032C12.7997 20.3981 13.0817 20.5063 13.295 20.705L17 24.4081L26.705 14.705C26.9159 14.4943 27.2019 14.376 27.5 14.376C27.7981 14.376 28.0841 14.4943 28.295 14.705ZM39.125 20C39.125 23.7826 38.0033 27.4802 35.9019 30.6253C33.8004 33.7704 30.8135 36.2217 27.3188 37.6692C23.8242 39.1167 19.9788 39.4955 16.2689 38.7575C12.559 38.0196 9.15127 36.1981 6.47659 33.5234C3.80191 30.8487 1.98043 27.441 1.24249 23.7311C0.504548 20.0212 0.883286 16.1758 2.33081 12.6812C3.77834 9.18654 6.22964 6.19963 9.37473 4.09814C12.5198 1.99666 16.2174 0.875 20 0.875C25.0704 0.880955 29.9315 2.89782 33.5168 6.48316C37.1022 10.0685 39.1191 14.9296 39.125 20ZM36.875 20C36.875 16.6624 35.8853 13.3998 34.0311 10.6248C32.1768 7.84967 29.5413 5.68676 26.4578 4.40953C23.3743 3.1323 19.9813 2.79812 16.7079 3.44925C13.4344 4.10037 10.4276 5.70756 8.06758 8.06757C5.70757 10.4276 4.10038 13.4344 3.44926 16.7079C2.79813 19.9813 3.13231 23.3743 4.40954 26.4578C5.68677 29.5413 7.84968 32.1768 10.6248 34.031C13.3998 35.8853 16.6624 36.875 20 36.875C24.474 36.87 28.7634 35.0905 31.927 31.9269C35.0906 28.7633 36.87 24.474 36.875 20Z" fill="#78BF92"/>
</svg>
