<svg width="26" height="31" viewBox="0 0 26 31" fill="none" xmlns="http://www.w3.org/2000/svg">
<g clip-path="url(#clip0_914_2709)">
<path d="M9.4113 17.9687V16.21H10.9748V17.9687C10.9748 18.1223 10.9905 18.2753 11.0217 18.4243L11.6471 21.4206L10.193 22.5831L8.73901 21.4206L9.3644 18.4243C9.39554 18.2753 9.41129 18.1223 9.4113 17.9687Z" fill="white"/>
<path d="M15.3415 0.272461H7.06614C6.23682 0.272461 5.44148 0.667549 4.85506 1.37081C4.26865 2.07407 3.93921 3.0279 3.93921 4.02246V26.5225C3.93921 27.517 4.26865 28.4708 4.85506 29.1741C5.44148 29.8774 6.23682 30.2725 7.06614 30.2725H19.5738C20.4032 30.2725 21.1985 29.8774 21.7849 29.1741C22.3713 28.4708 22.7008 27.517 22.7008 26.5225V9.09809C22.7007 8.60085 22.5359 8.12401 22.2427 7.77246L16.4469 0.821836C16.1538 0.470181 15.7562 0.272567 15.3415 0.272461V0.272461ZM15.6652 6.83496V3.08496L20.3556 8.70996H17.2287C16.814 8.70996 16.4163 8.51242 16.1231 8.16079C15.8299 7.80915 15.6652 7.33224 15.6652 6.83496ZM9.41133 5.89746V4.02246H7.84787V2.14746H10.1931V4.02246H11.7565V5.89746H10.1931V7.77246H11.7565V9.64746H10.1931V11.5225H11.7565V13.3975H9.41133V11.5225H7.84787V9.64746H9.41133V7.77246H7.84787V5.89746H9.41133ZM9.41133 14.335H10.9748C11.3895 14.335 11.7871 14.5325 12.0803 14.8841C12.3735 15.2358 12.5383 15.7127 12.5383 16.21V17.9687L13.1636 20.9668C13.2416 21.342 13.2209 21.7368 13.1045 22.0973C12.988 22.4578 12.7815 22.7663 12.5132 22.9806L11.0592 24.1431C10.8025 24.3483 10.5008 24.4577 10.1923 24.4577C9.88374 24.4577 9.5821 24.3483 9.32534 24.1431L7.87132 22.9806C7.60331 22.766 7.39713 22.4574 7.28099 22.0969C7.16484 21.7365 7.14441 21.3418 7.22248 20.9668L7.84787 17.9687V16.21C7.84787 15.7127 8.01259 15.2358 8.3058 14.8841C8.599 14.5325 8.99668 14.335 9.41133 14.335Z" fill="white"/>
</g>
<defs>
<clipPath id="clip0_914_2709">
<rect width="25.0154" height="30" fill="white" transform="translate(0.812256 0.272461)"/>
</clipPath>
</defs>
</svg>
