<svg width="40" height="40" viewBox="0 0 40 40" fill="none" xmlns="http://www.w3.org/2000/svg">
<path d="M26.795 14.795L21.59 20L26.795 25.205C26.9055 25.308 26.9942 25.4322 27.0557 25.5702C27.1172 25.7082 27.1502 25.8572 27.1529 26.0082C27.1556 26.1593 27.1278 26.3093 27.0712 26.4494C27.0146 26.5895 26.9304 26.7167 26.8236 26.8236C26.7167 26.9304 26.5895 27.0146 26.4494 27.0712C26.3093 27.1278 26.1593 27.1556 26.0082 27.1529C25.8572 27.1502 25.7082 27.1172 25.5702 27.0557C25.4322 26.9942 25.308 26.9055 25.205 26.795L20 21.59L14.795 26.795C14.5817 26.9937 14.2997 27.1019 14.0082 27.0968C13.7168 27.0916 13.4387 26.9736 13.2326 26.7674C13.0265 26.5613 12.9084 26.2832 12.9032 25.9918C12.8981 25.7003 13.0063 25.4183 13.205 25.205L18.41 20L13.205 14.795C13.0063 14.5817 12.8981 14.2997 12.9032 14.0082C12.9084 13.7168 13.0265 13.4387 13.2326 13.2326C13.4387 13.0264 13.7168 12.9084 14.0082 12.9032C14.2997 12.8981 14.5817 13.0063 14.795 13.205L20 18.41L25.205 13.205C25.4183 13.0063 25.7003 12.8981 25.9918 12.9032C26.2832 12.9084 26.5613 13.0264 26.7674 13.2326C26.9736 13.4387 27.0916 13.7168 27.0968 14.0082C27.1019 14.2997 26.9937 14.5817 26.795 14.795ZM39.125 20C39.125 23.7826 38.0033 27.4802 35.9019 30.6253C33.8004 33.7704 30.8135 36.2217 27.3188 37.6692C23.8242 39.1167 19.9788 39.4955 16.2689 38.7575C12.559 38.0196 9.15127 36.1981 6.47659 33.5234C3.80191 30.8487 1.98043 27.441 1.24249 23.7311C0.504548 20.0212 0.883286 16.1758 2.33081 12.6812C3.77834 9.18654 6.22964 6.19963 9.37473 4.09814C12.5198 1.99666 16.2174 0.875 20 0.875C25.0704 0.880955 29.9315 2.89782 33.5168 6.48316C37.1022 10.0685 39.1191 14.9296 39.125 20ZM36.875 20C36.875 16.6624 35.8853 13.3998 34.0311 10.6248C32.1768 7.84967 29.5413 5.68676 26.4578 4.40953C23.3743 3.1323 19.9813 2.79812 16.7079 3.44925C13.4344 4.10037 10.4276 5.70756 8.06758 8.06757C5.70757 10.4276 4.10038 13.4344 3.44926 16.7079C2.79813 19.9813 3.13231 23.3743 4.40954 26.4578C5.68677 29.5413 7.84968 32.1768 10.6248 34.031C13.3998 35.8853 16.6624 36.875 20 36.875C24.474 36.87 28.7634 35.0905 31.927 31.9269C35.0906 28.7633 36.87 24.474 36.875 20Z" fill="#F9281D"/>
</svg>
