<svg width="24" height="20" viewBox="0 0 24 20" fill="none" xmlns="http://www.w3.org/2000/svg">
<path d="M21.625 4.32971H12.2723L9.22078 1.27815C9.0788 1.13567 8.91002 1.0227 8.72418 0.945736C8.53834 0.868772 8.33911 0.829341 8.13797 0.829715H2.375C1.96889 0.829715 1.57941 0.991042 1.29224 1.27821C1.00508 1.56537 0.84375 1.95485 0.84375 2.36096V18.1788C0.84404 18.5668 0.998316 18.9389 1.2727 19.2133C1.54709 19.4876 1.91915 19.6419 2.30719 19.6422H21.7223C22.1026 19.6419 22.4671 19.4908 22.7359 19.2219C23.0048 18.9531 23.156 18.5885 23.1562 18.2083V5.86096C23.1562 5.45485 22.9949 5.06537 22.7078 4.77821C22.4206 4.49104 22.0311 4.32971 21.625 4.32971ZM2.375 2.14221H8.13797C8.19589 2.14246 8.25135 2.16567 8.29219 2.20675L10.4152 4.32971H2.15625V2.36096C2.15625 2.30295 2.1793 2.24731 2.22032 2.20628C2.26134 2.16526 2.31698 2.14221 2.375 2.14221ZM21.8438 18.2083C21.8438 18.2405 21.831 18.2714 21.8082 18.2942C21.7854 18.3169 21.7545 18.3297 21.7223 18.3297H2.30719C2.26733 18.3291 2.22927 18.3131 2.20108 18.2849C2.1729 18.2567 2.15682 18.2186 2.15625 18.1788V5.64221H21.625C21.683 5.64221 21.7387 5.66526 21.7797 5.70628C21.8207 5.74731 21.8438 5.80295 21.8438 5.86096V18.2083ZM15.2812 11.986C15.2812 12.16 15.2121 12.3269 15.089 12.45C14.966 12.5731 14.799 12.6422 14.625 12.6422H12.6562V14.611C12.6562 14.785 12.5871 14.9519 12.464 15.075C12.341 15.1981 12.174 15.2672 12 15.2672C11.826 15.2672 11.659 15.1981 11.536 15.075C11.4129 14.9519 11.3438 14.785 11.3438 14.611V12.6422H9.375C9.20095 12.6422 9.03403 12.5731 8.91096 12.45C8.78789 12.3269 8.71875 12.16 8.71875 11.986C8.71875 11.8119 8.78789 11.645 8.91096 11.5219C9.03403 11.3989 9.20095 11.3297 9.375 11.3297H11.3438V9.36096C11.3438 9.18692 11.4129 9.02 11.536 8.89693C11.659 8.77386 11.826 8.70471 12 8.70471C12.174 8.70471 12.341 8.77386 12.464 8.89693C12.5871 9.02 12.6562 9.18692 12.6562 9.36096V11.3297H14.625C14.799 11.3297 14.966 11.3989 15.089 11.5219C15.2121 11.645 15.2812 11.8119 15.2812 11.986Z" fill="black"/>
</svg>
