<svg width="481" height="480" viewBox="0 0 481 480" fill="none" xmlns="http://www.w3.org/2000/svg">
<path d="M439.7 272.1C426.92 268.35 413.64 275.694 409.95 288.41C388.3 363.9 318.8 416 240.1 416C173.57 416 113.3 377.72 83.5999 320H184C197.25 320 208 309.25 208 296C208 282.75 198.2 272 184.9 272H24.8999C11.6499 272 0.899902 282.75 0.899902 296V456C0.899902 469.25 11.6499 480 24.8999 480C38.1499 480 48.8999 469.25 48.8999 456V353.9C88.6999 420.4 161.1 464 240.1 464C339.1 464 427.5 397.69 455.2 302.7C459.8 289.1 452.4 276.7 439.7 272.1ZM457 0C443.8 0 433 10.75 433 24V126.1C393.3 59.55 320.8 16 241 16C142 16 53.5299 82.31 25.9099 177.3C22.1899 190 29.4999 203.3 42.2199 207C55.0599 210.781 68.3099 203.375 71.9699 190.69C93.6999 116.1 163.2 64 241 64C307.53 64 367.8 102.28 397.5 160H297C283.8 160 273 170.8 273 184C273 197.2 283.8 208 297 208H457C470.25 208 481 197.25 481 184V24C481 10.75 470.3 0 457 0Z" fill="white"/>
</svg>
