<svg width="33" height="32" viewBox="0 0 33 32" fill="none" xmlns="http://www.w3.org/2000/svg">
<path fill-rule="evenodd" clip-rule="evenodd" d="M16.5 10.75C14.1528 10.75 12.25 12.6528 12.25 15C12.25 17.3472 14.1528 19.25 16.5 19.25C18.8472 19.25 20.75 17.3472 20.75 15C20.75 12.6528 18.8472 10.75 16.5 10.75ZM10.75 15C10.75 11.8244 13.3244 9.25 16.5 9.25C19.6756 9.25 22.25 11.8244 22.25 15C22.25 18.1756 19.6756 20.75 16.5 20.75C13.3244 20.75 10.75 18.1756 10.75 15Z" fill="#00358A"/>
<path fill-rule="evenodd" clip-rule="evenodd" d="M16.5 20.75C14.9765 20.75 13.4828 21.1711 12.1844 21.9681C10.8859 22.7651 9.83354 23.9061 9.14385 25.2646C8.95634 25.6339 8.50492 25.7813 8.13558 25.5938C7.76624 25.4063 7.61884 24.9549 7.80635 24.5855C8.62143 22.98 9.86517 21.6316 11.3997 20.6897C12.9342 19.7478 14.6995 19.25 16.5 19.25C18.3005 19.25 20.066 19.7478 21.6005 20.6897C23.135 21.6316 24.3788 22.98 25.1938 24.5855C25.3814 24.9549 25.234 25.4063 24.8646 25.5938C24.4953 25.7813 24.0439 25.6339 23.8563 25.2646C23.1667 23.9061 22.1143 22.7651 20.8158 21.9681C19.5174 21.1711 18.0235 20.75 16.5 20.75Z" fill="#00358A"/>
<path fill-rule="evenodd" clip-rule="evenodd" d="M25.5 5.75C24.8096 5.75 24.25 6.30964 24.25 7C24.25 7.69036 24.8096 8.25 25.5 8.25C26.1904 8.25 26.75 7.69036 26.75 7C26.75 6.30964 26.1904 5.75 25.5 5.75ZM22.75 7C22.75 5.48122 23.9812 4.25 25.5 4.25C27.0188 4.25 28.25 5.48122 28.25 7C28.25 8.51878 27.0188 9.75 25.5 9.75C23.9812 9.75 22.75 8.51878 22.75 7Z" fill="#00358A"/>
<path fill-rule="evenodd" clip-rule="evenodd" d="M25.5 2.75C25.9142 2.75 26.25 3.08579 26.25 3.5V5C26.25 5.41421 25.9142 5.75 25.5 5.75C25.0858 5.75 24.75 5.41421 24.75 5V3.5C24.75 3.08579 25.0858 2.75 25.5 2.75Z" fill="#00358A"/>
<path fill-rule="evenodd" clip-rule="evenodd" d="M21.827 4.87249C22.0355 4.51457 22.4947 4.39344 22.8526 4.60194L24.1401 5.35194C24.498 5.56043 24.6192 6.0196 24.4107 6.37751C24.2022 6.73543 23.743 6.85656 23.3851 6.64806L22.0976 5.89806C21.7397 5.68957 21.6185 5.2304 21.827 4.87249Z" fill="#00358A"/>
<path fill-rule="evenodd" clip-rule="evenodd" d="M24.4107 7.62249C24.6192 7.9804 24.498 8.43957 24.1401 8.64806L22.8526 9.39806C22.4947 9.60656 22.0355 9.48543 21.827 9.12751C21.6185 8.7696 21.7397 8.31043 22.0976 8.10194L23.3851 7.35194C23.743 7.14344 24.2022 7.26457 24.4107 7.62249Z" fill="#00358A"/>
<path fill-rule="evenodd" clip-rule="evenodd" d="M25.5 8.25C25.9142 8.25 26.25 8.58579 26.25 9V10.5C26.25 10.9142 25.9142 11.25 25.5 11.25C25.0858 11.25 24.75 10.9142 24.75 10.5V9C24.75 8.58579 25.0858 8.25 25.5 8.25Z" fill="#00358A"/>
<path fill-rule="evenodd" clip-rule="evenodd" d="M26.5895 7.62249C26.798 7.26457 27.2571 7.14344 27.6151 7.35194L28.9026 8.10194C29.2605 8.31043 29.3816 8.7696 29.1731 9.12751C28.9646 9.48543 28.5055 9.60656 28.1475 9.39806L26.86 8.64806C26.5021 8.43957 26.381 7.9804 26.5895 7.62249Z" fill="#00358A"/>
<path fill-rule="evenodd" clip-rule="evenodd" d="M29.1731 4.87249C29.3816 5.2304 29.2605 5.68957 28.9026 5.89806L27.6151 6.64806C27.2571 6.85656 26.798 6.73543 26.5895 6.37751C26.381 6.0196 26.5021 5.56043 26.86 5.35194L28.1475 4.60194C28.5055 4.39344 28.9646 4.51457 29.1731 4.87249Z" fill="#00358A"/>
<path fill-rule="evenodd" clip-rule="evenodd" d="M17.5405 4.79651C17.1963 4.76331 16.8506 4.74778 16.5047 4.74996L16.5 4.74997C14.275 4.74997 12.0999 5.40977 10.2498 6.64594C8.39979 7.8821 6.95785 9.63911 6.10636 11.6948C5.25488 13.7505 5.03209 16.0125 5.46617 18.1947C5.90025 20.377 6.97171 22.3816 8.54505 23.9549C10.1184 25.5283 12.123 26.5997 14.3052 27.0338C16.4875 27.4679 18.7495 27.2451 20.8052 26.3936C22.8609 25.5421 24.6179 24.1002 25.854 22.2501C27.0902 20.4001 27.75 18.225 27.75 16L27.75 15.9963C27.7522 15.5486 27.725 15.1012 27.6685 14.6571C27.6162 14.2462 27.907 13.8707 28.3179 13.8185C28.7288 13.7662 29.1042 14.0569 29.1565 14.4678C29.2212 14.9766 29.2525 15.489 29.25 16.0018C29.2496 18.5229 28.5019 20.9873 27.1012 23.0835C25.7003 25.1802 23.709 26.8144 21.3792 27.7794C19.0495 28.7445 16.4859 28.9969 14.0126 28.505C11.5393 28.013 9.26751 26.7987 7.48439 25.0156C5.70127 23.2325 4.48695 20.9606 3.99499 18.4874C3.50303 16.0141 3.75552 13.4505 4.72054 11.1208C5.68556 8.791 7.31976 6.79972 9.41649 5.39873C11.5126 3.99818 13.9768 3.25044 16.4976 3.24997C16.8939 3.24755 17.29 3.2654 17.6845 3.30344C18.0968 3.3432 18.3988 3.70966 18.359 4.12196C18.3193 4.53427 17.9528 4.83627 17.5405 4.79651Z" fill="#00358A"/>
</svg>
