<svg width="40" height="39" viewBox="0 0 40 39" fill="none" xmlns="http://www.w3.org/2000/svg">
<path d="M22.625 28.5C22.625 28.7984 22.5065 29.0845 22.2955 29.2955C22.0845 29.5065 21.7984 29.625 21.5 29.625C20.8038 29.625 20.1361 29.3484 19.6439 28.8562C19.1516 28.3639 18.875 27.6962 18.875 27V19.5C18.875 19.4005 18.8355 19.3052 18.7652 19.2348C18.6948 19.1645 18.5995 19.125 18.5 19.125C18.2016 19.125 17.9155 19.0065 17.7045 18.7955C17.4935 18.5845 17.375 18.2984 17.375 18C17.375 17.7016 17.4935 17.4155 17.7045 17.2045C17.9155 16.9935 18.2016 16.875 18.5 16.875C19.1962 16.875 19.8639 17.1516 20.3562 17.6438C20.8484 18.1361 21.125 18.8038 21.125 19.5V27C21.125 27.0995 21.1645 27.1948 21.2348 27.2652C21.3052 27.3355 21.4006 27.375 21.5 27.375C21.7984 27.375 22.0845 27.4935 22.2955 27.7045C22.5065 27.9155 22.625 28.2016 22.625 28.5ZM19.25 13.125C19.6208 13.125 19.9834 13.015 20.2917 12.809C20.6 12.603 20.8404 12.3101 20.9823 11.9675C21.1242 11.6249 21.1613 11.2479 21.089 10.8842C21.0166 10.5205 20.8381 10.1864 20.5758 9.92418C20.3136 9.66195 19.9795 9.48337 19.6158 9.41103C19.2521 9.33868 18.8751 9.37581 18.5325 9.51773C18.1899 9.65964 17.897 9.89996 17.691 10.2083C17.485 10.5166 17.375 10.8792 17.375 11.25C17.375 11.7473 17.5726 12.2242 17.9242 12.5758C18.2758 12.9275 18.7527 13.125 19.25 13.125ZM39.125 19.5C39.125 23.2826 38.0033 26.9802 35.9019 30.1253C33.8004 33.2704 30.8135 35.7217 27.3188 37.1692C23.8242 38.6167 19.9788 38.9955 16.2689 38.2575C12.559 37.5196 9.15127 35.6981 6.47659 33.0234C3.80191 30.3487 1.98043 26.941 1.24249 23.2311C0.504548 19.5212 0.883286 15.6758 2.33081 12.1812C3.77834 8.68654 6.22964 5.69963 9.37473 3.59814C12.5198 1.49666 16.2174 0.375 20 0.375C25.0704 0.380955 29.9315 2.39782 33.5168 5.98316C37.1022 9.5685 39.1191 14.4296 39.125 19.5ZM36.875 19.5C36.875 16.1624 35.8853 12.8998 34.0311 10.1248C32.1768 7.34967 29.5413 5.18676 26.4578 3.90953C23.3743 2.6323 19.9813 2.29812 16.7079 2.94925C13.4344 3.60037 10.4276 5.20756 8.06758 7.56757C5.70757 9.92758 4.10038 12.9344 3.44926 16.2079C2.79813 19.4813 3.13231 22.8743 4.40954 25.9578C5.68677 29.0413 7.84968 31.6768 10.6248 33.531C13.3998 35.3853 16.6624 36.375 20 36.375C24.474 36.37 28.7634 34.5905 31.927 31.4269C35.0906 28.2633 36.87 23.974 36.875 19.5Z" fill="#2E79E9"/>
</svg>
