<svg width="28" height="28" viewBox="0 0 28 28" fill="none" xmlns="http://www.w3.org/2000/svg">
<path d="M9.50586 11.6233C9.50586 11.2609 9.79967 10.967 10.1621 10.967H18.4746C18.837 10.967 19.1309 11.2609 19.1309 11.6233C19.1309 11.9857 18.837 12.2795 18.4746 12.2795H10.1621C9.79967 12.2795 9.50586 11.9857 9.50586 11.6233Z" fill="#474848"/>
<path d="M9.50586 14.2483C9.50586 13.8859 9.79967 13.592 10.1621 13.592H18.4746C18.837 13.592 19.1309 13.8859 19.1309 14.2483C19.1309 14.6107 18.837 14.9045 18.4746 14.9045H10.1621C9.79967 14.9045 9.50586 14.6107 9.50586 14.2483Z" fill="#474848"/>
<path d="M9.50586 16.8733C9.50586 16.5109 9.79967 16.217 10.1621 16.217H18.4746C18.837 16.217 19.1309 16.5109 19.1309 16.8733C19.1309 17.2357 18.837 17.5295 18.4746 17.5295H10.1621C9.79967 17.5295 9.50586 17.2357 9.50586 16.8733Z" fill="#474848"/>
<path d="M9.50586 19.4983C9.50586 19.1359 9.79967 18.842 10.1621 18.842H18.4746C18.837 18.842 19.1309 19.1359 19.1309 19.4983C19.1309 19.8607 18.837 20.1545 18.4746 20.1545H10.1621C9.79967 20.1545 9.50586 19.8607 9.50586 19.4983Z" fill="#474848"/>
<path fill-rule="evenodd" clip-rule="evenodd" d="M9.16527 5.49829H6.88086C6.76005 5.49829 6.66211 5.59623 6.66211 5.71704V23.217C6.66211 23.3379 6.76005 23.4358 6.88086 23.4358H21.7559C21.8767 23.4358 21.9746 23.3379 21.9746 23.217V5.71704C21.9746 5.59623 21.8767 5.49829 21.7559 5.49829H19.4721C19.2504 5.02351 18.9643 4.58186 18.622 4.18579H21.7559C22.6015 4.18579 23.2871 4.87136 23.2871 5.71704V23.217C23.2871 24.0627 22.6015 24.7483 21.7559 24.7483H6.88086C6.03517 24.7483 5.34961 24.0627 5.34961 23.217V5.71704C5.34961 4.87136 6.03517 4.18579 6.88086 4.18579H10.0154C9.67308 4.58186 9.38695 5.02351 9.16527 5.49829Z" fill="#474848"/>
<path fill-rule="evenodd" clip-rule="evenodd" d="M11.8901 2.04368C12.6597 1.72488 13.4846 1.56079 14.3177 1.56079C15.1508 1.56079 15.9757 1.72488 16.7454 2.04368C17.515 2.36248 18.2143 2.82976 18.8034 3.41883C19.3925 4.0079 19.8598 4.70723 20.1786 5.47689C20.3725 5.94515 20.5092 6.43386 20.5865 6.93242C20.7329 7.87654 19.9431 8.56079 19.1302 8.56079L9.50521 8.56079C8.69231 8.56079 7.90248 7.87654 8.04889 6.93242C8.1262 6.43386 8.26289 5.94515 8.45685 5.47689C8.77565 4.70723 9.24293 4.0079 9.832 3.41883C10.4211 2.82976 11.1204 2.36248 11.8901 2.04368ZM14.3177 2.87329C13.657 2.87329 13.0028 3.00343 12.3923 3.25627C11.7819 3.50912 11.2273 3.87972 10.7601 4.34691C10.2929 4.81411 9.92228 5.36875 9.66944 5.97917C9.51561 6.35054 9.4072 6.73814 9.34588 7.13355C9.34346 7.1492 9.34534 7.15814 9.34732 7.16412C9.3497 7.1713 9.35514 7.18227 9.36731 7.19503C9.39312 7.22211 9.44141 7.24829 9.50521 7.24829L19.1302 7.24829C19.194 7.24829 19.2423 7.22211 19.2681 7.19503C19.2803 7.18227 19.2857 7.1713 19.2881 7.16412C19.2901 7.15814 19.292 7.1492 19.2895 7.13355C19.2282 6.73814 19.1198 6.35054 18.966 5.97917C18.7131 5.36875 18.3425 4.8141 17.8753 4.34691C17.4081 3.87972 16.8535 3.50912 16.2431 3.25627C15.6327 3.00343 14.9784 2.87329 14.3177 2.87329Z" fill="#474848"/>
</svg>
