<svg width="42" height="38" viewBox="0 0 42 38" fill="none" xmlns="http://www.w3.org/2000/svg">
<path d="M41.0756 31.4543L24.6769 2.97867C24.3002 2.33826 23.7628 1.80732 23.1179 1.43843C22.473 1.06954 21.7429 0.875488 21 0.875488C20.257 0.875488 19.5269 1.06954 18.882 1.43843C18.2371 1.80732 17.6997 2.33826 17.3231 2.97867L0.924353 31.4543C0.563392 32.0722 0.373169 32.7749 0.373169 33.4906C0.373169 34.2062 0.563392 34.9089 0.924353 35.5268C1.29596 36.1717 1.83263 36.706 2.47919 37.0748C3.12574 37.4435 3.85883 37.6334 4.6031 37.6249H37.3969C38.1405 37.6327 38.8728 37.4425 39.5186 37.0738C40.1645 36.7051 40.7006 36.1712 41.0719 35.5268C41.4334 34.9092 41.6243 34.2067 41.6249 33.4911C41.6256 32.7755 41.436 32.0725 41.0756 31.4543ZM39.1237 34.3999C38.9485 34.7012 38.6961 34.9504 38.3926 35.1218C38.0891 35.2931 37.7454 35.3805 37.3969 35.3749H4.6031C4.25459 35.3805 3.91088 35.2931 3.60735 35.1218C3.30383 34.9504 3.05146 34.7012 2.87623 34.3999C2.71231 34.1242 2.6258 33.8094 2.6258 33.4887C2.6258 33.1679 2.71231 32.8531 2.87623 32.5774L19.2731 4.1018C19.4524 3.80402 19.7056 3.55765 20.0082 3.38662C20.3107 3.21559 20.6524 3.12572 21 3.12572C21.3476 3.12572 21.6892 3.21559 21.9918 3.38662C22.2944 3.55765 22.5476 3.80402 22.7269 4.1018L39.1256 32.5774C39.2892 32.8533 39.3754 33.1682 39.3751 33.4889C39.3748 33.8097 39.2879 34.1244 39.1237 34.3999ZM19.875 22.9999V15.4999C19.875 15.2016 19.9935 14.9154 20.2045 14.7044C20.4155 14.4935 20.7016 14.3749 21 14.3749C21.2983 14.3749 21.5845 14.4935 21.7955 14.7044C22.0065 14.9154 22.125 15.2016 22.125 15.4999V22.9999C22.125 23.2983 22.0065 23.5844 21.7955 23.7954C21.5845 24.0064 21.2983 24.1249 21 24.1249C20.7016 24.1249 20.4155 24.0064 20.2045 23.7954C19.9935 23.5844 19.875 23.2983 19.875 22.9999ZM22.875 29.7499C22.875 30.1208 22.765 30.4833 22.559 30.7916C22.353 31.1 22.0601 31.3403 21.7175 31.4822C21.3749 31.6241 20.9979 31.6612 20.6342 31.5889C20.2705 31.5166 19.9364 31.338 19.6742 31.0758C19.4119 30.8135 19.2334 30.4794 19.161 30.1157C19.0887 29.752 19.1258 29.375 19.2677 29.0324C19.4096 28.6898 19.6499 28.3969 19.9583 28.1909C20.2666 27.9849 20.6291 27.8749 21 27.8749C21.4973 27.8749 21.9742 28.0725 22.3258 28.4241C22.6774 28.7757 22.875 29.2526 22.875 29.7499Z" fill="#FF9514"/>
</svg>
