<svg width="16" height="16" viewBox="0 0 16 16" fill="none" xmlns="http://www.w3.org/2000/svg">
<path d="M11.1106 6.01437C11.1896 6.09348 11.234 6.2007 11.234 6.3125C11.234 6.4243 11.1896 6.53152 11.1106 6.61062L7.17312 10.5481C7.09402 10.6271 6.9868 10.6715 6.875 10.6715C6.7632 10.6715 6.65598 10.6271 6.57687 10.5481L4.88937 8.86062C4.81485 8.78065 4.77428 8.67488 4.77621 8.56558C4.77814 8.45629 4.82242 8.35201 4.89971 8.27471C4.97701 8.19742 5.08129 8.15314 5.19058 8.15121C5.29988 8.14929 5.40565 8.18985 5.48562 8.26437L6.875 9.65305L10.5144 6.01437C10.5935 5.93537 10.7007 5.891 10.8125 5.891C10.9243 5.891 11.0315 5.93537 11.1106 6.01437ZM15.1719 8C15.1719 9.41846 14.7513 10.8051 13.9632 11.9845C13.1751 13.1639 12.055 14.0831 10.7446 14.6259C9.43407 15.1688 7.99204 15.3108 6.60084 15.0341C5.20963 14.7573 3.93172 14.0743 2.92872 13.0713C1.92571 12.0683 1.24266 10.7904 0.96593 9.39916C0.689202 8.00796 0.831228 6.56593 1.37405 5.25544C1.91687 3.94495 2.83611 2.82486 4.01552 2.0368C5.19493 1.24875 6.58154 0.828125 8 0.828125C9.90141 0.830358 11.7243 1.58668 13.0688 2.93118C14.4133 4.27569 15.1696 6.09859 15.1719 8ZM14.3281 8C14.3281 6.74841 13.957 5.52494 13.2616 4.48428C12.5663 3.44363 11.578 2.63254 10.4217 2.15357C9.26535 1.67461 7.99298 1.5493 6.76544 1.79347C5.53791 2.03764 4.41034 2.64034 3.52534 3.52534C2.64034 4.41034 2.03764 5.53791 1.79347 6.76544C1.5493 7.99298 1.67461 9.26535 2.15357 10.4217C2.63254 11.578 3.44363 12.5663 4.48428 13.2616C5.52494 13.957 6.74841 14.3281 8 14.3281C9.67775 14.3263 11.2863 13.659 12.4726 12.4726C13.659 11.2863 14.3263 9.67775 14.3281 8Z" fill="#969696"/>
</svg>
