<svg width="512" height="512" viewBox="0 0 512 512" fill="none" xmlns="http://www.w3.org/2000/svg">
<g clip-path="url(#clip0_1_2406)">
<path d="M256 360C242.75 360 232.9 370.74 232.9 384C232.9 397.25 243.65 408 256 408C269.25 408 279.1 397.25 279.1 384C280 370.7 269.3 360 256 360ZM256 320C264.843 320 271.1 312.844 271.1 304V160C271.1 151.156 263.945 144 256 144C248.055 144 240 151.2 240 160V304C240 312.8 247.2 320 256 320ZM504.3 397.3L304.5 59.38C294.4 42.27 276.2 32.03 256 32C235.8 32 217.7 42.22 207.5 59.36L7.59999 397.36C-2.45001 414.33 -2.60001 434.7 7.17819 451.86C17.29 469.5 35.55 480 56.1 480H456C476.51 480 494.75 469.47 504.81 451.83C514.6 434.7 514.4 414.3 504.3 397.3ZM476.1 435.1C472.7 443.5 464.8 448 455.1 448H56.1C47.194 448 39.32 443.516 35.02 436C30.942 428.844 31.005 420.7 35.1762 413.64L235.1 75.66C239.4 68.36 247.2 64 256 64C264.765 64.0156 272.56 68.359 276.86 75.64L476.76 413.64C480.1 420.7 481.1 428.8 476.1 435.1Z" fill="#013383"/>
</g>
<defs>
<clipPath id="clip0_1_2406">
<rect width="512" height="512" fill="white"/>
</clipPath>
</defs>
</svg>
