<svg width="19" height="18" viewBox="0 0 19 18" fill="none" xmlns="http://www.w3.org/2000/svg">
<path d="M17.0098 0.185974H2.00977C1.66167 0.185974 1.32783 0.324255 1.08169 0.570397C0.835547 0.816538 0.697266 1.15038 0.697266 1.49847V16.4985C0.697266 16.8466 0.835547 17.1804 1.08169 17.4266C1.32783 17.6727 1.66167 17.811 2.00977 17.811H17.0098C17.3579 17.811 17.6917 17.6727 17.9378 17.4266C18.184 17.1804 18.3223 16.8466 18.3223 16.4985V1.49847C18.3223 1.15038 18.184 0.816538 17.9378 0.570397C17.6917 0.324255 17.3579 0.185974 17.0098 0.185974ZM2.00977 1.31097H17.0098C17.0595 1.31097 17.1072 1.33073 17.1423 1.36589C17.1775 1.40105 17.1973 1.44875 17.1973 1.49847V11.436H14.3201C14.1477 11.4357 13.9769 11.4695 13.8176 11.5354C13.6583 11.6014 13.5137 11.6982 13.392 11.8203L11.5816 13.6307C11.5466 13.6659 11.4991 13.6858 11.4495 13.686H7.57008C7.52056 13.686 7.47305 13.6665 7.43789 13.6316L5.62758 11.8203C5.50588 11.6982 5.36121 11.6014 5.20192 11.5354C5.04263 11.4695 4.87186 11.4357 4.69945 11.436H1.82227V1.49847C1.82227 1.44875 1.84202 1.40105 1.87718 1.36589C1.91235 1.33073 1.96004 1.31097 2.00977 1.31097ZM17.0098 16.686H2.00977C1.96004 16.686 1.91235 16.6662 1.87718 16.6311C1.84202 16.5959 1.82227 16.5482 1.82227 16.4985V12.561H4.69945C4.74897 12.5609 4.79649 12.5805 4.83164 12.6153L6.64195 14.4266C6.76365 14.5487 6.90832 14.6456 7.06761 14.7115C7.2269 14.7775 7.39767 14.8113 7.57008 14.811H11.4495C11.6219 14.8113 11.7926 14.7775 11.9519 14.7115C12.1112 14.6456 12.2559 14.5487 12.3776 14.4266L14.1879 12.6163C14.2229 12.5811 14.2704 12.5612 14.3201 12.561H17.1973V16.4985C17.1973 16.5482 17.1775 16.5959 17.1423 16.6311C17.1072 16.6662 17.0595 16.686 17.0098 16.686ZM6.11227 8.64597C6.01291 8.53934 5.95881 8.39831 5.96138 8.25258C5.96396 8.10686 6.02299 7.96782 6.12605 7.86476C6.22911 7.7617 6.36815 7.70266 6.51387 7.70009C6.6596 7.69752 6.80063 7.75161 6.90727 7.85097L8.94727 9.89004V3.74847C8.94727 3.59929 9.00653 3.45622 9.11202 3.35073C9.21751 3.24524 9.36058 3.18597 9.50977 3.18597C9.65895 3.18597 9.80202 3.24524 9.90751 3.35073C10.013 3.45622 10.0723 3.59929 10.0723 3.74847V9.89004L12.1123 7.85097C12.2189 7.75161 12.3599 7.69752 12.5057 7.70009C12.6514 7.70266 12.7904 7.7617 12.8935 7.86476C12.9965 7.96782 13.0556 8.10686 13.0581 8.25258C13.0607 8.39831 13.0066 8.53934 12.9073 8.64597L9.90727 11.646C9.8018 11.7513 9.65883 11.8105 9.50977 11.8105C9.3607 11.8105 9.21774 11.7513 9.11227 11.646L6.11227 8.64597Z" fill="#474848"/>
</svg>
