<svg width="14" height="18" viewBox="0 0 14 18" fill="none" xmlns="http://www.w3.org/2000/svg">
<path d="M12.4905 5.29473C12.9462 4.85527 12.9462 4.1416 12.4905 3.70215C12.0348 3.2627 11.2947 3.2627 10.8389 3.70215L6.99989 7.40762L3.15718 3.70566C2.70145 3.26621 1.96134 3.26621 1.50562 3.70566C1.04989 4.14512 1.04989 4.85879 1.50562 5.29824L5.34832 9.0002L1.50926 12.7057C1.05353 13.1451 1.05353 13.8588 1.50926 14.2982C1.96499 14.7377 2.70509 14.7377 3.16082 14.2982L6.99989 10.5928L10.8426 14.2947C11.2983 14.7342 12.0384 14.7342 12.4942 14.2947C12.9499 13.8553 12.9499 13.1416 12.4942 12.7021L8.65145 9.0002L12.4905 5.29473Z" fill="#DC3545"/>
</svg>
