<svg width="27" height="26" viewBox="0 0 27 26" fill="none" xmlns="http://www.w3.org/2000/svg">
<path fill-rule="evenodd" clip-rule="evenodd" d="M3.30105 0.75C1.96118 0.75 0.875 1.83618 0.875 3.17605V4.89609C0.875 6.23596 1.96118 7.32214 3.30105 7.32214H3.55428V21.1334C3.55428 22.1383 4.36892 22.953 5.37382 22.953H8.66019C8.69231 24.2649 9.76587 25.3185 11.0855 25.3185H12.8055C14.1454 25.3185 15.2316 24.2323 15.2316 22.8925V21.1724C15.2316 19.8326 14.1454 18.7464 12.8055 18.7464H11.0855C9.74563 18.7464 8.65945 19.8326 8.65945 21.1724V21.74H5.37382C5.03885 21.74 4.76731 21.4684 4.76731 21.1334V13.6408H8.65945V13.8943C8.65945 15.2342 9.74564 16.3203 11.0855 16.3203H12.8055C14.1454 16.3203 15.2316 15.2342 15.2316 13.8943V12.1743C15.2316 10.8344 14.1454 9.74821 12.8055 9.74821H11.0855C9.74563 9.74821 8.65945 10.8344 8.65945 12.1743V12.4277H4.76731V7.32214H5.02109C6.36096 7.32214 7.44714 6.23596 7.44714 4.89608V3.17605C7.44714 1.83618 6.36096 0.75 5.02108 0.75H3.30105ZM2.08803 3.17605C2.08803 2.50612 2.63112 1.96303 3.30105 1.96303H5.02108C5.69102 1.96303 6.23411 2.50612 6.23411 3.17605V4.89608C6.23411 5.56602 5.69102 6.10911 5.02109 6.10911H3.30105C2.63112 6.10911 2.08803 5.56602 2.08803 4.89609V3.17605ZM11.0855 10.9612C10.4156 10.9612 9.87248 11.5043 9.87248 12.1743V13.8943C9.87248 14.5642 10.4156 15.1073 11.0855 15.1073H12.8055C13.4755 15.1073 14.0186 14.5642 14.0186 13.8943V12.1743C14.0186 11.5043 13.4755 10.9612 12.8055 10.9612H11.0855ZM9.87248 21.1724C9.87248 20.5025 10.4156 19.9594 11.0855 19.9594H12.8055C13.4755 19.9594 14.0186 20.5025 14.0186 21.1724V22.8925C14.0186 23.5624 13.4755 24.1055 12.8055 24.1055H11.0855C10.4156 24.1055 9.87248 23.5624 9.87248 22.8925V21.1724ZM9.52017 3.42954C9.1852 3.42954 8.91366 3.70108 8.91366 4.03605C8.91366 4.37102 9.1852 4.64256 9.52017 4.64256L26.1069 4.64256C26.4418 4.64256 26.7134 4.37102 26.7134 4.03605C26.7134 3.70108 26.4418 3.42954 26.1069 3.42954H9.52017ZM16.2076 13.0343C16.2076 12.6993 16.4791 12.4277 16.8141 12.4277L26.1072 12.4277C26.4422 12.4277 26.7138 12.6993 26.7138 13.0343C26.7138 13.3692 26.4422 13.6408 26.1072 13.6408L16.8141 13.6408C16.4791 13.6408 16.2076 13.3692 16.2076 13.0343ZM16.8141 21.426C16.4791 21.426 16.2076 21.6975 16.2076 22.0325C16.2076 22.3674 16.4791 22.639 16.8141 22.639H26.1072C26.4422 22.639 26.7138 22.3674 26.7138 22.0325C26.7138 21.6975 26.4422 21.426 26.1072 21.426L16.8141 21.426Z" fill="#474848"/>
</svg>
