<svg width="29" height="29" viewBox="0 0 29 29" fill="none" xmlns="http://www.w3.org/2000/svg">
<path d="M3.56592 23.2738V7.5238C3.56592 7.29174 3.65811 7.06918 3.8222 6.90509C3.98629 6.74099 4.20885 6.6488 4.44092 6.6488H10.2706C10.4598 6.64958 10.6438 6.71091 10.7956 6.8238L13.8362 9.0988C13.9881 9.2117 14.172 9.27303 14.3612 9.2738H21.9409C22.173 9.2738 22.3955 9.36599 22.5596 9.53009C22.7237 9.69418 22.8159 9.91674 22.8159 10.1488V12.7738" stroke="#474848" stroke-width="1.5" stroke-linecap="round" stroke-linejoin="round"/>
<path d="M3.56592 23.2738L6.84717 15.0707C6.91116 14.9085 7.02271 14.7695 7.16716 14.6719C7.31161 14.5743 7.48221 14.5227 7.65654 14.5238H12.9284C13.0989 14.522 13.2656 14.4728 13.4097 14.3816L15.5972 12.916C15.7413 12.8249 15.9079 12.7756 16.0784 12.7738H25.1019C25.2402 12.7738 25.3766 12.8066 25.4998 12.8695C25.6231 12.9324 25.7296 13.0237 25.8107 13.1358C25.8919 13.2478 25.9453 13.3776 25.9665 13.5143C25.9878 13.651 25.9763 13.7908 25.9331 13.9222L22.8159 23.2738H3.56592Z" stroke="#474848" stroke-width="1.5" stroke-linecap="round" stroke-linejoin="round"/>
</svg>
