<svg width="33" height="33" viewBox="0 0 33 33" fill="none" xmlns="http://www.w3.org/2000/svg">
<path d="M20 12V10.5H18.5C17.9696 10.5 17.4609 10.7107 17.0858 11.0858C16.7107 11.4609 16.5 11.9696 16.5 12.5V20.5C16.5 21.0304 16.7107 21.5391 17.0858 21.9142C17.4609 22.2893 17.9696 22.5 18.5 22.5H20V21C20 20.4696 20.2107 19.9609 20.5858 19.5858C20.9609 19.2107 21.4696 19 22 19H27C27.5304 19 28.0391 19.2107 28.4142 19.5858C28.7893 19.9609 29 20.4696 29 21V26C29 26.5304 28.7893 27.0391 28.4142 27.4142C28.0391 27.7893 27.5304 28 27 28H22C21.4696 28 20.9609 27.7893 20.5858 27.4142C20.2107 27.0391 20 26.5304 20 26V24.5H18.5C17.4401 24.4967 16.4246 24.0742 15.6752 23.3248C14.9258 22.5754 14.5033 21.5599 14.5 20.5V17.5H11V18.5C11 19.0304 10.7893 19.5391 10.4142 19.9142C10.0391 20.2893 9.53043 20.5 9 20.5H5C4.46957 20.5 3.96086 20.2893 3.58579 19.9142C3.21071 19.5391 3 19.0304 3 18.5V14.5C3 13.9696 3.21071 13.4609 3.58579 13.0858C3.96086 12.7107 4.46957 12.5 5 12.5H9C9.53043 12.5 10.0391 12.7107 10.4142 13.0858C10.7893 13.4609 11 13.9696 11 14.5V15.5H14.5V12.5C14.5033 11.4401 14.9258 10.4246 15.6752 9.67521C16.4246 8.92578 17.4401 8.5033 18.5 8.5H20V7C20 6.46957 20.2107 5.96086 20.5858 5.58579C20.9609 5.21071 21.4696 5 22 5H27C27.5304 5 28.0391 5.21071 28.4142 5.58579C28.7893 5.96086 29 6.46957 29 7V12C29 12.5304 28.7893 13.0391 28.4142 13.4142C28.0391 13.7893 27.5304 14 27 14H22C21.4696 14 20.9609 13.7893 20.5858 13.4142C20.2107 13.0391 20 12.5304 20 12Z" fill="#FFEFB0"/>
</svg>
