<svg width="20" height="23" viewBox="0 0 20 23" fill="none" xmlns="http://www.w3.org/2000/svg">
<path d="M15.25 3.57971H4.75C4.57595 3.57971 4.40903 3.64885 4.28596 3.77192C4.16289 3.89499 4.09375 4.06191 4.09375 4.23596V9.48596C4.09375 9.66001 4.16289 9.82693 4.28596 9.95C4.40903 10.0731 4.57595 10.1422 4.75 10.1422H15.25C15.424 10.1422 15.591 10.0731 15.714 9.95C15.8371 9.82693 15.9062 9.66001 15.9062 9.48596V4.23596C15.9062 4.06191 15.8371 3.89499 15.714 3.77192C15.591 3.64885 15.424 3.57971 15.25 3.57971ZM14.5938 8.82971H5.40625V4.89221H14.5938V8.82971ZM17.875 0.0797119H2.125C1.71889 0.0797119 1.32941 0.24104 1.04224 0.528205C0.755078 0.81537 0.59375 1.20485 0.59375 1.61096V20.861C0.59375 21.2671 0.755078 21.6566 1.04224 21.9437C1.32941 22.2309 1.71889 22.3922 2.125 22.3922H17.875C18.2811 22.3922 18.6706 22.2309 18.9578 21.9437C19.2449 21.6566 19.4062 21.2671 19.4062 20.861V1.61096C19.4062 1.20485 19.2449 0.81537 18.9578 0.528205C18.6706 0.24104 18.2811 0.0797119 17.875 0.0797119ZM18.0938 20.861C18.0938 20.919 18.0707 20.9746 18.0297 21.0156C17.9887 21.0567 17.933 21.0797 17.875 21.0797H2.125C2.06698 21.0797 2.01134 21.0567 1.97032 21.0156C1.9293 20.9746 1.90625 20.919 1.90625 20.861V1.61096C1.90625 1.55295 1.9293 1.49731 1.97032 1.45628C2.01134 1.41526 2.06698 1.39221 2.125 1.39221H17.875C17.933 1.39221 17.9887 1.41526 18.0297 1.45628C18.0707 1.49731 18.0938 1.55295 18.0938 1.61096V20.861ZM6.71875 13.4235C6.71875 13.6398 6.6546 13.8513 6.53442 14.0311C6.41424 14.211 6.24342 14.3512 6.04356 14.434C5.8437 14.5167 5.62379 14.5384 5.41162 14.4962C5.19945 14.454 5.00457 14.3498 4.8516 14.1969C4.69864 14.0439 4.59447 13.849 4.55227 13.6368C4.51006 13.4247 4.53172 13.2048 4.61451 13.0049C4.69729 12.805 4.83748 12.6342 5.01734 12.514C5.19721 12.3939 5.40868 12.3297 5.625 12.3297C5.91508 12.3297 6.19328 12.4449 6.3984 12.6501C6.60352 12.8552 6.71875 13.1334 6.71875 13.4235ZM11.0938 13.4235C11.0938 13.6398 11.0296 13.8513 10.9094 14.0311C10.7892 14.211 10.6184 14.3512 10.4186 14.434C10.2187 14.5167 9.99879 14.5384 9.78662 14.4962C9.57445 14.454 9.37957 14.3498 9.2266 14.1969C9.07364 14.0439 8.96947 13.849 8.92727 13.6368C8.88506 13.4247 8.90672 13.2048 8.98951 13.0049C9.07229 12.805 9.21248 12.6342 9.39235 12.514C9.57221 12.3939 9.78368 12.3297 10 12.3297C10.2901 12.3297 10.5683 12.4449 10.7734 12.6501C10.9785 12.8552 11.0938 13.1334 11.0938 13.4235ZM15.4688 13.4235C15.4688 13.6398 15.4046 13.8513 15.2844 14.0311C15.1642 14.211 14.9934 14.3512 14.7936 14.434C14.5937 14.5167 14.3738 14.5384 14.1616 14.4962C13.9495 14.454 13.7546 14.3498 13.6016 14.1969C13.4486 14.0439 13.3445 13.849 13.3023 13.6368C13.2601 13.4247 13.2817 13.2048 13.3645 13.0049C13.4473 12.805 13.5875 12.6342 13.7673 12.514C13.9472 12.3939 14.1587 12.3297 14.375 12.3297C14.6651 12.3297 14.9433 12.4449 15.1484 12.6501C15.3535 12.8552 15.4688 13.1334 15.4688 13.4235ZM6.71875 17.7985C6.71875 18.0148 6.6546 18.2263 6.53442 18.4061C6.41424 18.586 6.24342 18.7262 6.04356 18.809C5.8437 18.8917 5.62379 18.9134 5.41162 18.8712C5.19945 18.829 5.00457 18.7248 4.8516 18.5719C4.69864 18.4189 4.59447 18.224 4.55227 18.0118C4.51006 17.7997 4.53172 17.5798 4.61451 17.3799C4.69729 17.18 4.83748 17.0092 5.01734 16.889C5.19721 16.7689 5.40868 16.7047 5.625 16.7047C5.91508 16.7047 6.19328 16.8199 6.3984 17.0251C6.60352 17.2302 6.71875 17.5084 6.71875 17.7985ZM11.0938 17.7985C11.0938 18.0148 11.0296 18.2263 10.9094 18.4061C10.7892 18.586 10.6184 18.7262 10.4186 18.809C10.2187 18.8917 9.99879 18.9134 9.78662 18.8712C9.57445 18.829 9.37957 18.7248 9.2266 18.5719C9.07364 18.4189 8.96947 18.224 8.92727 18.0118C8.88506 17.7997 8.90672 17.5798 8.98951 17.3799C9.07229 17.18 9.21248 17.0092 9.39235 16.889C9.57221 16.7689 9.78368 16.7047 10 16.7047C10.2901 16.7047 10.5683 16.8199 10.7734 17.0251C10.9785 17.2302 11.0938 17.5084 11.0938 17.7985ZM15.4688 17.7985C15.4688 18.0148 15.4046 18.2263 15.2844 18.4061C15.1642 18.586 14.9934 18.7262 14.7936 18.809C14.5937 18.8917 14.3738 18.9134 14.1616 18.8712C13.9495 18.829 13.7546 18.7248 13.6016 18.5719C13.4486 18.4189 13.3445 18.224 13.3023 18.0118C13.2601 17.7997 13.2817 17.5798 13.3645 17.3799C13.4473 17.18 13.5875 17.0092 13.7673 16.889C13.9472 16.7689 14.1587 16.7047 14.375 16.7047C14.6651 16.7047 14.9433 16.8199 15.1484 17.0251C15.3535 17.2302 15.4688 17.5084 15.4688 17.7985Z" fill="black"/>
</svg>
