<svg width="32" height="33" viewBox="0 0 32 33" fill="none" xmlns="http://www.w3.org/2000/svg">
<path d="M19 26.9885V20.9885C19 20.7233 18.8946 20.469 18.7071 20.2814C18.5196 20.0939 18.2652 19.9885 18 19.9885H14C13.7348 19.9885 13.4804 20.0939 13.2929 20.2814C13.1054 20.469 13 20.7233 13 20.9885V26.9885C13 27.2538 12.8946 27.5081 12.7071 27.6957C12.5196 27.8832 12.2652 27.9885 12 27.9885H6C5.73478 27.9885 5.48043 27.8832 5.29289 27.6957C5.10536 27.5081 5 27.2538 5 26.9885V15.426C5.00224 15.2877 5.03215 15.1511 5.08796 15.0245C5.14378 14.8978 5.22437 14.7836 5.325 14.6885L15.325 5.60105C15.5093 5.4324 15.7501 5.33887 16 5.33887C16.2499 5.33887 16.4907 5.4324 16.675 5.60105L26.675 14.6885C26.7756 14.7836 26.8562 14.8978 26.912 15.0245C26.9679 15.1511 26.9978 15.2877 27 15.426V26.9885C27 27.2538 26.8946 27.5081 26.7071 27.6957C26.5196 27.8832 26.2652 27.9885 26 27.9885H20C19.7348 27.9885 19.4804 27.8832 19.2929 27.6957C19.1054 27.5081 19 27.2538 19 26.9885Z" stroke="#00358A" stroke-width="1.5" stroke-linecap="round" stroke-linejoin="round"/>
</svg>
