<svg width="512" height="384" viewBox="0 0 512 384" fill="none" xmlns="http://www.w3.org/2000/svg">
<path d="M324.4 0C339.6 0 352 12.37 352 27.63C352 34.32 349.6 40.8 345.2 45.8L240 166V359.6C240 373.1 229.1 384 215.6 384C210.3 384 205.2 382.3 200.9 379.1L124.7 321.6C116.7 315.5 112 306.1 112 296V166L6.836 45.8C2.429 40.8 0 34.32 0 27.63C0 12.37 12.37 0 27.63 0H324.4ZM144 160V296L208 344.3V159.1C208 156.1 209.4 152.4 211.1 149.5L314.7 31.1H37.26L140 149.5C142.6 152.4 143.1 156.1 143.1 159.1L144 160ZM496 336C504.8 336 512 343.2 512 352C512 360.8 504.8 368 496 368H336C327.2 368 320 360.8 320 352C320 343.2 327.2 336 336 336H496ZM320 192C320 183.2 327.2 176 336 176H496C504.8 176 512 183.2 512 192C512 200.8 504.8 208 496 208H336C327.2 208 320 200.8 320 192ZM496 16C504.8 16 512 23.16 512 32C512 40.8 504.8 48 496 48H400C391.2 48 384 40.8 384 32C384 23.16 391.2 16 400 16H496Z" fill="white"/>
</svg>
