<svg width="33" height="32" viewBox="0 0 33 32" fill="none" xmlns="http://www.w3.org/2000/svg">
<path fill-rule="evenodd" clip-rule="evenodd" d="M4.31 3.01C3.83 3.01 3.37 3.2 3.03 3.54C2.69 3.88 2.5 4.34 2.5 4.82V20.82C2.5 21.3 2.69 21.76 3.03 22.1C3.37 22.44 3.83 22.63 4.31 22.63H12.5V27.02H9.31C8.87 27.02 8.5 27.38 8.5 27.83C8.5 28.28 8.86 28.64 9.31 28.64H23.31C23.75 28.64 24.12 28.28 24.12 27.83C24.12 27.38 23.76 27.02 23.31 27.02H20.12V22.63H28.31C28.79 22.63 29.25 22.44 29.59 22.1C29.93 21.76 30.12 21.3 30.12 20.82V15.82C30.12 15.38 29.76 15.01 29.31 15.01C28.86 15.01 28.5 15.37 28.5 15.82V20.6C28.5 20.83 28.31 21.02 28.08 21.02H4.53C4.3 21.02 4.11 20.83 4.11 20.6V5.04C4.11 4.81 4.3 4.62 4.53 4.62H10.31C10.75 4.62 11.12 4.26 11.12 3.81C11.12 3.36 10.76 3 10.31 3H4.31V3.01ZM14.11 27.01V22.62H18.5V27.01H14.11Z" fill="#00358A"/>
<path d="M30.11 9.79C30.11 10.24 29.75 10.6 29.31 10.6L24.31 10.62C24.14 10.62 23.97 10.57 23.84 10.47C23.7 10.37 23.6 10.23 23.54 10.07L22.33 6.45L19.1 17.07C19.05 17.23 18.95 17.38 18.81 17.48C18.67 17.58 18.51 17.64 18.33 17.64H18.32C18.15 17.64 17.98 17.58 17.84 17.48C17.71 17.37 17.61 17.23 17.56 17.06L15.7 10.65H12.31C11.86 10.66 11.5 10.3 11.5 9.86C11.5 9.42 11.86 9.05 12.3 9.05H16.3C16.48 9.05 16.65 9.09 16.79 9.2C16.93 9.3 17.03 9.45 17.08 9.62L18.35 14L21.51 3.59C21.57 3.42 21.67 3.28 21.81 3.18C21.94 3.07 22.11 3.02 22.28 3.01C22.45 3.01 22.61 3.06 22.75 3.16C22.88 3.26 22.99 3.4 23.04 3.56L24.87 9.01L29.29 8.99C29.74 8.99 30.1 9.35 30.1 9.79H30.11Z" fill="#00358A"/>
</svg>
