<svg width="33" height="32" viewBox="0 0 33 32" fill="none" xmlns="http://www.w3.org/2000/svg">
<path d="M16.5 22C19.8137 22 22.5 19.3137 22.5 16C22.5 12.6863 19.8137 10 16.5 10C13.1863 10 10.5 12.6863 10.5 16C10.5 19.3137 13.1863 22 16.5 22Z" stroke="#00358A" stroke-width="1.5" stroke-linecap="round" stroke-linejoin="round"/>
<path d="M25.175 10.0873C25.476 10.5181 25.7394 10.974 25.9625 11.4498L29.2 13.2498C29.6043 15.0604 29.6086 16.9374 29.2125 18.7498L25.9625 20.5498C25.7394 21.0256 25.476 21.4815 25.175 21.9123L25.2375 25.6248C23.8655 26.8751 22.2416 27.8171 20.475 28.3873L17.2875 26.4748C16.7632 26.5123 16.2369 26.5123 15.7125 26.4748L12.5375 28.3748C10.7654 27.8149 9.13615 26.8766 7.76254 25.6248L7.82504 21.9248C7.52662 21.488 7.2633 21.0282 7.03754 20.5498L3.80004 18.7498C3.39578 16.9392 3.39152 15.0622 3.78754 13.2498L7.03754 11.4498C7.26064 10.974 7.5241 10.5181 7.82504 10.0873L7.76254 6.3748C9.1346 5.12451 10.7585 4.18256 12.525 3.6123L15.7125 5.5248C16.2369 5.4873 16.7632 5.4873 17.2875 5.5248L20.4625 3.6248C22.2347 4.18467 23.8639 5.123 25.2375 6.3748L25.175 10.0873Z" stroke="#00358A" stroke-width="1.5" stroke-linecap="round" stroke-linejoin="round"/>
</svg>
