<svg width="16" height="16" viewBox="0 0 16 16" fill="none" xmlns="http://www.w3.org/2000/svg">
<path d="M10.5481 6.04812L8.59625 8L10.5481 9.95187C10.5896 9.9905 10.6228 10.0371 10.6459 10.0888C10.6689 10.1406 10.6813 10.1964 10.6823 10.2531C10.6833 10.3097 10.6729 10.366 10.6517 10.4185C10.6305 10.4711 10.5989 10.5188 10.5588 10.5588C10.5188 10.5989 10.4711 10.6305 10.4185 10.6517C10.366 10.6729 10.3097 10.6833 10.2531 10.6823C10.1964 10.6813 10.1406 10.6689 10.0888 10.6459C10.0371 10.6228 9.9905 10.5896 9.95187 10.5481L8 8.59625L6.04812 10.5481C5.96815 10.6226 5.86238 10.6632 5.75308 10.6613C5.64379 10.6594 5.53951 10.6151 5.46221 10.5378C5.38492 10.4605 5.34064 10.3562 5.33871 10.2469C5.33679 10.1376 5.37736 10.0318 5.45188 9.95187L7.40375 8L5.45188 6.04812C5.37736 5.96815 5.33679 5.86238 5.33871 5.75308C5.34064 5.64379 5.38492 5.53951 5.46221 5.46221C5.53951 5.38492 5.64379 5.34064 5.75308 5.33871C5.86238 5.33679 5.96815 5.37736 6.04812 5.45188L8 7.40375L9.95187 5.45188C10.0318 5.37736 10.1376 5.33679 10.2469 5.33871C10.3562 5.34064 10.4605 5.38492 10.5378 5.46221C10.6151 5.53951 10.6594 5.64379 10.6613 5.75308C10.6632 5.86238 10.6226 5.96815 10.5481 6.04812ZM15.1719 8C15.1719 9.41846 14.7513 10.8051 13.9632 11.9845C13.1751 13.1639 12.055 14.0831 10.7446 14.6259C9.43407 15.1688 7.99204 15.3108 6.60084 15.0341C5.20963 14.7573 3.93172 14.0743 2.92872 13.0713C1.92571 12.0683 1.24266 10.7904 0.965931 9.39916C0.689202 8.00796 0.831229 6.56593 1.37405 5.25544C1.91687 3.94495 2.83611 2.82486 4.01552 2.0368C5.19493 1.24875 6.58154 0.828125 8 0.828125C9.90141 0.830358 11.7243 1.58668 13.0688 2.93119C14.4133 4.27569 15.1696 6.09859 15.1719 8ZM14.3281 8C14.3281 6.74842 13.957 5.52494 13.2616 4.48428C12.5663 3.44363 11.578 2.63254 10.4217 2.15357C9.26536 1.67461 7.99298 1.5493 6.76544 1.79347C5.53791 2.03764 4.41034 2.64034 3.52534 3.52534C2.64034 4.41034 2.03764 5.53791 1.79347 6.76544C1.5493 7.99298 1.67461 9.26536 2.15357 10.4217C2.63254 11.578 3.44363 12.5663 4.48428 13.2616C5.52494 13.957 6.74842 14.3281 8 14.3281C9.67775 14.3263 11.2863 13.659 12.4726 12.4726C13.659 11.2863 14.3263 9.67775 14.3281 8Z" fill="#969696"/>
</svg>
