<svg width="33" height="33" viewBox="0 0 33 33" fill="none" xmlns="http://www.w3.org/2000/svg">
<path d="M16.4999 10C17.5877 10 18.6511 10.3226 19.5555 10.9269C20.46 11.5313 21.1649 12.3902 21.5812 13.3952C21.9975 14.4002 22.1064 15.5061 21.8942 16.573C21.682 17.6399 21.1582 18.6199 20.389 19.3891C19.6198 20.1583 18.6398 20.6821 17.5729 20.8943C16.506 21.1065 15.4001 20.9976 14.3951 20.5813C13.3901 20.1651 12.5312 19.4601 11.9268 18.5556C11.3225 17.6512 10.9999 16.5878 10.9999 15.5C10.9999 14.0413 11.5793 12.6424 12.6108 11.6109C13.6422 10.5795 15.0412 10 16.4999 10ZM29.3999 9.75C29.3114 9.90334 29.1837 10.0304 29.03 10.1183C28.8762 10.2061 28.7019 10.2516 28.5249 10.25C28.3487 10.2514 28.1756 10.2038 28.0249 10.1125L27.4499 9.775C27.1697 10.0152 26.8477 10.2017 26.4999 10.325V11C26.4999 11.2652 26.3945 11.5196 26.207 11.7071C26.0195 11.8946 25.7651 12 25.4999 12C25.2347 12 24.9803 11.8946 24.7928 11.7071C24.6052 11.5196 24.4999 11.2652 24.4999 11V10.325C24.1521 10.2017 23.83 10.0152 23.5499 9.775L22.9749 10.1125C22.8242 10.2038 22.6511 10.2514 22.4749 10.25C22.2559 10.2487 22.0433 10.1755 21.8699 10.0417C21.6966 9.90786 21.5719 9.72083 21.5151 9.50929C21.4583 9.29776 21.4726 9.07344 21.5556 8.87078C21.6387 8.66812 21.786 8.49833 21.9749 8.3875L22.5499 8.05C22.5141 7.86891 22.4974 7.68457 22.4999 7.5C22.4974 7.31543 22.5141 7.13109 22.5499 6.95L21.9749 6.6125C21.8596 6.54882 21.7583 6.46273 21.6768 6.3593C21.5953 6.25587 21.5354 6.13718 21.5004 6.01023C21.4655 5.88328 21.4563 5.75063 21.4734 5.62007C21.4904 5.48951 21.5335 5.36369 21.5999 5.25C21.7355 5.02101 21.9557 4.85459 22.213 4.78675C22.4704 4.71891 22.744 4.75511 22.9749 4.8875L23.5499 5.225C23.83 4.9848 24.1521 4.79834 24.4999 4.675V4C24.4999 3.73478 24.6052 3.48043 24.7928 3.29289C24.9803 3.10536 25.2347 3 25.4999 3C25.7651 3 26.0195 3.10536 26.207 3.29289C26.3945 3.48043 26.4999 3.73478 26.4999 4V4.675C26.8477 4.79834 27.1697 4.9848 27.4499 5.225L28.0249 4.8875C28.2557 4.75511 28.5294 4.71891 28.7867 4.78675C29.0441 4.85459 29.2643 5.02101 29.3999 5.25C29.4663 5.36369 29.5093 5.48951 29.5264 5.62007C29.5435 5.75063 29.5343 5.88328 29.4994 6.01023C29.4644 6.13718 29.4044 6.25587 29.323 6.3593C29.2415 6.46273 29.1401 6.54882 29.0249 6.6125L28.4499 6.95C28.4857 7.13109 28.5024 7.31543 28.4999 7.5C28.5024 7.68457 28.4857 7.86891 28.4499 8.05L29.0249 8.3875C29.1401 8.45118 29.2415 8.53727 29.323 8.6407C29.4044 8.74413 29.4644 8.86282 29.4994 8.98977C29.5343 9.11672 29.5435 9.24937 29.5264 9.37993C29.5093 9.51049 29.4663 9.63631 29.3999 9.75ZM25.4999 8.5C25.6977 8.5 25.891 8.44135 26.0555 8.33147C26.2199 8.22159 26.3481 8.06541 26.4238 7.88268C26.4995 7.69996 26.5193 7.49889 26.4807 7.30491C26.4421 7.11093 26.3468 6.93275 26.207 6.79289C26.0671 6.65304 25.889 6.5578 25.695 6.51921C25.501 6.48063 25.2999 6.50043 25.1172 6.57612C24.9345 6.65181 24.7783 6.77998 24.6684 6.94443C24.5585 7.10888 24.4999 7.30222 24.4999 7.5C24.4999 7.76522 24.6052 8.01957 24.7928 8.20711C24.9803 8.39464 25.2347 8.5 25.4999 8.5ZM28.2999 14.075C28.0387 14.1064 27.8003 14.2394 27.6365 14.4453C27.4727 14.6512 27.3967 14.9134 27.4249 15.175C27.4748 15.6149 27.4998 16.0573 27.4999 16.5C27.5036 19.1917 26.5157 21.7904 24.7249 23.8C23.9154 22.6388 22.8723 21.6596 21.6624 20.925C20.2732 22.2559 18.4237 22.9989 16.4999 22.9989C14.5761 22.9989 12.7266 22.2559 11.3374 20.925C10.1275 21.6596 9.08436 22.6388 8.27489 23.8C6.8684 22.2146 5.94985 20.2566 5.62971 18.1616C5.30958 16.0666 5.60147 13.9236 6.47031 11.9905C7.33914 10.0575 8.74791 8.41652 10.5272 7.26507C12.3065 6.11362 14.3805 5.5007 16.4999 5.5C16.8422 5.49794 17.1844 5.51463 17.5249 5.55C17.6562 5.56149 17.7885 5.547 17.9142 5.50736C18.04 5.46773 18.1566 5.40371 18.2576 5.31898C18.3586 5.23425 18.4419 5.13045 18.5028 5.01352C18.5637 4.89659 18.6009 4.76882 18.6124 4.6375C18.6239 4.50618 18.6094 4.37388 18.5698 4.24816C18.5301 4.12243 18.4661 4.00575 18.3814 3.90477C18.2966 3.80378 18.1928 3.72048 18.0759 3.65961C17.959 3.59873 17.8312 3.56149 17.6999 3.55C17.3124 3.5125 16.8999 3.5 16.4999 3.5C13.8804 3.50091 11.3223 4.29313 9.16083 5.77284C6.99934 7.25255 5.33527 9.35072 4.3867 11.7924C3.43813 14.2341 3.24931 16.9054 3.84498 19.4562C4.44066 22.0071 5.79303 24.3185 7.72489 26.0875L7.88739 26.2375C10.264 28.3394 13.3272 29.4997 16.4999 29.4997C19.6726 29.4997 22.7358 28.3394 25.1124 26.2375L25.2749 26.0875C26.6075 24.8714 27.6717 23.3906 28.3992 21.7396C29.1267 20.0887 29.5016 18.3041 29.4999 16.5C29.5023 15.982 29.473 15.4644 29.4124 14.95C29.3969 14.8195 29.3558 14.6932 29.2915 14.5786C29.2272 14.4639 29.1409 14.3631 29.0376 14.2818C28.9342 14.2006 28.8159 14.1405 28.6893 14.105C28.5627 14.0695 28.4304 14.0593 28.2999 14.075Z" fill="#FFEFB0"/>
</svg>
