<svg width="512" height="448" viewBox="0 0 512 448" fill="none" xmlns="http://www.w3.org/2000/svg">
<path d="M488 400H48V24C48 10.74 37.25 0 24 0C10.75 0 0 10.74 0 24V416C0 433.6 14.4 448 32 448H488C501.25 448 512 437.25 512 424C512 410.7 501.3 400 488 400ZM168 320C181.3 320 192 309.3 192 296V248C192 234.8 181.3 224 168 224C154.7 224 144 234.8 144 248V296C144 309.3 154.8 320 168 320ZM264 320C277.25 320 288 309.25 288 296V120C288 106.8 277.3 96 264 96C250.7 96 240 106.8 240 120V296C240 309.3 250.8 320 264 320ZM360 320C373.25 320 384 309.25 384 296V184C384 170.8 373.3 160 360 160C346.7 160 336 170.8 336 184V296C336 309.3 346.8 320 360 320ZM456 320C469.25 320 480 309.25 480 296V88C480 74.8 469.3 64 456 64C442.7 64 432 74.8 432 88V296C432 309.3 442.8 320 456 320Z" fill="white"/>
</svg>
