<svg width="22" height="23" viewBox="0 0 22 23" fill="none" xmlns="http://www.w3.org/2000/svg">
<g clip-path="url(#clip0_1_2406)">
<path d="M20.625 3.70471H16.0312V2.61096C16.0312 1.97278 15.7777 1.36075 15.3265 0.909486C14.8752 0.458227 14.2632 0.204712 13.625 0.204712H8.375C7.73682 0.204712 7.12478 0.458227 6.67352 0.909486C6.22226 1.36075 5.96875 1.97278 5.96875 2.61096V3.70471H1.375C1.20095 3.70471 1.03403 3.77385 0.910961 3.89692C0.78789 4.01999 0.71875 4.18691 0.71875 4.36096C0.71875 4.53501 0.78789 4.70193 0.910961 4.825C1.03403 4.94807 1.20095 5.01721 1.375 5.01721H2.46875V20.986C2.46875 21.3921 2.63008 21.7816 2.91724 22.0687C3.20441 22.3559 3.59389 22.5172 4 22.5172H18C18.4061 22.5172 18.7956 22.3559 19.0828 22.0687C19.3699 21.7816 19.5312 21.3921 19.5312 20.986V5.01721H20.625C20.799 5.01721 20.966 4.94807 21.089 4.825C21.2121 4.70193 21.2812 4.53501 21.2812 4.36096C21.2812 4.18691 21.2121 4.01999 21.089 3.89692C20.966 3.77385 20.799 3.70471 20.625 3.70471ZM7.28125 2.61096C7.28125 2.32088 7.39648 2.04268 7.6016 1.83756C7.80672 1.63245 8.08492 1.51721 8.375 1.51721H13.625C13.9151 1.51721 14.1933 1.63245 14.3984 1.83756C14.6035 2.04268 14.7188 2.32088 14.7188 2.61096V3.70471H7.28125V2.61096ZM18.2188 20.986C18.2188 21.044 18.1957 21.0996 18.1547 21.1406C18.1137 21.1817 18.058 21.2047 18 21.2047H4C3.94198 21.2047 3.88634 21.1817 3.84532 21.1406C3.8043 21.0996 3.78125 21.044 3.78125 20.986V5.01721H18.2188V20.986ZM9.03125 9.61096V16.611C9.03125 16.785 8.96211 16.9519 8.83904 17.075C8.71597 17.1981 8.54905 17.2672 8.375 17.2672C8.20095 17.2672 8.03403 17.1981 7.91096 17.075C7.78789 16.9519 7.71875 16.785 7.71875 16.611V9.61096C7.71875 9.43691 7.78789 9.26999 7.91096 9.14692C8.03403 9.02385 8.20095 8.95471 8.375 8.95471C8.54905 8.95471 8.71597 9.02385 8.83904 9.14692C8.96211 9.26999 9.03125 9.43691 9.03125 9.61096ZM14.2812 9.61096V16.611C14.2812 16.785 14.2121 16.9519 14.089 17.075C13.966 17.1981 13.799 17.2672 13.625 17.2672C13.451 17.2672 13.284 17.1981 13.161 17.075C13.0379 16.9519 12.9688 16.785 12.9688 16.611V9.61096C12.9688 9.43691 13.0379 9.26999 13.161 9.14692C13.284 9.02385 13.451 8.95471 13.625 8.95471C13.799 8.95471 13.966 9.02385 14.089 9.14692C14.2121 9.26999 14.2812 9.43691 14.2812 9.61096Z" fill="#474848"/>
</g>
<defs>
<clipPath id="clip0_1_2406">
<rect width="22" height="23" fill="white"/>
</clipPath>
</defs>
</svg>
