<svg width="29" height="29" viewBox="0 0 29 29" fill="none" xmlns="http://www.w3.org/2000/svg">
<path d="M23.6532 9.66125L17.5282 3.53625C17.4053 3.41314 17.2384 3.3439 17.0645 3.34375H6.56445C6.15834 3.34375 5.76886 3.50508 5.4817 3.79224C5.19453 4.07941 5.0332 4.46889 5.0332 4.875V24.125C5.0332 24.5311 5.19453 24.9206 5.4817 25.2078C5.76886 25.4949 6.15834 25.6562 6.56445 25.6562H22.3145C22.7206 25.6562 23.11 25.4949 23.3972 25.2078C23.6844 24.9206 23.8457 24.5311 23.8457 24.125V10.125C23.8456 9.95101 23.7763 9.7842 23.6532 9.66125ZM17.7207 5.58375L21.6057 9.46875H17.7207V5.58375ZM22.3145 24.3438H6.56445C6.50644 24.3438 6.4508 24.3207 6.40977 24.2797C6.36875 24.2387 6.3457 24.183 6.3457 24.125V4.875C6.3457 4.81698 6.36875 4.76134 6.40977 4.72032C6.4508 4.6793 6.50644 4.65625 6.56445 4.65625H16.4082V10.125C16.4082 10.299 16.4773 10.466 16.6004 10.589C16.7235 10.7121 16.8904 10.7812 17.0645 10.7812H22.5332V24.125C22.5332 24.183 22.5102 24.2387 22.4691 24.2797C22.4281 24.3207 22.3725 24.3438 22.3145 24.3438ZM17.5282 17.5362C17.6511 17.6593 17.7201 17.8261 17.7201 18C17.7201 18.1739 17.6511 18.3407 17.5282 18.4638L14.9032 21.0888C14.7802 21.2116 14.6134 21.2807 14.4395 21.2807C14.2655 21.2807 14.0988 21.2116 13.9757 21.0888L11.3507 18.4638C11.2348 18.3393 11.1717 18.1748 11.1747 18.0048C11.1777 17.8348 11.2465 17.6726 11.3668 17.5523C11.487 17.4321 11.6492 17.3632 11.8192 17.3602C11.9893 17.3572 12.1538 17.4203 12.2782 17.5362L13.7832 19.0402V13.625C13.7832 13.451 13.8523 13.284 13.9754 13.161C14.0985 13.0379 14.2654 12.9688 14.4395 12.9688C14.6135 12.9688 14.7804 13.0379 14.9035 13.161C15.0266 13.284 15.0957 13.451 15.0957 13.625V19.0402L16.6007 17.5362C16.7238 17.4134 16.8905 17.3443 17.0645 17.3443C17.2384 17.3443 17.4052 17.4134 17.5282 17.5362Z" fill="black"/>
</svg>
