<svg width="33" height="33" viewBox="0 0 33 33" fill="none" xmlns="http://www.w3.org/2000/svg">
<path d="M30.1874 13.5371C30.1564 13.3973 30.0957 13.2658 30.0094 13.1515C29.9232 13.0372 29.8133 12.9428 29.6874 12.8746L26.7124 11.2246C26.5541 10.8996 26.3791 10.5871 26.1874 10.2871L26.2374 6.88711C26.2386 6.7445 26.2103 6.60319 26.1544 6.472C26.0985 6.3408 26.0161 6.22255 25.9124 6.12461C24.4311 4.78157 22.6793 3.77141 20.7749 3.16211C20.6382 3.11947 20.4939 3.10633 20.3517 3.12357C20.2095 3.14081 20.0725 3.18803 19.9499 3.26211L17.0374 5.01211C16.6749 4.99961 16.3249 4.99961 15.9624 5.01211L13.0499 3.26211C12.9273 3.18803 12.7904 3.14081 12.6482 3.12357C12.5059 3.10633 12.3617 3.11947 12.2249 3.16211C10.318 3.77187 8.56547 4.78672 7.08743 6.13711C6.98286 6.23168 6.89975 6.34754 6.84369 6.47691C6.78763 6.60627 6.75992 6.74614 6.76243 6.88711L6.82493 10.2871C6.62493 10.5871 6.44993 10.8996 6.27493 11.2246L3.31243 12.8746C3.18494 12.9407 3.07387 13.0346 2.98735 13.1492C2.90083 13.2638 2.84107 13.3964 2.81243 13.5371C2.38739 15.4892 2.38739 17.51 2.81243 19.4621C2.84348 19.6019 2.90419 19.7334 2.99045 19.8477C3.07671 19.962 3.18652 20.0564 3.31243 20.1246L6.28743 21.7746C6.44691 22.098 6.62643 22.4111 6.82493 22.7121L6.76243 26.1121C6.76129 26.2547 6.78956 26.396 6.84548 26.5272C6.9014 26.6584 6.98376 26.7767 7.08743 26.8746C8.57077 28.2148 10.3219 29.2246 12.2249 29.8371C12.3617 29.8798 12.5059 29.8929 12.6482 29.8757C12.7904 29.8584 12.9273 29.8112 13.0499 29.7371L15.9624 27.9871H17.0374L19.9624 29.7371C20.1145 29.8371 20.293 29.8893 20.4749 29.8871C20.5766 29.8827 20.6773 29.8659 20.7749 29.8371C22.6819 29.2274 24.4344 28.2125 25.9124 26.8621C26.017 26.7675 26.1001 26.6517 26.1562 26.5223C26.2122 26.3929 26.2399 26.2531 26.2374 26.1121L26.1874 22.7121C26.3749 22.4121 26.5499 22.0996 26.7249 21.7746L29.6999 20.1246C29.824 20.0557 29.9318 19.9609 30.0159 19.8465C30.1001 19.7322 30.1586 19.6011 30.1874 19.4621C30.6125 17.51 30.6125 15.4892 30.1874 13.5371ZM21.9999 16.4996C21.9999 17.5874 21.6774 18.6508 21.073 19.5552C20.4687 20.4597 19.6097 21.1647 18.6047 21.5809C17.5997 21.9972 16.4938 22.1061 15.4269 21.8939C14.36 21.6817 13.38 21.1579 12.6108 20.3887C11.8417 19.6195 11.3178 18.6395 11.1056 17.5726C10.8934 16.5057 11.0023 15.3998 11.4186 14.3949C11.8349 13.3899 12.5398 12.5309 13.4443 11.9265C14.3488 11.3222 15.4121 10.9996 16.4999 10.9996C17.9586 10.9996 19.3576 11.5791 20.389 12.6105C21.4205 13.642 21.9999 15.0409 21.9999 16.4996Z" fill="#FFEFB0"/>
</svg>
