<svg width="18" height="19" viewBox="0 0 18 19" fill="none" xmlns="http://www.w3.org/2000/svg">
<path d="M14.0625 7.73596C14.0625 7.88515 14.0032 8.02822 13.8977 8.13371C13.7923 8.2392 13.6492 8.29846 13.5 8.29846H7.5C7.35082 8.29846 7.20774 8.2392 7.10225 8.13371C6.99676 8.02822 6.9375 7.88515 6.9375 7.73596C6.9375 7.58678 6.99676 7.4437 7.10225 7.33821C7.20774 7.23273 7.35082 7.17346 7.5 7.17346H13.5C13.6492 7.17346 13.7923 7.23273 13.8977 7.33821C14.0032 7.4437 14.0625 7.58678 14.0625 7.73596ZM13.5 10.1735H7.5C7.35082 10.1735 7.20774 10.2327 7.10225 10.3382C6.99676 10.4437 6.9375 10.5868 6.9375 10.736C6.9375 10.8851 6.99676 11.0282 7.10225 11.1337C7.20774 11.2392 7.35082 11.2985 7.5 11.2985H13.5C13.6492 11.2985 13.7923 11.2392 13.8977 11.1337C14.0032 11.0282 14.0625 10.8851 14.0625 10.736C14.0625 10.5868 14.0032 10.4437 13.8977 10.3382C13.7923 10.2327 13.6492 10.1735 13.5 10.1735ZM17.8125 1.73596V16.736C17.8125 17.0841 17.6742 17.4179 17.4281 17.664C17.1819 17.9102 16.8481 18.0485 16.5 18.0485H1.5C1.1519 18.0485 0.818064 17.9102 0.571922 17.664C0.325781 17.4179 0.1875 17.0841 0.1875 16.736V1.73596C0.1875 1.38787 0.325781 1.05403 0.571922 0.807884C0.818064 0.561743 1.1519 0.423462 1.5 0.423462H16.5C16.8481 0.423462 17.1819 0.561743 17.4281 0.807884C17.6742 1.05403 17.8125 1.38787 17.8125 1.73596ZM1.5 16.9235H3.9375V1.54846H1.5C1.45027 1.54846 1.40258 1.56822 1.36742 1.60338C1.33225 1.63854 1.3125 1.68623 1.3125 1.73596V16.736C1.3125 16.7857 1.33225 16.8334 1.36742 16.8685C1.40258 16.9037 1.45027 16.9235 1.5 16.9235ZM16.6875 1.73596C16.6875 1.68623 16.6677 1.63854 16.6326 1.60338C16.5974 1.56822 16.5497 1.54846 16.5 1.54846H5.0625V16.9235H16.5C16.5497 16.9235 16.5974 16.9037 16.6326 16.8685C16.6677 16.8334 16.6875 16.7857 16.6875 16.736V1.73596Z" fill="#00358A"/>
</svg>
