<svg width="542" height="512" viewBox="0 0 542 512" fill="none" xmlns="http://www.w3.org/2000/svg">
<path d="M272 240V16.58C272 7.555 278.1 0 288 0C411.7 0 512 100.3 512 224C512 233 504.4 240 495.4 240H272ZM461.1 192C447.1 120.5 391.5 64.04 320 50.9V192H461.1ZM224 49.61V288L380.5 444.5C387.2 451.2 386.7 462.2 379 467.7C339.8 495.6 291.8 512 240 512C107.5 512 0 404.6 0 272C0 150.7 90.1 50.34 206.1 34.25C216.2 32.99 224 40.36 224 49.61ZM176 307.9V90.91C101.4 117.3 48 188.4 48 272C48 378 133.1 464 240 464C267.2 464 292.1 458.4 316.4 448.2L176 307.9ZM526.4 288C535.6 288 543 295.8 541.8 305C534.1 360.9 507.1 410.6 467.9 447.3C461.9 452.1 452.5 452.5 446.7 446.7L288 288H526.4Z" fill="#474848"/>
</svg>
