<svg width="33" height="32" viewBox="0 0 33 32" fill="none" xmlns="http://www.w3.org/2000/svg">
<path d="M9.5 12.5H4.5C3.94772 12.5 3.5 12.9477 3.5 13.5V18.5C3.5 19.0523 3.94772 19.5 4.5 19.5H9.5C10.0523 19.5 10.5 19.0523 10.5 18.5V13.5C10.5 12.9477 10.0523 12.5 9.5 12.5Z" stroke="#00358A" stroke-width="1.5" stroke-linecap="round" stroke-linejoin="round"/>
<path d="M27.5 5H21.5C20.9477 5 20.5 5.44772 20.5 6V12C20.5 12.5523 20.9477 13 21.5 13H27.5C28.0523 13 28.5 12.5523 28.5 12V6C28.5 5.44772 28.0523 5 27.5 5Z" stroke="#00358A" stroke-width="1.5" stroke-linecap="round" stroke-linejoin="round"/>
<path d="M27.5 19H21.5C20.9477 19 20.5 19.4477 20.5 20V26C20.5 26.5523 20.9477 27 21.5 27H27.5C28.0523 27 28.5 26.5523 28.5 26V20C28.5 19.4477 28.0523 19 27.5 19Z" stroke="#00358A" stroke-width="1.5" stroke-linecap="round" stroke-linejoin="round"/>
<path d="M10.5 16H15.5" stroke="#00358A" stroke-width="1.5" stroke-linecap="round" stroke-linejoin="round"/>
<path d="M20.5 23H18.5C18.1056 23.0017 17.7147 22.9252 17.35 22.775C16.9853 22.6249 16.6539 22.4039 16.375 22.125C16.0961 21.8461 15.8752 21.5148 15.725 21.15C15.5748 20.7853 15.4984 20.3945 15.5 20V12C15.4984 11.6056 15.5748 11.2147 15.725 10.85C15.8752 10.4853 16.0961 10.1539 16.375 9.87502C16.6539 9.59611 16.9853 9.3752 17.35 9.22502C17.7147 9.07484 18.1056 8.99837 18.5 9.00003H20.5" stroke="#00358A" stroke-width="1.5" stroke-linecap="round" stroke-linejoin="round"/>
</svg>
