<svg width="50" height="52" viewBox="0 0 50 52" fill="none" xmlns="http://www.w3.org/2000/svg">
<path d="M40.1086 37.1094C37.3913 32.4137 33.1253 29.1189 28.1684 27.7216C30.5784 26.4965 32.5055 24.4955 33.6391 22.0412C34.7726 19.5869 35.0466 16.8224 34.4167 14.1934C33.7869 11.5643 32.2899 9.22405 30.1673 7.54987C28.0446 5.87569 25.42 4.96519 22.7166 4.96519C20.0131 4.96519 17.3885 5.87569 15.2658 7.54987C13.1432 9.22405 11.6463 11.5643 11.0164 14.1934C10.3866 16.8224 10.6605 19.5869 11.7941 22.0412C12.9276 24.4955 14.8548 26.4965 17.2647 27.7216C12.3078 29.1172 8.04188 32.412 5.32454 37.1094C5.24992 37.2267 5.19982 37.358 5.17725 37.4952C5.15467 37.6325 5.1601 37.7729 5.19318 37.908C5.22627 38.043 5.28635 38.17 5.36979 38.2813C5.45324 38.3926 5.55833 38.4858 5.67874 38.5554C5.79916 38.625 5.9324 38.6696 6.07047 38.6863C6.20854 38.7031 6.34858 38.6918 6.48215 38.653C6.61573 38.6143 6.74009 38.5489 6.84774 38.4608C6.9554 38.3728 7.04413 38.2639 7.1086 38.1406C10.4103 32.4361 16.2438 29.0312 22.7166 29.0312C29.1894 29.0312 35.0228 32.4361 38.3245 38.1406C38.389 38.2639 38.4777 38.3728 38.5854 38.4608C38.6931 38.5489 38.8174 38.6143 38.951 38.653C39.0846 38.6918 39.2246 38.7031 39.3627 38.6863C39.5007 38.6696 39.634 38.625 39.7544 38.5554C39.8748 38.4858 39.9799 38.3926 40.0633 38.2813C40.1468 38.17 40.2069 38.043 40.24 37.908C40.273 37.7729 40.2785 37.6325 40.2559 37.4952C40.2333 37.358 40.1832 37.2267 40.1086 37.1094ZM12.7478 17C12.7478 15.0284 13.3325 13.101 14.4279 11.4617C15.5232 9.8223 17.0801 8.54458 18.9017 7.79007C20.7232 7.03556 22.7276 6.83814 24.6614 7.22279C26.5951 7.60744 28.3714 8.55687 29.7655 9.95102C31.1597 11.3452 32.1091 13.1214 32.4938 15.0552C32.8784 16.9889 32.681 18.9933 31.9265 20.8149C31.172 22.6364 29.8943 24.1933 28.2549 25.2887C26.6156 26.3841 24.6882 26.9687 22.7166 26.9687C20.0737 26.9656 17.5399 25.9143 15.6711 24.0454C13.8023 22.1766 12.751 19.6429 12.7478 17Z" fill="white"/>
<circle cx="39.8252" cy="41.1147" r="10" fill="white"/>
<path d="M44.8792 39.641L39.8792 44.641C39.8089 44.7112 39.7136 44.7506 39.6142 44.7506C39.5148 44.7506 39.4195 44.7112 39.3492 44.641L34.3492 39.641C34.2829 39.5699 34.2469 39.4759 34.2486 39.3787C34.2503 39.2816 34.2897 39.1889 34.3584 39.1202C34.4271 39.0515 34.5198 39.0121 34.6169 39.0104C34.7141 39.0087 34.8081 39.0447 34.8792 39.111L39.6142 43.8454L44.3492 39.111C44.4203 39.0447 44.5143 39.0087 44.6114 39.0104C44.7086 39.0121 44.8013 39.0515 44.87 39.1202C44.9387 39.1889 44.9781 39.2816 44.9798 39.3787C44.9815 39.4759 44.9454 39.5699 44.8792 39.641Z" fill="#474848"/>
</svg>
