<svg width="21" height="21" viewBox="0 0 21 21" fill="none" xmlns="http://www.w3.org/2000/svg">
<path d="M20.256 18.4925L15.7221 13.9586C16.8136 12.5054 17.4029 10.7367 17.4009 8.9192C17.4009 4.27688 13.624 0.5 8.9817 0.5C4.33938 0.5 0.5625 4.27688 0.5625 8.9192C0.5625 13.5615 4.33938 17.3384 8.9817 17.3384C10.7992 17.3404 12.5679 16.7511 14.0211 15.6596L18.555 20.1935C18.7845 20.3986 19.0838 20.5081 19.3915 20.4995C19.6992 20.4909 19.992 20.3648 20.2097 20.1472C20.4273 19.9295 20.5534 19.6367 20.562 19.329C20.5706 19.0213 20.4611 18.722 20.256 18.4925ZM2.96799 8.9192C2.96799 7.7298 3.32068 6.56711 3.98148 5.57816C4.64227 4.58921 5.58149 3.81842 6.68035 3.36325C7.77921 2.90809 8.98837 2.789 10.1549 3.02104C11.3215 3.25308 12.393 3.82583 13.234 4.66686C14.0751 5.50789 14.6478 6.57944 14.8799 7.74598C15.1119 8.91253 14.9928 10.1217 14.5376 11.2205C14.0825 12.3194 13.3117 13.2586 12.3227 13.9194C11.3338 14.5802 10.1711 14.9329 8.9817 14.9329C7.38735 14.931 5.85885 14.2968 4.73147 13.1694C3.6041 12.042 2.9699 10.5135 2.96799 8.9192Z" fill=" #a2a2a2"/>
</svg>
