<svg width="20" height="27" viewBox="0 0 20 27" fill="none" xmlns="http://www.w3.org/2000/svg">
<path d="M19.1133 3.28571C19.1125 2.54713 18.8188 1.83902 18.2965 1.31677C17.7743 0.794509 17.0662 0.500768 16.3276 0.5H3.32758C2.589 0.500768 1.88089 0.794509 1.35864 1.31677C0.836379 1.83902 0.542638 2.54713 0.54187 3.28571V23.7143C0.542638 24.4529 0.836379 25.161 1.35864 25.6832C1.88089 26.2055 2.589 26.4992 3.32758 26.5H16.3276C17.0662 26.4992 17.7743 26.2055 18.2965 25.6832C18.8188 25.161 19.1125 24.4529 19.1133 23.7143V3.28571ZM4.72044 23.7143C4.44496 23.7143 4.17567 23.6326 3.94661 23.4795C3.71756 23.3265 3.53903 23.109 3.43361 22.8545C3.32819 22.5999 3.3006 22.3199 3.35435 22.0497C3.40809 21.7795 3.54075 21.5313 3.73554 21.3365C3.93034 21.1417 4.17852 21.0091 4.44871 20.9553C4.7189 20.9016 4.99895 20.9292 5.25346 21.0346C5.50798 21.14 5.72551 21.3185 5.87856 21.5476C6.03161 21.7767 6.1133 22.0459 6.1133 22.3214C6.1133 22.6908 5.96655 23.0451 5.70534 23.3063C5.44413 23.5675 5.08985 23.7143 4.72044 23.7143ZM4.72044 19.0714C4.44496 19.0714 4.17567 18.9897 3.94661 18.8367C3.71756 18.6836 3.53903 18.4661 3.43361 18.2116C3.32819 17.9571 3.3006 17.677 3.35435 17.4068C3.40809 17.1367 3.54075 16.8885 3.73554 16.6937C3.93034 16.4989 4.17852 16.3662 4.44871 16.3125C4.7189 16.2587 4.99895 16.2863 5.25346 16.3917C5.50798 16.4972 5.72551 16.6757 5.87856 16.9047C6.03161 17.1338 6.1133 17.4031 6.1133 17.6786C6.1133 18.048 5.96655 18.4023 5.70534 18.6635C5.44413 18.9247 5.08985 19.0714 4.72044 19.0714ZM4.72044 14.4286C4.44496 14.4286 4.17567 14.3469 3.94661 14.1938C3.71756 14.0408 3.53903 13.8232 3.43361 13.5687C3.32819 13.3142 3.3006 13.0342 3.35435 12.764C3.40809 12.4938 3.54075 12.2456 3.73554 12.0508C3.93034 11.856 4.17852 11.7234 4.44871 11.6696C4.7189 11.6159 4.99895 11.6435 5.25346 11.7489C5.50798 11.8543 5.72551 12.0328 5.87856 12.2619C6.03161 12.4909 6.1133 12.7602 6.1133 13.0357C6.1133 13.4051 5.96655 13.7594 5.70534 14.0206C5.44413 14.2818 5.08985 14.4286 4.72044 14.4286ZM9.82758 23.7143C9.5521 23.7143 9.28281 23.6326 9.05375 23.4795C8.8247 23.3265 8.64617 23.109 8.54075 22.8545C8.43533 22.5999 8.40775 22.3199 8.46149 22.0497C8.51523 21.7795 8.64789 21.5313 8.84269 21.3365C9.03748 21.1417 9.28566 21.0091 9.55585 20.9553C9.82604 20.9016 10.1061 20.9292 10.3606 21.0346C10.6151 21.14 10.8327 21.3185 10.9857 21.5476C11.1388 21.7767 11.2204 22.0459 11.2204 22.3214C11.2204 22.6908 11.0737 23.0451 10.8125 23.3063C10.5513 23.5675 10.197 23.7143 9.82758 23.7143ZM9.82758 19.0714C9.5521 19.0714 9.28281 18.9897 9.05375 18.8367C8.8247 18.6836 8.64617 18.4661 8.54075 18.2116C8.43533 17.9571 8.40775 17.677 8.46149 17.4068C8.51523 17.1367 8.64789 16.8885 8.84269 16.6937C9.03748 16.4989 9.28566 16.3662 9.55585 16.3125C9.82604 16.2587 10.1061 16.2863 10.3606 16.3917C10.6151 16.4972 10.8327 16.6757 10.9857 16.9047C11.1388 17.1338 11.2204 17.4031 11.2204 17.6786C11.2204 18.048 11.0737 18.4023 10.8125 18.6635C10.5513 18.9247 10.197 19.0714 9.82758 19.0714ZM9.82758 14.4286C9.5521 14.4286 9.28281 14.3469 9.05375 14.1938C8.8247 14.0408 8.64617 13.8232 8.54075 13.5687C8.43533 13.3142 8.40775 13.0342 8.46149 12.764C8.51523 12.4938 8.64789 12.2456 8.84269 12.0508C9.03748 11.856 9.28566 11.7234 9.55585 11.6696C9.82604 11.6159 10.1061 11.6435 10.3606 11.7489C10.6151 11.8543 10.8327 12.0328 10.9857 12.2619C11.1388 12.4909 11.2204 12.7602 11.2204 13.0357C11.2204 13.4051 11.0737 13.7594 10.8125 14.0206C10.5513 14.2818 10.197 14.4286 9.82758 14.4286ZM16.3276 22.3214C16.3276 22.6908 16.1808 23.0451 15.9196 23.3063C15.6584 23.5675 15.3041 23.7143 14.9347 23.7143C14.5653 23.7143 14.211 23.5675 13.9498 23.3063C13.6886 23.0451 13.5419 22.6908 13.5419 22.3214V17.6786C13.5419 17.3092 13.6886 16.9549 13.9498 16.6937C14.211 16.4325 14.5653 16.2857 14.9347 16.2857C15.3041 16.2857 15.6584 16.4325 15.9196 16.6937C16.1808 16.9549 16.3276 17.3092 16.3276 17.6786V22.3214ZM14.9347 14.4286C14.6592 14.4286 14.39 14.3469 14.1609 14.1938C13.9318 14.0408 13.7533 13.8232 13.6479 13.5687C13.5425 13.3142 13.5149 13.0342 13.5686 12.764C13.6224 12.4938 13.755 12.2456 13.9498 12.0508C14.1446 11.856 14.3928 11.7234 14.663 11.6696C14.9332 11.6159 15.2132 11.6435 15.4677 11.7489C15.7223 11.8543 15.9398 12.0328 16.0928 12.2619C16.2459 12.4909 16.3276 12.7602 16.3276 13.0357C16.3276 13.4051 16.1808 13.7594 15.9196 14.0206C15.6584 14.2818 15.3041 14.4286 14.9347 14.4286ZM16.0554 8.58496C15.8813 8.75912 15.6452 8.85703 15.399 8.85714H4.25616C4.00988 8.85714 3.7737 8.75931 3.59956 8.58517C3.42542 8.41103 3.32758 8.17484 3.32758 7.92857V4.21429C3.32758 3.96801 3.42542 3.73183 3.59956 3.55769C3.7737 3.38355 4.00988 3.28571 4.25616 3.28571H15.399C15.6453 3.28571 15.8815 3.38355 16.0556 3.55769C16.2298 3.73183 16.3276 3.96801 16.3276 4.21429V7.92857C16.3275 8.1748 16.2296 8.4109 16.0554 8.58496Z" fill="#413F42"/>
</svg>
