<svg width="36" height="37" viewBox="0 0 36 37" fill="none" xmlns="http://www.w3.org/2000/svg">
<path d="M35.6283 8.49126C35.6283 7.15248 35.0965 5.86854 34.1499 4.92188C33.2032 3.97523 31.9193 3.4434 30.5805 3.4434H29.3185V2.21693C29.3185 1.53783 28.7964 0.954964 28.1173 0.921048C27.9467 0.912827 27.7761 0.939334 27.6161 0.998964C27.456 1.05859 27.3097 1.1501 27.186 1.26795C27.0623 1.38579 26.9639 1.52752 26.8966 1.68454C26.8293 1.84156 26.7946 2.01061 26.7946 2.18144V3.4434H9.12709V2.21693C9.12709 1.53783 8.60495 0.954964 7.92586 0.921048C7.75523 0.912827 7.5847 0.939334 7.42462 0.998964C7.26454 1.05859 7.11823 1.1501 6.99456 1.26795C6.87089 1.38579 6.77243 1.52752 6.70515 1.68454C6.63787 1.84156 6.60317 2.01061 6.60316 2.18144V3.4434H5.34119C4.00242 3.4434 2.71848 3.97523 1.77182 4.92188C0.825162 5.86854 0.293335 7.15248 0.293335 8.49126V9.43773C0.293335 9.52141 0.326574 9.60165 0.38574 9.66082C0.444906 9.71999 0.525153 9.75322 0.608826 9.75322H35.3129C35.3965 9.75322 35.4768 9.71999 35.5359 9.66082C35.5951 9.60165 35.6283 9.52141 35.6283 9.43773V8.49126ZM0.293335 31.2066C0.293335 32.5454 0.825162 33.8293 1.77182 34.776C2.71848 35.7227 4.00242 36.2545 5.34119 36.2545H30.5805C31.9193 36.2545 33.2032 35.7227 34.1499 34.776C35.0965 33.8293 35.6283 32.5454 35.6283 31.2066V12.5138C35.6283 12.451 35.6034 12.3908 35.559 12.3465C35.5147 12.3021 35.4545 12.2772 35.3917 12.2772H0.529953C0.467198 12.2772 0.407014 12.3021 0.362639 12.3465C0.318264 12.3908 0.293335 12.451 0.293335 12.5138V31.2066ZM27.4256 14.8011C27.8 14.8011 28.1659 14.9121 28.4772 15.1201C28.7885 15.3281 29.0312 15.6237 29.1744 15.9696C29.3177 16.3155 29.3552 16.6961 29.2822 17.0633C29.2091 17.4305 29.0288 17.7678 28.7641 18.0325C28.4994 18.2973 28.1621 18.4776 27.7949 18.5506C27.4277 18.6236 27.0471 18.5862 26.7012 18.4429C26.3553 18.2996 26.0597 18.057 25.8517 17.7457C25.6437 17.4344 25.5326 17.0684 25.5326 16.694C25.5326 16.192 25.7321 15.7105 26.0871 15.3555C26.4421 15.0005 26.9235 14.8011 27.4256 14.8011ZM27.4256 21.1109C27.8 21.1109 28.1659 21.2219 28.4772 21.4299C28.7885 21.6379 29.0312 21.9336 29.1744 22.2795C29.3177 22.6253 29.3552 23.006 29.2822 23.3731C29.2091 23.7403 29.0288 24.0776 28.7641 24.3424C28.4994 24.6071 28.1621 24.7874 27.7949 24.8604C27.4277 24.9335 27.0471 24.896 26.7012 24.7527C26.3553 24.6094 26.0597 24.3668 25.8517 24.0555C25.6437 23.7442 25.5326 23.3782 25.5326 23.0039C25.5326 22.5018 25.7321 22.0203 26.0871 21.6653C26.4421 21.3103 26.9235 21.1109 27.4256 21.1109ZM21.1158 14.8011C21.4901 14.8011 21.8561 14.9121 22.1674 15.1201C22.4787 15.3281 22.7213 15.6237 22.8646 15.9696C23.0079 16.3155 23.0454 16.6961 22.9723 17.0633C22.8993 17.4305 22.719 17.7678 22.4543 18.0325C22.1895 18.2973 21.8522 18.4776 21.485 18.5506C21.1179 18.6236 20.7372 18.5862 20.3914 18.4429C20.0455 18.2996 19.7498 18.057 19.5418 17.7457C19.3338 17.4344 19.2228 17.0684 19.2228 16.694C19.2228 16.192 19.4222 15.7105 19.7772 15.3555C20.1322 15.0005 20.6137 14.8011 21.1158 14.8011ZM21.1158 21.1109C21.4901 21.1109 21.8561 21.2219 22.1674 21.4299C22.4787 21.6379 22.7213 21.9336 22.8646 22.2795C23.0079 22.6253 23.0454 23.006 22.9723 23.3731C22.8993 23.7403 22.719 24.0776 22.4543 24.3424C22.1895 24.6071 21.8522 24.7874 21.485 24.8604C21.1179 24.9335 20.7372 24.896 20.3914 24.7527C20.0455 24.6094 19.7498 24.3668 19.5418 24.0555C19.3338 23.7442 19.2228 23.3782 19.2228 23.0039C19.2228 22.5018 19.4222 22.0203 19.7772 21.6653C20.1322 21.3103 20.6137 21.1109 21.1158 21.1109ZM21.1158 27.4207C21.4901 27.4207 21.8561 27.5318 22.1674 27.7398C22.4787 27.9478 22.7213 28.2434 22.8646 28.5893C23.0079 28.9352 23.0454 29.3158 22.9723 29.683C22.8993 30.0502 22.719 30.3875 22.4543 30.6522C22.1895 30.9169 21.8522 31.0972 21.485 31.1703C21.1179 31.2433 20.7372 31.2058 20.3914 31.0625C20.0455 30.9193 19.7498 30.6766 19.5418 30.3653C19.3338 30.0541 19.2228 29.6881 19.2228 29.3137C19.2228 28.8116 19.4222 28.3302 19.7772 27.9752C20.1322 27.6202 20.6137 27.4207 21.1158 27.4207ZM14.8059 21.1109C15.1803 21.1109 15.5463 21.2219 15.8576 21.4299C16.1689 21.6379 16.4115 21.9336 16.5548 22.2795C16.6981 22.6253 16.7355 23.006 16.6625 23.3731C16.5895 23.7403 16.4092 24.0776 16.1444 24.3424C15.8797 24.6071 15.5424 24.7874 15.1752 24.8604C14.808 24.9335 14.4274 24.896 14.0815 24.7527C13.7356 24.6094 13.44 24.3668 13.232 24.0555C13.024 23.7442 12.913 23.3782 12.913 23.0039C12.913 22.5018 13.1124 22.0203 13.4674 21.6653C13.8224 21.3103 14.3039 21.1109 14.8059 21.1109ZM14.8059 27.4207C15.1803 27.4207 15.5463 27.5318 15.8576 27.7398C16.1689 27.9478 16.4115 28.2434 16.5548 28.5893C16.6981 28.9352 16.7355 29.3158 16.6625 29.683C16.5895 30.0502 16.4092 30.3875 16.1444 30.6522C15.8797 30.9169 15.5424 31.0972 15.1752 31.1703C14.808 31.2433 14.4274 31.2058 14.0815 31.0625C13.7356 30.9193 13.44 30.6766 13.232 30.3653C13.024 30.0541 12.913 29.6881 12.913 29.3137C12.913 28.8116 13.1124 28.3302 13.4674 27.9752C13.8224 27.6202 14.3039 27.4207 14.8059 27.4207ZM8.49611 21.1109C8.8705 21.1109 9.23648 21.2219 9.54777 21.4299C9.85906 21.6379 10.1017 21.9336 10.245 22.2795C10.3882 22.6253 10.4257 23.006 10.3527 23.3731C10.2796 23.7403 10.0994 24.0776 9.83462 24.3424C9.56989 24.6071 9.2326 24.7874 8.8654 24.8604C8.49821 24.9335 8.1176 24.896 7.77171 24.7527C7.42582 24.6094 7.13018 24.3668 6.92218 24.0555C6.71418 23.7442 6.60316 23.3782 6.60316 23.0039C6.60316 22.5018 6.80259 22.0203 7.15759 21.6653C7.51259 21.3103 7.99407 21.1109 8.49611 21.1109ZM8.49611 27.4207C8.8705 27.4207 9.23648 27.5318 9.54777 27.7398C9.85906 27.9478 10.1017 28.2434 10.245 28.5893C10.3882 28.9352 10.4257 29.3158 10.3527 29.683C10.2796 30.0502 10.0994 30.3875 9.83462 30.6522C9.56989 30.9169 9.2326 31.0972 8.8654 31.1703C8.49821 31.2433 8.1176 31.2058 7.77171 31.0625C7.42582 30.9193 7.13018 30.6766 6.92218 30.3653C6.71418 30.0541 6.60316 29.6881 6.60316 29.3137C6.60316 28.8116 6.80259 28.3302 7.15759 27.9752C7.51259 27.6202 7.99407 27.4207 8.49611 27.4207Z" fill="#413F42"/>
</svg>
