<svg width="21" height="27" viewBox="0 0 21 27" fill="none" xmlns="http://www.w3.org/2000/svg">
<path d="M17.1937 8H17.0039V2.79C17.0039 2.05005 16.7102 1.3404 16.1874 0.817172C15.6645 0.293946 14.9555 0 14.2161 0L6.67197 0C5.93259 0 5.2235 0.293946 4.70068 0.817172C4.17786 1.3404 3.88415 2.05005 3.88415 2.79V8H3.6843C1.74582 8 0.616699 9.55 0.616699 11.49V22.78C0.616699 24.73 1.28618 26.31 3.23465 26.31H17.6534C19.6019 26.31 20.2713 24.73 20.2713 22.78V11.49C20.2713 9.55 19.1422 8 17.1937 8ZM11.3183 17V19.74C11.3183 19.8551 11.2955 19.969 11.2512 20.0753C11.2069 20.1815 11.142 20.2778 11.0602 20.3587C10.9784 20.4397 10.8814 20.5035 10.7748 20.5467C10.6681 20.5898 10.554 20.6113 10.439 20.61C10.2102 20.5996 9.99469 20.4992 9.83939 20.3307C9.68409 20.1622 9.60154 19.9391 9.60967 19.71V17C9.28225 16.8079 9.02711 16.5133 8.88363 16.1616C8.74014 15.81 8.71629 15.4208 8.81575 15.0543C8.91521 14.6877 9.13245 14.3641 9.43395 14.1333C9.73545 13.9026 10.1044 13.7776 10.484 13.7776C10.8635 13.7776 11.2325 13.9026 11.534 14.1333C11.8355 14.3641 12.0528 14.6877 12.1522 15.0543C12.2517 15.4208 12.2278 15.81 12.0844 16.1616C11.9409 16.5133 11.6857 16.8079 11.3583 17H11.3183ZM15.3152 8H5.55284V3.43C5.55283 3.0286 5.71148 2.64349 5.99415 2.35872C6.27683 2.07395 6.66058 1.91264 7.06166 1.91H13.8164C14.2192 1.91 14.6055 2.07014 14.8903 2.3552C15.1752 2.64025 15.3352 3.02687 15.3352 3.43L15.3152 8Z" fill="#4E944F"/>
</svg>
