<svg width="17" height="17" viewBox="0 0 17 17" fill="none" xmlns="http://www.w3.org/2000/svg">
<path d="M6.00458 8.60498L1.01582 3.62971C0.694484 3.2979 0.516677 2.8535 0.520697 2.39222C0.524716 1.93094 0.710239 1.48969 1.03731 1.1635C1.36438 0.837316 1.80683 0.652294 2.26936 0.648285C2.73189 0.644277 3.17749 0.821603 3.5102 1.14207L8.49895 6.11734L13.4877 1.14207C13.6504 0.974042 13.8451 0.840014 14.0603 0.747812C14.2755 0.655609 14.507 0.607077 14.7412 0.605047C14.9755 0.603017 15.2078 0.647531 15.4246 0.73599C15.6414 0.824449 15.8383 0.955081 16.0039 1.12027C16.1696 1.28545 16.3006 1.48188 16.3893 1.69809C16.478 1.9143 16.5226 2.14596 16.5206 2.37956C16.5185 2.61316 16.4699 2.84401 16.3774 3.05865C16.285 3.27329 16.1506 3.46742 15.9821 3.62971L10.9933 8.60498L15.9821 13.5803C16.1506 13.7425 16.285 13.9367 16.3774 14.1513C16.4699 14.366 16.5185 14.5968 16.5206 14.8304C16.5226 15.064 16.478 15.2957 16.3893 15.5119C16.3006 15.7281 16.1696 15.9245 16.0039 16.0897C15.8383 16.2549 15.6414 16.3855 15.4246 16.474C15.2078 16.5624 14.9755 16.6069 14.7412 16.6049C14.507 16.6029 14.2755 16.5544 14.0603 16.4621C13.8451 16.3699 13.6504 16.2359 13.4877 16.0679L8.49895 11.0926L3.5102 16.0679C3.17749 16.3884 2.73189 16.5657 2.26936 16.5617C1.80683 16.5577 1.36438 16.3726 1.03731 16.0465C0.710239 15.7203 0.524716 15.279 0.520697 14.8177C0.516677 14.3565 0.694484 13.9121 1.01582 13.5803L6.00458 8.60498Z" fill="#413F42"/>
</svg>
