<svg width="32" height="32" viewBox="0 0 32 32" fill="none" xmlns="http://www.w3.org/2000/svg">
<path d="M16 32C24.8362 32 32 24.8362 32 16C32 7.16385 24.8362 0 16 0C7.16385 0 0 7.16385 0 16C0 24.8362 7.16385 32 16 32ZM8.97231 15.6423C9.08614 15.5275 9.22147 15.4363 9.37057 15.3738C9.51967 15.3114 9.67961 15.2789 9.84126 15.2783C10.0029 15.2776 10.1631 15.3088 10.3127 15.3701C10.4623 15.4314 10.5983 15.5215 10.7131 15.6354L14.7692 19.66V9.38462C14.7692 9.0582 14.8989 8.74514 15.1297 8.51433C15.3605 8.28352 15.6736 8.15385 16 8.15385C16.3264 8.15385 16.6395 8.28352 16.8703 8.51433C17.1011 8.74514 17.2308 9.0582 17.2308 9.38462V19.66L21.2869 15.6354C21.5189 15.4055 21.8327 15.2771 22.1593 15.2785C22.4859 15.28 22.7985 15.4111 23.0285 15.6431C23.2584 15.875 23.3867 16.1888 23.3853 16.5154C23.3839 16.842 23.2527 17.1547 23.0208 17.3846L16.8669 23.4915C16.6364 23.7203 16.3248 23.8487 16 23.8487C15.6752 23.8487 15.3636 23.7203 15.1331 23.4915L8.97923 17.3846C8.86423 17.2708 8.77281 17.1353 8.71021 16.9861C8.64761 16.8369 8.61506 16.6767 8.61441 16.5149C8.61377 16.3531 8.64505 16.1927 8.70646 16.043C8.76787 15.8932 8.85821 15.7571 8.97231 15.6423Z" fill="#009E0F"/>
</svg>
