<svg width="22" height="9" viewBox="0 0 22 9" fill="none" xmlns="http://www.w3.org/2000/svg">
<path d="M16.3385 0.210588C15.9389 -0.0954524 15.2391 -0.0633048 14.8996 0.276693C14.65 0.526533 14.6813 0.864729 14.9747 1.08978L19.4167 4.49703L14.9747 7.90428C14.6813 8.12933 14.65 8.46752 14.8996 8.71736C15.2391 9.05736 15.9389 9.08951 16.3385 8.78347L21.9355 4.49703L16.3385 0.210588Z" fill="#413F42"/>
<path d="M12.6069 0.210588C12.2073 -0.0954524 11.5075 -0.0633048 11.168 0.276693C10.9184 0.526533 10.9497 0.864729 11.2431 1.08978L15.6851 4.49703L11.2431 7.90428C10.9497 8.12933 10.9184 8.46752 11.168 8.71736C11.5075 9.05736 12.2073 9.08951 12.6069 8.78347L18.2039 4.49703L12.6069 0.210588Z" fill="#413F42"/>
<path d="M5.3385 0.210588C4.93889 -0.0954524 4.2391 -0.0633048 3.89955 0.276693C3.65004 0.526533 3.6813 0.864729 3.97469 1.08978L8.41672 4.49703L3.97469 7.90428C3.6813 8.12933 3.65004 8.46752 3.89955 8.71736C4.2391 9.05736 4.93889 9.08951 5.3385 8.78347L10.9355 4.49703L5.3385 0.210588Z" fill="#413F42"/>
<path d="M1.6069 0.210588C1.20729 -0.0954524 0.507499 -0.0633048 0.167951 0.276693C-0.0815602 0.526533 -0.0503049 0.864729 0.243093 1.08978L4.68512 4.49703L0.243092 7.90428C-0.0503057 8.12933 -0.0815595 8.46752 0.167951 8.71736C0.5075 9.05736 1.20729 9.08951 1.6069 8.78347L7.20395 4.49703L1.6069 0.210588Z" fill="#413F42"/>
</svg>
