<svg width="22" height="9" viewBox="0 0 22 9" fill="none" xmlns="http://www.w3.org/2000/svg">
<path d="M5.59704 8.78349C5.99666 9.08953 6.69645 9.05738 7.03599 8.71739C7.28551 8.46755 7.25425 8.12935 6.96085 7.9043L2.51882 4.49705L6.96085 1.0898C7.25425 0.864752 7.2855 0.526556 7.03599 0.276715C6.69645 -0.0632822 5.99666 -0.0954291 5.59704 0.210612L0 4.49705L5.59704 8.78349Z" fill="#413F42"/>
<path d="M9.32864 8.78349C9.72826 9.08953 10.428 9.05738 10.7676 8.71739C11.0171 8.46755 10.9859 8.12935 10.6925 7.9043L6.25043 4.49705L10.6925 1.0898C10.9859 0.864752 11.0171 0.526556 10.7676 0.276715C10.428 -0.0632822 9.72826 -0.0954291 9.32864 0.210612L3.7316 4.49705L9.32864 8.78349Z" fill="#413F42"/>
<path d="M16.597 8.78349C16.9967 9.08953 17.6964 9.05738 18.036 8.71739C18.2855 8.46755 18.2543 8.12935 17.9609 7.9043L13.5188 4.49705L17.9609 1.0898C18.2543 0.864752 18.2855 0.526556 18.036 0.276715C17.6964 -0.0632822 16.9967 -0.0954291 16.597 0.210612L11 4.49705L16.597 8.78349Z" fill="#413F42"/>
<path d="M20.3286 8.78349C20.7283 9.08953 21.428 9.05738 21.7676 8.71739C22.0171 8.46755 21.9859 8.12935 21.6925 7.9043L17.2504 4.49705L21.6925 1.0898C21.9859 0.864752 22.0171 0.526556 21.7676 0.276715C21.428 -0.0632822 20.7283 -0.0954291 20.3286 0.210612L14.7316 4.49705L20.3286 8.78349Z" fill="#413F42"/>
</svg>
