<svg width="32" height="23" viewBox="0 0 32 23" fill="none" xmlns="http://www.w3.org/2000/svg">
<path d="M26.1301 1.84325H15.738C15.4224 1.84412 15.1135 1.76392 14.8507 1.61284L12.9975 0.542034C12.3838 0.187448 11.6619 -0.0012422 10.9236 6.15439e-06H5.86455C4.87479 0.000920992 3.92587 0.341061 3.226 0.945793C2.52613 1.55053 2.13248 2.37046 2.13142 3.22567V4.6081H29.8632C29.8632 2.82938 28.1887 1.84325 26.1301 1.84325ZM27.1801 22.1189H4.81461C3.83507 22.1179 2.89521 21.7843 2.19772 21.1901C1.50024 20.5958 1.10101 19.7885 1.08614 18.9422L0.0102028 9.45294V9.43682C-0.0250311 9.05648 0.0312195 8.67397 0.175415 8.31334C0.31961 7.95271 0.548629 7.62177 0.848061 7.34134C1.14749 7.06092 1.51086 6.83708 1.91529 6.68391C2.31972 6.53074 2.75646 6.45156 3.19803 6.45134H28.8033C29.2448 6.45172 29.6814 6.53102 30.0856 6.68426C30.4899 6.83749 30.8531 7.06136 31.1524 7.34176C31.4517 7.62217 31.6806 7.95306 31.8247 8.31361C31.9688 8.67416 32.025 9.05658 31.9898 9.43682V9.45294L30.9085 18.9422C30.8937 19.7885 30.4944 20.5958 29.7969 21.1901C29.0995 21.7843 28.1596 22.1179 27.1801 22.1189Z" fill="#413F42"/>
</svg>
