<svg width="17" height="13" viewBox="0 0 17 13" fill="none" xmlns="http://www.w3.org/2000/svg">
<path d="M7.15131 11.6972L0.404604 2.90369C-0.391609 1.86906 0.25549 0.244141 1.46388 0.244141H14.9573C15.2277 0.243877 15.4925 0.332505 15.7199 0.499414C15.9473 0.666322 16.1277 0.904434 16.2395 1.18524C16.3512 1.46604 16.3897 1.77763 16.3501 2.08269C16.3106 2.38775 16.1948 2.67335 16.0166 2.90529L9.26986 11.6956C9.13782 11.8679 8.97498 12.006 8.79228 12.1006C8.60958 12.1952 8.41124 12.2441 8.21058 12.2441C8.00992 12.2441 7.81159 12.1952 7.62889 12.1006C7.44618 12.006 7.28335 11.8679 7.15131 11.6956V11.6972Z" fill="#413F42"/>
</svg>
