<svg width="19" height="19" viewBox="0 0 19 19" fill="none" xmlns="http://www.w3.org/2000/svg">
<path d="M9.47974 0.312012C4.51714 0.312012 0.479736 4.34941 0.479736 9.31201C0.479736 14.2746 4.51714 18.312 9.47974 18.312C14.4423 18.312 18.4797 14.2746 18.4797 9.31201C18.4797 4.34941 14.4423 0.312012 9.47974 0.312012ZM9.47974 4.00201C9.71114 4.00201 9.93735 4.07063 10.1298 4.19919C10.3222 4.32775 10.4721 4.51048 10.5607 4.72427C10.6492 4.93806 10.6724 5.17331 10.6273 5.40027C10.5821 5.62722 10.4707 5.8357 10.3071 5.99933C10.1434 6.16295 9.93495 6.27439 9.70799 6.31953C9.48104 6.36468 9.24579 6.34151 9.032 6.25295C8.81821 6.1644 8.63548 6.01443 8.50692 5.82203C8.37836 5.62962 8.30974 5.40342 8.30974 5.17201C8.30974 4.86171 8.433 4.56411 8.65242 4.3447C8.87184 4.12528 9.16943 4.00201 9.47974 4.00201ZM12.3597 14.172H6.95974V12.732H8.93974V8.77201H7.49974V7.33201H10.3797V12.732H12.3597V14.172Z" fill="#413F42"/>
</svg>
