<svg width="16" height="17" viewBox="0 0 16 17" fill="none" xmlns="http://www.w3.org/2000/svg">
<path d="M16 8.72852C16 10.8502 15.1571 12.8851 13.6569 14.3854C12.1566 15.8857 10.1217 16.7285 8 16.7285C5.87827 16.7285 3.84344 15.8857 2.34315 14.3854C0.842855 12.8851 0 10.8502 0 8.72852C0 6.60678 0.842855 4.57195 2.34315 3.07166C3.84344 1.57137 5.87827 0.728516 8 0.728516C10.1217 0.728516 12.1566 1.57137 13.6569 3.07166C15.1571 4.57195 16 6.60678 16 8.72852ZM8 4.72852C7.87361 4.72859 7.74863 4.75513 7.63312 4.80644C7.51761 4.85775 7.41413 4.93269 7.32934 5.02643C7.24456 5.12016 7.18035 5.23062 7.14084 5.35068C7.10134 5.47074 7.08743 5.59775 7.1 5.72352L7.45 9.23052C7.46176 9.36829 7.5248 9.49663 7.62664 9.59015C7.72849 9.68367 7.86173 9.73557 8 9.73557C8.13827 9.73557 8.27151 9.68367 8.37336 9.59015C8.4752 9.49663 8.53824 9.36829 8.55 9.23052L8.9 5.72352C8.91257 5.59775 8.89866 5.47074 8.85915 5.35068C8.81965 5.23062 8.75544 5.12016 8.67066 5.02643C8.58587 4.93269 8.48239 4.85775 8.36688 4.80644C8.25137 4.75513 8.12639 4.72859 8 4.72852ZM8.002 10.7285C7.73678 10.7285 7.48243 10.8339 7.29489 11.0214C7.10736 11.2089 7.002 11.4633 7.002 11.7285C7.002 11.9937 7.10736 12.2481 7.29489 12.4356C7.48243 12.6232 7.73678 12.7285 8.002 12.7285C8.26722 12.7285 8.52157 12.6232 8.70911 12.4356C8.89664 12.2481 9.002 11.9937 9.002 11.7285C9.002 11.4633 8.89664 11.2089 8.70911 11.0214C8.52157 10.8339 8.26722 10.7285 8.002 10.7285Z" fill="#413F42"/>
</svg>
