<svg width="12" height="10" viewBox="0 0 12 10" fill="none" xmlns="http://www.w3.org/2000/svg">
<path d="M6.48816 9.40605C6.88777 9.71209 7.58756 9.67994 7.92711 9.33994C8.17662 9.0901 8.14536 8.75191 7.85197 8.52686L3.40994 5.11961L7.85197 1.71236C8.14536 1.48731 8.17662 1.14911 7.92711 0.899274C7.58756 0.559276 6.88777 0.527129 6.48816 0.833171L0.891113 5.11961L6.48816 9.40605Z" fill="#413F42"/>
<path d="M10.2198 9.40605C10.6194 9.71209 11.3192 9.67994 11.6587 9.33994C11.9082 9.0901 11.877 8.75191 11.5836 8.52686L7.14154 5.11961L11.5836 1.71236C11.877 1.48731 11.9082 1.14911 11.6587 0.899274C11.3192 0.559276 10.6194 0.527129 10.2198 0.833171L4.62271 5.11961L10.2198 9.40605Z" fill="#413F42"/>
</svg>
