<svg width="24" height="30" viewBox="0 0 24 30" fill="none" xmlns="http://www.w3.org/2000/svg">
<path d="M7.31248 17.6962V15.9375H9.18748V17.6962C9.18749 17.8499 9.20638 18.0029 9.24373 18.1519L9.99372 21.1481L8.24998 22.3106L6.50623 21.1481L7.25622 18.1519C7.29357 18.0029 7.31246 17.8499 7.31248 17.6962V17.6962Z" fill="#413F42"/>
<path d="M14.4244 0H4.5C3.50544 0 2.55161 0.395088 1.84835 1.09835C1.14509 1.80161 0.75 2.75544 0.75 3.75V26.25C0.75 27.2446 1.14509 28.1984 1.84835 28.9016C2.55161 29.6049 3.50544 30 4.5 30H19.5C20.4946 30 21.4484 29.6049 22.1516 28.9016C22.8549 28.1984 23.25 27.2446 23.25 26.25V8.82562C23.2499 8.32838 23.0523 7.85155 22.7006 7.5L15.75 0.549375C15.3985 0.19772 14.9216 0.000106195 14.4244 0V0ZM14.8125 6.5625V2.8125L20.4375 8.4375H16.6875C16.1902 8.4375 15.7133 8.23996 15.3617 7.88832C15.01 7.53669 14.8125 7.05978 14.8125 6.5625ZM7.3125 5.625V3.75H5.4375V1.875H8.25V3.75H10.125V5.625H8.25V7.5H10.125V9.375H8.25V11.25H10.125V13.125H7.3125V11.25H5.4375V9.375H7.3125V7.5H5.4375V5.625H7.3125ZM7.3125 14.0625H9.1875C9.68478 14.0625 10.1617 14.26 10.5133 14.6117C10.865 14.9633 11.0625 15.4402 11.0625 15.9375V17.6962L11.8125 20.6944C11.9059 21.0695 11.8812 21.4643 11.7415 21.8248C11.6019 22.1853 11.3542 22.4938 11.0325 22.7081L9.28875 23.8706C8.98083 24.0758 8.61908 24.1853 8.24906 24.1853C7.87904 24.1853 7.5173 24.0758 7.20938 23.8706L5.46562 22.7081C5.14421 22.4936 4.89695 22.1849 4.75766 21.8245C4.61837 21.464 4.59387 21.0693 4.6875 20.6944L5.4375 17.6962V15.9375C5.4375 15.4402 5.63504 14.9633 5.98668 14.6117C6.33831 14.26 6.81522 14.0625 7.3125 14.0625V14.0625Z" fill="#413F42"/>
</svg>
