<svg width="22" height="22" viewBox="0 0 22 22" fill="none" xmlns="http://www.w3.org/2000/svg">
<path d="M8.84501 12.9871L1.79938 12.9967C1.33754 12.9893 0.897574 12.8007 0.574241 12.4717C0.250909 12.1427 0.0700826 11.6995 0.0707077 11.2376C0.0713326 10.7757 0.253359 10.332 0.577583 10.0021C0.901807 9.6722 1.34229 9.4825 1.80415 9.47385L8.84978 9.46431L8.85931 2.41868C8.85556 2.1848 8.89843 1.95239 8.98542 1.735C9.07241 1.51762 9.20177 1.31962 9.36596 1.15256C9.53016 0.9855 9.72589 0.852722 9.94173 0.761974C10.1576 0.671225 10.3892 0.624326 10.6231 0.62401C10.8571 0.623693 11.0886 0.669966 11.3042 0.76013C11.5198 0.850295 11.7152 0.982544 11.8789 1.14916C12.0426 1.31578 12.1715 1.51343 12.2579 1.73058C12.3443 1.94772 12.3865 2.18002 12.3821 2.41391L12.3726 9.45955L19.4182 9.45001C19.6521 9.44563 19.8844 9.48787 20.1016 9.57427C20.3187 9.66067 20.5164 9.7895 20.683 9.95324C20.8496 10.117 20.9818 10.3123 21.072 10.528C21.1622 10.7436 21.2084 10.9751 21.2081 11.209C21.2078 11.4429 21.1609 11.6746 21.0702 11.8904C20.9794 12.1063 20.8466 12.302 20.6796 12.4662C20.5125 12.6304 20.3145 12.7597 20.0971 12.8467C19.8798 12.9337 19.6473 12.9766 19.4135 12.9728L12.3678 12.9824L12.3583 20.028C12.3496 20.4899 12.1599 20.9303 11.8301 21.2546C11.5002 21.5788 11.0565 21.7608 10.5945 21.7614C10.1326 21.7621 9.68943 21.5812 9.36041 21.2579C9.03139 20.9346 8.84288 20.4946 8.83548 20.0328L8.84501 12.9871Z" fill="#4E944F"/>
</svg>
