<svg width="12" height="10" viewBox="0 0 12 10" fill="none" xmlns="http://www.w3.org/2000/svg">
<path d="M5.51184 9.40605C5.11223 9.71209 4.41244 9.67994 4.07289 9.33995C3.82338 9.09011 3.85464 8.75191 4.14803 8.52686L8.59006 5.11961L4.14803 1.71236C3.85464 1.48731 3.82338 1.14911 4.07289 0.899274C4.41244 0.559276 5.11223 0.527129 5.51184 0.833171L11.1089 5.11961L5.51184 9.40605Z" fill="#413F42"/>
<path d="M1.78024 9.40605C1.38063 9.71209 0.68084 9.67994 0.34129 9.33995C0.0917797 9.09011 0.123034 8.75191 0.416432 8.52686L4.85846 5.11961L0.416432 1.71236C0.123034 1.48731 0.0917807 1.14911 0.34129 0.899274C0.68084 0.559276 1.38063 0.527129 1.78024 0.833171L7.37729 5.11961L1.78024 9.40605Z" fill="#413F42"/>
</svg>
