<svg width="13" height="13" viewBox="0 0 13 13" fill="none" xmlns="http://www.w3.org/2000/svg">
<path d="M0.967921 0.895557C0.921433 0.849074 0.884557 0.793891 0.859397 0.733158C0.834238 0.672425 0.821289 0.607331 0.821289 0.541595C0.821289 0.475858 0.834238 0.410764 0.859397 0.350031C0.884557 0.289298 0.921433 0.234115 0.967921 0.187632C1.01441 0.141149 1.0696 0.104276 1.13034 0.07912C1.19108 0.0539635 1.25618 0.0410156 1.32192 0.0410156C1.38766 0.0410156 1.45276 0.0539635 1.5135 0.07912C1.57424 0.104276 1.62943 0.141149 1.67592 0.187632L6.82192 5.33409L11.9679 0.187632C12.0144 0.141149 12.0696 0.104276 12.1303 0.07912C12.1911 0.0539635 12.2562 0.0410156 12.3219 0.0410156C12.3877 0.0410156 12.4528 0.0539635 12.5135 0.07912C12.5742 0.104276 12.6294 0.141149 12.6759 0.187632C12.7224 0.234115 12.7593 0.289298 12.7844 0.350031C12.8096 0.410764 12.8226 0.475858 12.8226 0.541595C12.8226 0.607331 12.8096 0.672425 12.7844 0.733158C12.7593 0.793891 12.7224 0.849074 12.6759 0.895557L7.52892 6.04102L12.6759 11.1865C12.7224 11.233 12.7593 11.2881 12.7844 11.3489C12.8096 11.4096 12.8226 11.4747 12.8226 11.5404C12.8226 11.6062 12.8096 11.6713 12.7844 11.732C12.7593 11.7927 12.7224 11.8479 12.6759 11.8944C12.6294 11.9409 12.5742 11.9778 12.5135 12.0029C12.4528 12.0281 12.3877 12.041 12.3219 12.041C12.2562 12.041 12.1911 12.0281 12.1303 12.0029C12.0696 11.9778 12.0144 11.9409 11.9679 11.8944L6.82192 6.74794L1.67592 11.8944C1.62943 11.9409 1.57424 11.9778 1.5135 12.0029C1.45276 12.0281 1.38766 12.041 1.32192 12.041C1.25618 12.041 1.19108 12.0281 1.13034 12.0029C1.0696 11.9778 1.01441 11.9409 0.967921 11.8944C0.921433 11.8479 0.884557 11.7927 0.859397 11.732C0.834238 11.6713 0.821289 11.6062 0.821289 11.5404C0.821289 11.4747 0.834238 11.4096 0.859397 11.3489C0.884557 11.2881 0.921433 11.233 0.967921 11.1865L6.11492 6.04102L0.967921 0.895557Z" fill="black"/>
</svg>
