<svg width="41" height="33" viewBox="0 0 41 33" fill="none" xmlns="http://www.w3.org/2000/svg">
<path d="M27.8532 27.4676V17.8498H14.6145C14.2271 17.8498 13.8555 17.6939 13.5816 17.4164C13.3076 17.1389 13.1537 16.7625 13.1537 16.3701C13.1537 15.9776 13.3076 15.6013 13.5816 15.3238C13.8555 15.0463 14.2271 14.8904 14.6145 14.8904H27.8532V5.27254C27.8518 3.89948 27.3126 2.58307 26.3541 1.61216C25.3956 0.641257 24.0959 0.0951577 22.7404 0.093689H5.21052C3.85495 0.0951577 2.55532 0.641257 1.59678 1.61216C0.638248 2.58307 0.0991063 3.89948 0.0976562 5.27254V27.4676C0.0991063 28.8407 0.638248 30.1571 1.59678 31.128C2.55532 32.0989 3.85495 32.645 5.21052 32.6465H22.7404C24.0959 32.645 25.3956 32.0989 26.3541 31.128C27.3126 30.1571 27.8518 28.8407 27.8532 27.4676ZM36.0128 17.8498L31.2031 22.7225C30.9407 23.0023 30.7965 23.3748 30.8014 23.7606C30.8063 24.1464 30.9598 24.5151 31.2292 24.7879C31.4985 25.0608 31.8625 25.2163 32.2434 25.2212C32.6243 25.2261 32.9921 25.0802 33.2683 24.8144L40.5724 17.416C40.8461 17.1386 40.9999 16.7623 40.9999 16.3701C40.9999 15.9778 40.8461 15.6016 40.5724 15.3241L33.2683 7.92578C32.9921 7.66 32.6243 7.51402 32.2434 7.51896C31.8625 7.5239 31.4985 7.67937 31.2292 7.95222C30.9598 8.22508 30.8063 8.59373 30.8014 8.97957C30.7965 9.36541 30.9407 9.73792 31.2031 10.0177L36.0128 14.8904H27.8532V17.8498H36.0128Z" fill="#413F42"/>
</svg>
