<svg width="20" height="21" viewBox="0 0 20 21" fill="none" xmlns="http://www.w3.org/2000/svg">
<path d="M19.3723 4.70644L16.0821 1.41626C15.8836 1.21664 15.6475 1.05838 15.3874 0.950635C15.1273 0.842893 14.8485 0.787812 14.567 0.788582H2.85714C2.09938 0.788582 1.37266 1.0896 0.836837 1.62542C0.301019 2.16124 0 2.88796 0 3.64572V17.9314C0 18.6892 0.301019 19.4159 0.836837 19.9517C1.37266 20.4876 2.09938 20.7886 2.85714 20.7886H17.1429C17.9006 20.7886 18.6273 20.4876 19.1632 19.9517C19.699 19.4159 20 18.6892 20 17.9314V6.22162C20.0008 5.9401 19.9457 5.66123 19.8379 5.40115C19.7302 5.14107 19.5719 4.90494 19.3723 4.70644ZM3.92857 4.36001H11.7857C11.8804 4.36001 11.9713 4.39764 12.0382 4.46461C12.1052 4.53159 12.1429 4.62243 12.1429 4.71715V6.86001C12.1429 6.95473 12.1052 7.04557 12.0382 7.11255C11.9713 7.17952 11.8804 7.21715 11.7857 7.21715H3.92857C3.83385 7.21715 3.74301 7.17952 3.67603 7.11255C3.60905 7.04557 3.57143 6.95473 3.57143 6.86001V4.71715C3.57143 4.62243 3.60905 4.53159 3.67603 4.46461C3.74301 4.39764 3.83385 4.36001 3.92857 4.36001ZM10.1674 18.6417C9.44756 18.6755 8.73433 18.4907 8.12143 18.1117C7.50852 17.7327 7.02462 17.1771 6.73331 16.5179C6.44199 15.8588 6.35688 15.127 6.48917 14.4186C6.62146 13.7102 6.96496 13.0584 7.47453 12.5488C7.9841 12.0393 8.6359 11.6958 9.34429 11.5635C10.0527 11.4312 10.7845 11.5163 11.4437 11.8076C12.1028 12.0989 12.6584 12.5828 13.0374 13.1957C13.4164 13.8086 13.6012 14.5219 13.5674 15.2417C13.5251 16.1298 13.1533 16.9702 12.5246 17.5989C11.8959 18.2276 11.0555 18.5994 10.1674 18.6417Z" fill="#413F42"/>
<path d="M10.0002 17.2171C11.1836 17.2171 12.143 16.2577 12.143 15.0743C12.143 13.8908 11.1836 12.9314 10.0002 12.9314C8.81669 12.9314 7.8573 13.8908 7.8573 15.0743C7.8573 16.2577 8.81669 17.2171 10.0002 17.2171Z" fill="#413F42"/>
</svg>
