<svg width="24" height="22" viewBox="0 0 24 22" fill="none" xmlns="http://www.w3.org/2000/svg">
<mask id="path-1-inside-1_839_1151" fill="white">
<path d="M16.5243 1.39722L19.8145 4.6874C20.0141 4.8859 20.1723 5.12203 20.2801 5.38211C20.3878 5.64219 20.4429 5.92106 20.4421 6.20258V17.9124C20.4421 18.6702 20.1411 19.3969 19.6053 19.9327C19.0695 20.4685 18.3428 20.7695 17.585 20.7695H3.29928C2.54152 20.7695 1.81479 20.4685 1.27898 19.9327C0.743158 19.3969 0.442139 18.6702 0.442139 17.9124V3.62669C0.442139 2.86893 0.743158 2.1422 1.27898 1.60638C1.81479 1.07057 2.54152 0.769546 3.29928 0.769546H15.0091C15.2906 0.768777 15.5695 0.823857 15.8296 0.931599C16.0896 1.03934 16.3258 1.1976 16.5243 1.39722Z"/>
</mask>
<path d="M16.5243 1.39722L19.8145 4.6874C20.0141 4.8859 20.1723 5.12203 20.2801 5.38211C20.3878 5.64219 20.4429 5.92106 20.4421 6.20258V17.9124C20.4421 18.6702 20.1411 19.3969 19.6053 19.9327C19.0695 20.4685 18.3428 20.7695 17.585 20.7695H3.29928C2.54152 20.7695 1.81479 20.4685 1.27898 19.9327C0.743158 19.3969 0.442139 18.6702 0.442139 17.9124V3.62669C0.442139 2.86893 0.743158 2.1422 1.27898 1.60638C1.81479 1.07057 2.54152 0.769546 3.29928 0.769546H15.0091C15.2906 0.768777 15.5695 0.823857 15.8296 0.931599C16.0896 1.03934 16.3258 1.1976 16.5243 1.39722Z" fill="white"/>
<path d="M19.8145 4.6874L19.1073 5.39451L19.1093 5.3965L19.8145 4.6874ZM16.5243 1.39722L15.8152 2.10234L15.8172 2.10433L16.5243 1.39722ZM15.0091 0.769546V1.76955L15.0118 1.76954L15.0091 0.769546ZM1.27898 1.60638L1.98608 2.31349L1.27898 1.60638ZM1.27898 19.9327L1.98608 19.2256L1.27898 19.9327ZM20.4421 6.20258L19.4421 6.19984V6.20258H20.4421ZM20.5216 3.9803L17.2314 0.690118L15.8172 2.10433L19.1073 5.39451L20.5216 3.9803ZM17.2334 0.692111C16.9416 0.398709 16.5946 0.166094 16.2123 0.0077346L15.4468 1.85546C15.5847 1.91259 15.7099 1.9965 15.8152 2.10234L17.2334 0.692111ZM16.2123 0.0077346C15.83 -0.150624 15.4201 -0.231581 15.0064 -0.23045L15.0118 1.76954C15.1611 1.76913 15.309 1.79834 15.4468 1.85546L16.2123 0.0077346ZM15.0091 -0.230454H3.29928V1.76955H15.0091V-0.230454ZM3.29928 -0.230454C2.2763 -0.230454 1.29522 0.175923 0.571869 0.899277L1.98608 2.31349C2.33436 1.96521 2.80674 1.76955 3.29928 1.76955V-0.230454ZM0.571869 0.899277C-0.151485 1.62263 -0.557861 2.60371 -0.557861 3.62669H1.44214C1.44214 3.13414 1.6378 2.66177 1.98608 2.31349L0.571869 0.899277ZM-0.557861 3.62669V17.9124H1.44214V3.62669H-0.557861ZM-0.557861 17.9124C-0.557861 18.9354 -0.151485 19.9165 0.571869 20.6398L1.98608 19.2256C1.6378 18.8773 1.44214 18.4049 1.44214 17.9124H-0.557861ZM0.571869 20.6398C1.29522 21.3632 2.2763 21.7695 3.29928 21.7695V19.7695C2.80674 19.7695 2.33436 19.5739 1.98608 19.2256L0.571869 20.6398ZM3.29928 21.7695H17.585V19.7695H3.29928V21.7695ZM17.585 21.7695C18.608 21.7695 19.589 21.3632 20.3124 20.6398L18.8982 19.2256C18.5499 19.5739 18.0775 19.7695 17.585 19.7695V21.7695ZM20.3124 20.6398C21.0358 19.9165 21.4421 18.9354 21.4421 17.9124H19.4421C19.4421 18.4049 19.2465 18.8773 18.8982 19.2256L20.3124 20.6398ZM21.4421 17.9124V6.20258H19.4421V17.9124H21.4421ZM21.4421 6.20532C21.4433 5.79154 21.3623 5.38166 21.2039 4.99939L19.3562 5.76483C19.4133 5.90273 19.4425 6.05058 19.4421 6.19984L21.4421 6.20532ZM21.2039 4.99939C21.0456 4.61712 20.813 4.27006 20.5196 3.97831L19.1093 5.3965C19.2152 5.50174 19.2991 5.62694 19.3562 5.76483L21.2039 4.99939Z" fill="#413F42" mask="url(#path-1-inside-1_839_1151)"/>
<rect x="4.01062" y="4.32617" width="8.57458" height="2.88019" rx="0.4" fill="#413F42"/>
<path d="M10.4423 17.9478C12.04 17.9478 13.3352 16.6526 13.3352 15.055C13.3352 13.4573 12.04 12.1621 10.4423 12.1621C8.84461 12.1621 7.54944 13.4573 7.54944 15.055C7.54944 16.6526 8.84461 17.9478 10.4423 17.9478Z" fill="white" stroke="#413F42" stroke-width="1.5"/>
<path d="M18.2279 21.7692C20.9229 21.7692 23.1076 19.5845 23.1076 16.8895C23.1076 14.1945 20.9229 12.0098 18.2279 12.0098C15.5329 12.0098 13.3481 14.1945 13.3481 16.8895C13.3481 19.5845 15.5329 21.7692 18.2279 21.7692Z" fill="#413F42"/>
<rect x="20.1539" y="14.1523" width="1.14684" height="6.59431" rx="0.573418" transform="rotate(45 20.1539 14.1523)" fill="white"/>
<rect x="15.4911" y="14.9629" width="1.14684" height="6.59431" rx="0.573418" transform="rotate(-45 15.4911 14.9629)" fill="white"/>
</svg>
