<svg width="21" height="21" viewBox="0 0 21 21" fill="none" xmlns="http://www.w3.org/2000/svg">
<path d="M20.092 4.70644L16.8019 1.41626C16.6034 1.21664 16.3672 1.05838 16.1072 0.950635C15.8471 0.842893 15.5682 0.787812 15.2867 0.788582H3.57687C2.81911 0.788582 2.09238 1.0896 1.55656 1.62542C1.02075 2.16124 0.719727 2.88796 0.719727 3.64572V17.9314C0.719727 18.6892 1.02075 19.4159 1.55656 19.9517C2.09238 20.4876 2.81911 20.7886 3.57687 20.7886H17.8626C18.6203 20.7886 19.3471 20.4876 19.8829 19.9517C20.4187 19.4159 20.7197 18.6892 20.7197 17.9314V6.22162C20.7205 5.9401 20.6654 5.66123 20.5577 5.40115C20.4499 5.14107 20.2917 4.90494 20.092 4.70644ZM4.6483 4.36001H12.5054C12.6002 4.36001 12.691 4.39764 12.758 4.46461C12.825 4.53159 12.8626 4.62243 12.8626 4.71715V6.86001C12.8626 6.95473 12.825 7.04557 12.758 7.11255C12.691 7.17952 12.6002 7.21715 12.5054 7.21715H4.6483C4.55358 7.21715 4.46274 7.17952 4.39576 7.11255C4.32878 7.04557 4.29115 6.95473 4.29115 6.86001V4.71715C4.29115 4.62243 4.32878 4.53159 4.39576 4.46461C4.46274 4.39764 4.55358 4.36001 4.6483 4.36001ZM10.8871 18.6417C10.1673 18.6755 9.45406 18.4907 8.84115 18.1117C8.22825 17.7327 7.74435 17.1771 7.45303 16.5179C7.16172 15.8588 7.07661 15.127 7.2089 14.4186C7.34119 13.7102 7.68469 13.0584 8.19425 12.5488C8.70382 12.0393 9.35562 11.6958 10.064 11.5635C10.7724 11.4312 11.5042 11.5163 12.1634 11.8076C12.8225 12.0989 13.3781 12.5828 13.7571 13.1957C14.1362 13.8086 14.3209 14.5219 14.2871 15.2417C14.2448 16.1298 13.873 16.9702 13.2443 17.5989C12.6157 18.2276 11.7752 18.5994 10.8871 18.6417Z" fill="#413F42"/>
</svg>
