<svg width="29" height="27" viewBox="0 0 29 27" fill="none" xmlns="http://www.w3.org/2000/svg">
<rect width="28" height="26.1398" rx="4" transform="matrix(-1 0 0 1 28.9927 0.209106)" fill="#413F42"/>
<path d="M21.2183 7.33228H26.965C27.2294 7.33228 27.4438 7.48 27.4438 7.66222V11.6216C27.4438 11.8038 27.2294 11.9515 26.965 11.9515H21.2183C20.9538 11.9515 20.7394 11.8038 20.7394 11.6216V7.66222C20.7394 7.48 20.9538 7.33228 21.2183 7.33228Z" fill="white"/>
<path d="M12.1192 7.33228H17.8658C18.1303 7.33228 18.3447 7.48 18.3447 7.66222V11.6216C18.3447 11.8038 18.1303 11.9515 17.8658 11.9515H12.1192C11.8547 11.9515 11.6403 11.8038 11.6403 11.6216V7.66222C11.6403 7.48 11.8547 7.33228 12.1192 7.33228Z" fill="white"/>
<path d="M3.02007 7.33228H8.76672C9.0312 7.33228 9.24561 7.48 9.24561 7.66222V11.6216C9.24561 11.8038 9.0312 11.9515 8.76672 11.9515H3.02007C2.75559 11.9515 2.54118 11.8038 2.54118 11.6216V7.66222C2.54118 7.48 2.75559 7.33228 3.02007 7.33228Z" fill="white"/>
<path d="M21.2183 13.6013H26.965C27.2294 13.6013 27.4438 13.749 27.4438 13.9313V17.8906C27.4438 18.0729 27.2294 18.2206 26.965 18.2206H21.2183C20.9538 18.2206 20.7394 18.0729 20.7394 17.8906V13.9313C20.7394 13.749 20.9538 13.6013 21.2183 13.6013Z" fill="white"/>
<path d="M12.1192 13.6013H17.8658C18.1303 13.6013 18.3447 13.749 18.3447 13.9313V17.8906C18.3447 18.0729 18.1303 18.2206 17.8658 18.2206H12.1192C11.8547 18.2206 11.6403 18.0729 11.6403 17.8906V13.9313C11.6403 13.749 11.8547 13.6013 12.1192 13.6013Z" fill="white"/>
<path d="M3.02007 13.6013H8.76672C9.0312 13.6013 9.24561 13.749 9.24561 13.9313V17.8906C9.24561 18.0729 9.0312 18.2206 8.76672 18.2206H3.02007C2.75559 18.2206 2.54118 18.0729 2.54118 17.8906V13.9313C2.54118 13.749 2.75559 13.6013 3.02007 13.6013Z" fill="white"/>
<path d="M21.2183 19.8702H26.965C27.2294 19.8702 27.4438 20.018 27.4438 20.2002V24.1596C27.4438 24.3418 27.2294 24.4895 26.965 24.4895H21.2183C20.9538 24.4895 20.7394 24.3418 20.7394 24.1596V20.2002C20.7394 20.018 20.9538 19.8702 21.2183 19.8702Z" fill="white"/>
<path d="M12.1192 19.8702H17.8658C18.1303 19.8702 18.3447 20.018 18.3447 20.2002V24.1596C18.3447 24.3418 18.1303 24.4895 17.8658 24.4895H12.1192C11.8547 24.4895 11.6403 24.3418 11.6403 24.1596V20.2002C11.6403 20.018 11.8547 19.8702 12.1192 19.8702Z" fill="white"/>
<path d="M3.02007 19.8702H8.76672C9.0312 19.8702 9.24561 20.018 9.24561 20.2002V24.1596C9.24561 24.3418 9.0312 24.4895 8.76672 24.4895H3.02007C2.75559 24.4895 2.54118 24.3418 2.54118 24.1596V20.2002C2.54118 20.018 2.75559 19.8702 3.02007 19.8702Z" fill="white"/>
</svg>
