<svg width="20" height="22" viewBox="0 0 20 22" fill="none" xmlns="http://www.w3.org/2000/svg">
<path d="M19.3373 3.14286H13.7133V0.785714C13.7133 0.57733 13.6283 0.37748 13.4771 0.23013C13.3258 0.0827803 13.1206 0 12.9067 0H6.45333C6.23939 0 6.03421 0.0827803 5.88293 0.23013C5.73165 0.37748 5.64667 0.57733 5.64667 0.785714V3.14286H0.0226873L0 5.10714H1.66375L2.67662 20.5268C2.70226 20.9255 2.88287 21.2998 3.18172 21.5735C3.48058 21.8471 3.87523 21.9997 4.28542 22H15.0746C15.4845 21.9999 15.8791 21.8479 16.1781 21.5747C16.4771 21.3015 16.6581 20.9277 16.6844 20.5292L17.6963 5.10714H19.36L19.3373 3.14286ZM5.64667 18.8571L5.19292 6.28571H6.85667L7.31042 18.8571H5.64667ZM10.4867 18.8571H8.87333V6.28571H10.4867V18.8571ZM11.6967 3.14286H7.66333V1.76786C7.66333 1.71576 7.68458 1.6658 7.7224 1.62896C7.76022 1.59212 7.81151 1.57143 7.865 1.57143H11.495C11.5485 1.57143 11.5998 1.59212 11.6376 1.62896C11.6754 1.6658 11.6967 1.71576 11.6967 1.76786V3.14286ZM13.7133 18.8571H12.0496L12.5033 6.28571H14.1671L13.7133 18.8571Z" fill="#CF2A27"/>
</svg>
