<svg width="25" height="28" viewBox="0 0 25 28" fill="none" xmlns="http://www.w3.org/2000/svg">
<path d="M16.8062 16.5717C18.5033 15.6014 19.8323 14.0969 20.5865 12.2923C21.3406 10.4878 21.4775 8.48432 20.9759 6.59377C20.4744 4.70323 19.3624 3.03163 17.8132 1.8391C16.2639 0.646573 14.3642 0 12.4097 0C10.4552 0 8.55545 0.646573 7.00618 1.8391C5.45691 3.03163 4.34498 4.70323 3.84341 6.59377C3.34184 8.48432 3.47877 10.4878 4.23289 12.2923C4.98701 14.0969 6.31602 15.6014 8.01311 16.5717C5.92904 17.4181 4.12783 18.8391 2.81888 20.6695C1.50994 22.4999 0.747043 24.6645 0.618889 26.9117C0.616188 26.9577 0.622582 27.0038 0.637705 27.0473C0.652827 27.0908 0.67638 27.1309 0.707013 27.1653C0.737647 27.1996 0.774758 27.2276 0.81622 27.2476C0.857682 27.2676 0.902679 27.2792 0.948631 27.2817H1.59812H1.61811C1.70347 27.2826 1.78585 27.2504 1.84793 27.1917C1.9084 27.1398 1.95046 27.0696 1.96783 26.9917C2.09448 24.7227 2.95264 22.5558 4.41365 20.816C5.87467 19.0762 7.85982 17.8572 10.0715 17.3417L11.2306 17.0817C11.3048 17.0627 11.371 17.0204 11.4196 16.961C11.4681 16.9017 11.4964 16.8283 11.5004 16.7517C11.5042 16.6752 11.4829 16.5995 11.4395 16.5362C11.3962 16.473 11.3333 16.4257 11.2606 16.4017L10.1315 15.9917C8.42081 15.4465 6.96134 14.3071 6.0166 12.7793C5.07186 11.2515 4.70411 9.436 4.97978 7.6606C5.25544 5.88521 6.15634 4.26697 7.51979 3.09811C8.88324 1.92925 10.6194 1.28681 12.4147 1.28681C14.21 1.28681 15.9461 1.92925 17.3096 3.09811C18.673 4.26697 19.5739 5.88521 19.8496 7.6606C20.1252 9.436 19.7575 11.2515 18.8127 12.7793C17.868 14.3071 16.4085 15.4465 14.6979 15.9917L13.6087 16.3917C13.5366 16.418 13.4742 16.4655 13.4296 16.528C13.385 16.5904 13.3604 16.665 13.3589 16.7417C13.3629 16.8183 13.3912 16.8917 13.4398 16.951C13.4883 17.0104 13.5545 17.0527 13.6287 17.0717L14.7878 17.3317C16.9937 17.8552 18.9711 19.0789 20.4245 20.82C21.8779 22.5612 22.7293 24.7263 22.8515 26.9917C22.8601 27.0839 22.9029 27.1696 22.9714 27.2317C23.0034 27.2649 23.0425 27.2903 23.0858 27.3059C23.1291 27.3215 23.1755 27.327 23.2212 27.3217H23.8707C23.9167 27.3192 23.9617 27.3076 24.0031 27.2876C24.0446 27.2676 24.0817 27.2396 24.1123 27.2052C24.143 27.1709 24.1665 27.1308 24.1816 27.0873C24.1968 27.0438 24.2032 26.9977 24.2005 26.9517C24.0797 24.6976 23.3202 22.5244 22.0108 20.6862C20.7014 18.8481 18.8962 17.421 16.8062 16.5717Z" fill="#4E944F"/>
</svg>
