<svg width="33" height="33" viewBox="0 0 33 33" fill="none" xmlns="http://www.w3.org/2000/svg">
<path d="M16.3475 0.0951755C7.34993 -0.0263515 0.00447126 7.31911 0.125998 16.3167C0.245987 24.9459 7.27225 31.9722 15.9014 32.0922C24.9006 32.2152 32.2445 24.8698 32.1214 15.8722C32.003 7.24143 24.9767 0.215164 16.3475 0.0951755ZM26.0712 25.2659C26.0406 25.299 26.0031 25.325 25.9613 25.342C25.9194 25.359 25.8744 25.3666 25.8293 25.3642C25.7843 25.3619 25.7403 25.3497 25.7005 25.3284C25.6607 25.3072 25.626 25.2774 25.599 25.2413C24.911 24.3412 24.0685 23.5705 23.1108 22.9653C21.1525 21.7085 18.6712 21.0163 16.1245 21.0163C13.5778 21.0163 11.0965 21.7085 9.13823 22.9653C8.18053 23.5703 7.33801 24.3406 6.65 25.2405C6.62297 25.2766 6.58832 25.3064 6.54851 25.3276C6.5087 25.3489 6.4647 25.3611 6.41963 25.3635C6.37457 25.3658 6.32954 25.3582 6.28773 25.3412C6.24593 25.3242 6.20837 25.2982 6.17774 25.2651C3.92078 22.8287 2.6423 19.6451 2.5873 16.3244C2.46193 8.83974 8.60366 2.57494 16.0914 2.55648C23.5792 2.53802 29.6617 8.61822 29.6617 16.0937C29.6643 19.4944 28.3818 22.7706 26.0712 25.2659Z" fill="white"/>
<path d="M16.1244 7.60663C14.6077 7.60663 13.2362 8.18486 12.2617 9.23568C11.2872 10.2865 10.8003 11.7395 10.9103 13.2989C11.1334 16.37 13.4724 18.8738 16.1244 18.8738C18.7765 18.8738 21.1109 16.37 21.3386 13.2997C21.4524 11.7552 20.9694 10.3155 19.9787 9.24507C19.0003 8.18877 17.6312 7.60663 16.1244 7.60663Z" fill="white"/>
</svg>
