<svg width="29" height="21" viewBox="0 0 29 21" fill="none" xmlns="http://www.w3.org/2000/svg">
<path d="M14.5 14.8324C16.4576 14.8324 18.0445 13.0415 18.0445 10.8324C18.0445 8.62326 16.4576 6.8324 14.5 6.8324C12.5425 6.8324 10.9556 8.62326 10.9556 10.8324C10.9556 13.0415 12.5425 14.8324 14.5 14.8324Z" fill="#413F42"/>
<path d="M22.887 3.65615C20.2456 1.7824 17.4187 0.832397 14.4855 0.832397C11.8459 0.832397 9.27275 1.6449 6.83735 3.2374C4.38142 4.84677 1.97381 7.7699 0 10.8324C1.59621 13.5824 3.77967 16.4099 6.05375 18.0311C8.66254 19.8899 11.4991 20.8324 14.4855 20.8324C17.4459 20.8324 20.2764 19.8905 22.9015 18.033C25.2125 16.3949 27.4116 13.5711 29 10.8324C27.4062 8.11802 25.1998 5.2974 22.887 3.65615ZM14.5 16.8324C13.3529 16.8324 12.2315 16.4805 11.2777 15.8212C10.3239 15.1619 9.58049 14.2249 9.1415 13.1285C8.70251 12.0321 8.58765 10.8257 8.81145 9.66186C9.03524 8.49797 9.58764 7.42887 10.3988 6.58976C11.2099 5.75064 12.2434 5.1792 13.3685 4.94769C14.4936 4.71617 15.6598 4.83499 16.7196 5.28912C17.7794 5.74325 18.6852 6.51228 19.3225 7.49898C19.9598 8.48567 20.3 9.64571 20.3 10.8324C20.2982 12.4231 19.6866 13.9482 18.5993 15.073C17.5119 16.1979 16.0377 16.8306 14.5 16.8324Z" fill="#413F42"/>
</svg>
