<svg width="29" height="29" viewBox="0 0 29 29" fill="none" xmlns="http://www.w3.org/2000/svg">
<path fill-rule="evenodd" clip-rule="evenodd" d="M14.5 3.5C8.42487 3.5 3.5 8.42487 3.5 14.5C3.5 20.5751 8.42487 25.5 14.5 25.5C20.5751 25.5 25.5 20.5751 25.5 14.5C25.5 8.42487 20.5751 3.5 14.5 3.5ZM0.75 14.5C0.750001 6.90608 6.90609 0.749998 14.5 0.749999C22.0939 0.75 28.25 6.90608 28.25 14.5C28.25 22.0939 22.0939 28.25 14.5 28.25C6.90608 28.25 0.749999 22.0939 0.75 14.5ZM14.0973 9.40273C14.6342 9.9397 14.6342 10.8103 14.0973 11.3473L12.3195 13.125L20 13.125C20.7594 13.125 21.375 13.7406 21.375 14.5C21.375 15.2594 20.7594 15.875 20 15.875L12.3195 15.875L14.0973 17.6527C14.6342 18.1897 14.6342 19.0603 14.0973 19.5973C13.5603 20.1342 12.6897 20.1342 12.1527 19.5973L8.02773 15.4723C7.49076 14.9353 7.49076 14.0647 8.02773 13.5277L12.1527 9.40273C12.6897 8.86576 13.5603 8.86576 14.0973 9.40273Z" fill="white"/>
</svg>
