<svg width="113" height="62" viewBox="0 0 113 62" fill="none" xmlns="http://www.w3.org/2000/svg">
<g clip-path="url(#clip0_91_1227)">
<path d="M22.1353 19.0569C19.9401 19.0569 18.0874 19.7963 16.6279 21.2517C15.1683 22.7071 14.4268 24.5546 14.4268 26.7436C14.4268 28.9326 15.1683 30.7801 16.6279 32.2355C18.0874 33.6929 19.9401 34.4303 22.1353 34.4303C23.8002 34.4303 25.3204 33.9855 26.6547 33.1057L26.8875 32.9515V29.8125L26.0247 30.5772C24.9036 31.5722 23.632 32.056 22.1353 32.056C20.5603 32.056 19.3062 31.5683 18.3026 30.5655C17.297 29.5627 16.8079 28.3141 16.8079 26.7436C16.8079 25.1731 17.297 23.8913 18.3026 22.8885C19.2867 21.9092 20.5408 21.4312 22.1353 21.4312C22.8239 21.4312 23.5674 21.5638 24.348 21.8253L25.2108 22.2837L26.8875 23.3763V20.522L26.684 20.366C25.5434 19.4958 24.0135 19.053 22.1353 19.053V19.0569Z" fill="#14314F"/>
<path d="M36.5074 19.0569C34.2907 19.0569 32.4262 19.7943 30.9667 21.2517C29.5287 22.6856 28.799 24.5332 28.799 26.7436C28.799 28.954 29.5404 30.7801 30.996 32.2316C32.434 33.6909 34.2888 34.4303 36.5074 34.4303C37.4308 34.4303 38.276 34.3094 39.0175 34.0714C40.9563 33.451 42.4159 32.2394 43.3491 30.4699L43.6034 29.988L41.4474 28.9989L41.2068 29.3871C40.5064 30.5167 39.7179 31.2698 38.8629 31.6268C38.1684 31.9117 37.3741 32.056 36.5074 32.056C34.8033 32.056 33.5101 31.5605 32.5553 30.548C31.7356 29.6583 31.2778 28.4526 31.1936 26.9582H44.1825V26.4412C44.1825 24.2698 43.4371 22.4749 41.9717 21.1073C40.5337 19.7456 38.6947 19.0549 36.5074 19.0549V19.0569ZM31.6025 24.619C32.4966 22.4769 34.1068 21.4312 36.5074 21.4312C37.7732 21.4312 38.861 21.7726 39.8353 22.4749C40.6453 23.0524 41.1794 23.7567 41.4592 24.619H31.6045H31.6025Z" fill="#14314F"/>
<path d="M58.8657 19.0569C56.649 19.0569 54.7845 19.7963 53.325 21.2517C51.887 22.6856 51.1573 24.5332 51.1573 26.7436C51.1573 28.954 51.8988 30.7801 53.3544 32.2316C54.7924 33.6909 56.6471 34.4303 58.8657 34.4303C59.7892 34.4303 60.6343 34.3094 61.3758 34.0714C63.3147 33.451 64.7742 32.2394 65.7094 30.4699L65.9657 29.988L63.8077 28.9989L63.5671 29.3891C62.8686 30.5187 62.0782 31.2718 61.2232 31.6288C60.5287 31.9136 59.7363 32.058 58.8677 32.058C57.1636 32.058 55.8704 31.5625 54.9156 30.5499C54.0959 29.6603 53.6381 28.4546 53.5539 26.9602H66.5428V26.4432C66.5428 24.2718 65.7974 22.4769 64.332 21.1093C62.894 19.7475 61.055 19.0569 58.8677 19.0569H58.8657ZM53.9609 24.619C54.855 22.4769 56.4651 21.4312 58.8657 21.4312C60.1139 21.4312 61.233 21.7824 62.1936 22.4749C63.0016 23.0524 63.5377 23.7567 63.8175 24.619H53.9628H53.9609Z" fill="#14314F"/>
<path d="M76.237 19.0901C74.1847 19.0901 72.4454 19.7554 71.0446 21.0722V19.291H68.6303V40.6617H71.0446V32.3858C72.4845 33.7202 74.2258 34.3953 76.237 34.3953C78.3852 34.3953 80.2262 33.6461 81.7112 32.1673C83.1726 30.7099 83.9122 28.8858 83.9122 26.7417C83.9122 24.5976 83.1609 22.7637 81.6779 21.283C80.2164 19.8256 78.3852 19.0881 76.237 19.0881V19.0901ZM81.5312 26.7437C81.5312 28.2225 81.0205 29.4516 79.9699 30.4992C78.9408 31.5254 77.72 32.0229 76.237 32.0229C74.754 32.0229 73.5547 31.5137 72.5041 30.4641C71.4535 29.4164 70.9409 28.1991 70.9409 26.7437C70.9409 25.2882 71.4515 24.0357 72.5041 22.9881C73.5312 21.9619 74.754 21.4644 76.237 21.4644C77.72 21.4644 78.9193 21.9736 79.9699 23.0212C81.0205 24.0689 81.5312 25.2863 81.5312 26.7437Z" fill="#14314F"/>
<path d="M94.479 26.4588C94.2051 26.2598 93.8158 26.0413 93.2875 25.7896C92.7769 25.5477 92.1273 25.2863 91.3467 25.0112C90.5328 24.742 89.942 24.4649 89.5957 24.1977C89.222 23.8914 89.0459 23.5304 89.0459 23.0564C89.0459 22.2682 89.2729 21.4624 90.9476 21.4624C92.0002 21.4624 92.8375 21.7863 93.5047 22.4516L93.8471 22.791L95.6411 21.24L95.2479 20.8479C94.076 19.6793 92.6301 19.0881 90.9496 19.0881C89.6935 19.0881 88.6546 19.4881 87.8721 20.2665C87.0503 21.0352 86.6336 21.9736 86.6336 23.0564C86.6336 24.3089 87.0601 25.2902 87.8994 25.9691C88.4414 26.412 89.2846 26.8353 90.4663 27.2607C91.065 27.4811 91.5697 27.6762 91.9806 27.8401C92.3523 27.9903 92.6399 28.1249 92.8395 28.24C93.4342 28.7161 93.7258 29.2467 93.7258 29.8574C93.7258 30.8641 93.4245 32.021 91.0845 32.021C90.2413 32.021 89.5781 31.8415 89.1007 31.4786C88.6292 31.1469 88.2183 30.6631 87.8779 30.0447L87.6177 29.5725L85.5497 30.8094L85.7923 31.2464C86.9603 33.3574 88.7407 34.4284 91.0845 34.4284C92.4599 34.4284 93.6573 34.0031 94.6453 33.1681C95.6372 32.3312 96.14 31.2172 96.14 29.8574C96.14 28.4976 95.5863 27.3016 94.4829 26.4569L94.479 26.4588Z" fill="#14314F"/>
<path d="M110.786 19.291V20.9532C109.375 19.7163 107.691 19.0901 105.76 19.0901C103.612 19.0901 101.769 19.8393 100.286 21.3181C98.8243 22.7754 98.0847 24.5996 98.0847 26.7437C98.0847 28.8877 98.836 30.7236 100.319 32.2024C101.779 33.6578 103.61 34.3972 105.76 34.3972C107.703 34.3972 109.389 33.7749 110.786 32.5438V34.1631H113.2V19.291H110.786ZM111.054 26.7437C111.054 28.2225 110.543 29.4516 109.491 30.4992C108.464 31.5254 107.243 32.0229 105.76 32.0229C104.277 32.0229 103.08 31.5137 102.027 30.4641C100.976 29.4165 100.466 28.1991 100.466 26.7437C100.466 25.2882 100.976 24.0357 102.027 22.9881C103.078 21.9404 104.277 21.4644 105.76 21.4644C107.243 21.4644 108.44 21.9736 109.491 23.0212C110.541 24.0689 111.054 25.2863 111.054 26.7437Z" fill="#14314F"/>
<path d="M49.3828 35.8525C49.3143 35.5189 49.2791 35.1755 49.2595 34.8263C49.2517 34.6956 49.24 34.5668 49.24 34.4361C49.24 33.8294 49.2341 32.573 49.2341 32.573V16.0855C49.2341 15.1335 49.0893 14.2165 48.8252 13.3483C48.5063 12.2987 48.0055 11.3291 47.3677 10.4668L45.1549 11.4969C45.2566 11.6179 45.3525 11.7447 45.4484 11.8715C46.3249 13.0518 46.8492 14.5072 46.8492 16.0855V31.4629C46.8492 31.4629 46.857 34.4342 46.857 34.4361C46.857 35.3102 46.9861 36.1549 47.2092 36.9587C47.3364 37.4133 47.4909 37.8561 47.6807 38.2815C47.9448 38.8726 48.2676 39.4286 48.6413 39.9495L48.6941 39.9241L49.8132 39.4032L50.8423 38.9233C50.6799 38.7243 50.5312 38.5156 50.3904 38.301C49.911 37.5655 49.5608 36.7402 49.3808 35.8525H49.3828Z" fill="#003057"/>
<path d="M45.4582 41.9902L44.9945 41.3094L44.5348 41.8439C43.0498 43.5705 41.3282 45.0669 39.4206 46.2921C35.5253 48.7932 30.9981 50.0808 26.3554 49.9755C13.5015 49.7121 3.25756 39.0697 3.52168 26.2519C3.77993 13.6937 14.2352 3.47659 26.8269 3.47659C26.9893 3.47659 27.1497 3.47659 27.3121 3.48244C31.5518 3.57023 35.6818 4.80713 39.2563 7.06048C40.6082 7.91304 41.8877 8.91973 43.0537 10.0493L43.3218 10.3088L46.6595 8.75585L46.1352 8.21154C41.1716 3.06494 34.506 0.152174 27.3689 0.00585284C27.183 0.00195095 26.9971 0 26.8113 0C12.3277 0 0.303319 11.7506 0.0059388 26.1954C-0.297311 40.9387 11.4844 53.177 26.2693 53.4813C26.4552 53.4852 26.6411 53.4872 26.825 53.4872C34.4121 53.4872 41.6862 50.2349 46.7827 44.5655L47.0723 44.2436L45.5678 42.1502C45.5306 42.0995 45.4954 42.0449 45.4602 41.9922L45.4582 41.9902Z" fill="url(#paint0_linear_91_1227)"/>
<path d="M52.3468 11.9671L52.6559 12.9075L53.28 12.1368C57.8444 6.50836 64.6607 3.33612 71.8879 3.48244C80.4473 3.65803 88.2105 8.49638 92.1489 16.1109L92.2741 16.3528L92.5441 16.3958C93.5673 16.5616 94.5573 16.8757 95.4846 17.3322L96.7641 17.9604L96.2242 16.6455C92.1626 6.75613 82.6327 0.224359 71.9466 0.00585284C71.7607 0.00195095 71.5748 0 71.3909 0C63.7686 0 56.473 3.27954 51.3706 8.99582L51.1143 9.28456L51.304 9.62012C51.7325 10.3751 52.0827 11.1633 52.3468 11.9671Z" fill="url(#paint1_linear_91_1227)"/>
<path d="M92.5088 37.1285L92.2388 37.1714L92.1136 37.4133C87.9992 45.3108 79.8565 50.1745 70.9311 49.9774C65.0226 49.8565 59.4292 47.5212 55.1758 43.3989C54.2817 42.5326 53.4463 41.5825 52.697 40.5758L52.4329 40.2227L49.1891 41.7347L49.5667 42.2614C54.4793 49.1132 62.4323 53.3077 70.845 53.4794C71.0309 53.4833 71.2168 53.4852 71.4026 53.4852C82.3099 53.4852 92.0432 46.9691 96.2026 36.8846L96.7446 35.5697L95.465 36.194C94.5338 36.6486 93.5379 36.9627 92.5069 37.1266L92.5088 37.1285Z" fill="url(#paint2_linear_91_1227)"/>
<path d="M5.79892 58.5814V55.8013H6.47585V58.5755C6.47585 58.9072 6.56389 59.1686 6.73802 59.3559C6.91214 59.5451 7.16452 59.6388 7.49321 59.6388C7.82189 59.6388 8.07232 59.5432 8.24644 59.3539C8.42252 59.1647 8.51056 58.9033 8.51056 58.5677V55.7993H9.18162V58.5736C9.18162 59.0828 9.02902 59.4925 8.72577 59.8007C8.42252 60.109 8.01167 60.2631 7.49321 60.2631C6.97475 60.2631 6.55215 60.1109 6.25086 59.8046C5.94957 59.4983 5.79892 59.0906 5.79892 58.5794V58.5814Z" fill="#1D1D1B"/>
<path d="M10.1951 60.1831V56.9095H10.8348V57.3465H10.8779C10.9503 57.2001 11.0696 57.0772 11.2398 56.9758C11.41 56.8743 11.6096 56.8256 11.8404 56.8256C12.2063 56.8256 12.4978 56.9446 12.7169 57.1806C12.9361 57.4167 13.0456 57.7171 13.0456 58.08V60.1831H12.3863V58.2068C12.3863 57.9805 12.3159 57.7971 12.177 57.6547C12.0361 57.5123 11.862 57.4421 11.6507 57.4421C11.4218 57.4421 11.232 57.5201 11.0813 57.6781C10.9307 57.8362 10.8544 58.0332 10.8544 58.2732V60.1831H10.1951Z" fill="#1D1D1B"/>
<path d="M14.2019 59.791C13.9065 59.475 13.7597 59.0633 13.7597 58.5561C13.7597 58.0488 13.9065 57.6333 14.198 57.3114C14.4895 56.9894 14.8651 56.8275 15.3229 56.8275C15.4697 56.8275 15.6086 56.847 15.7358 56.888C15.8629 56.929 15.9725 56.9816 16.0586 57.046C16.1446 57.1104 16.2151 57.1709 16.2659 57.2255C16.3168 57.2801 16.3599 57.3328 16.3951 57.3855H16.4401V56.9095H17.0994V60.1831H16.4518V59.7188H16.4127C16.1525 60.0836 15.8003 60.2651 15.3523 60.2651C14.8808 60.2651 14.4973 60.1071 14.2019 59.791ZM14.4308 58.5463C14.4308 58.8838 14.5247 59.155 14.7106 59.3598C14.8984 59.5647 15.1429 59.6661 15.4482 59.6661C15.7534 59.6661 15.9999 59.5588 16.1838 59.3462C16.3677 59.1316 16.4596 58.8663 16.4596 58.5463C16.4596 58.2029 16.3638 57.9298 16.174 57.7289C15.9823 57.5279 15.7397 57.4284 15.4423 57.4284C15.1449 57.4284 14.9003 57.5338 14.7125 57.7425C14.5247 57.9513 14.4308 58.2205 14.4308 58.5483V58.5463Z" fill="#1D1D1B"/>
<path d="M19.5215 58.5561C19.5215 58.2166 19.5939 57.9142 19.7367 57.6508C19.8795 57.3874 20.0752 57.1845 20.3236 57.0421C20.5721 56.8997 20.8519 56.8275 21.161 56.8275C21.4095 56.8275 21.6364 56.8704 21.8418 56.9582C22.0453 57.046 22.2155 57.165 22.3486 57.3192C22.4816 57.4713 22.5853 57.6508 22.6577 57.8537C22.7301 58.0566 22.7672 58.2771 22.7672 58.5112V58.7551H20.1808C20.1925 59.0418 20.2904 59.274 20.4723 59.4496C20.6543 59.6252 20.8949 59.713 21.1923 59.713C21.3997 59.713 21.5875 59.6661 21.7518 59.5725C21.9162 59.4789 22.0316 59.352 22.0962 59.194H22.7359C22.6499 59.5159 22.4679 59.7754 22.1881 59.9724C21.9084 60.1695 21.5699 60.267 21.1727 60.267C20.6836 60.267 20.2865 60.1071 19.9813 59.7852C19.676 59.4632 19.5215 59.0555 19.5215 58.558V58.5561ZM20.1925 58.2478H22.1138C22.0942 57.9786 21.9944 57.7659 21.8164 57.6098C21.6384 57.4538 21.4192 57.3757 21.161 57.3757C20.9027 57.3757 20.6895 57.4577 20.5056 57.6196C20.3217 57.7835 20.218 57.9922 20.1925 58.2459V58.2478Z" fill="#1D1D1B"/>
<path d="M23.5635 60.1831V56.9095H24.2033V57.3406H24.2463C24.3246 57.1904 24.442 57.0675 24.5985 56.9719C24.755 56.8763 24.9448 56.8275 25.1678 56.8275C25.3908 56.8275 25.6002 56.8763 25.7723 56.9738C25.9445 57.0714 26.0776 57.206 26.1734 57.3777H26.2165C26.4258 57.0109 26.7623 56.8275 27.2279 56.8275C27.5879 56.8275 27.8775 56.9407 28.0966 57.165C28.3157 57.3894 28.4253 57.6801 28.4253 58.0371V60.1831H27.766V58.2615C27.766 57.9981 27.7053 57.7971 27.586 57.6547C27.4647 57.5123 27.2964 57.4421 27.0773 57.4421C26.8582 57.4421 26.6841 57.5162 26.5432 57.6664C26.4004 57.8166 26.3299 58.0176 26.3299 58.2732V60.1831H25.6706V58.1873C25.6706 57.961 25.606 57.7815 25.475 57.645C25.3439 57.5103 25.1737 57.4421 24.9624 57.4421C24.7511 57.4421 24.575 57.5182 24.4341 57.6703C24.2913 57.8225 24.2209 58.0176 24.2209 58.2556V60.1831H23.5616H23.5635Z" fill="#1D1D1B"/>
<path d="M29.3722 61.621V56.9095H30.0119V57.3777H30.055C30.0824 57.3387 30.1078 57.3016 30.1372 57.2684C30.1646 57.2333 30.2115 57.1865 30.2761 57.1299C30.3406 57.0714 30.4111 57.0226 30.4835 56.9816C30.5558 56.9407 30.6478 56.9056 30.7593 56.8743C30.8708 56.8431 30.9882 56.8295 31.1095 56.8295C31.583 56.8295 31.9684 56.9875 32.2619 57.3035C32.5553 57.6196 32.704 58.0312 32.704 58.5385C32.704 59.0457 32.5593 59.4613 32.2697 59.7832C31.9801 60.1071 31.6065 60.267 31.1506 60.267C31.0019 60.267 30.8611 60.2475 30.7319 60.2066C30.6028 60.1656 30.4932 60.1149 30.4072 60.0505C30.3211 59.988 30.2506 59.9276 30.1978 59.871C30.145 59.8144 30.1019 59.7598 30.0687 59.7071H30.0315V61.6229H29.3722V61.621ZM30.0119 58.5404C30.0119 58.8838 30.1078 59.1589 30.2976 59.3618C30.4893 59.5647 30.7319 59.6681 31.0293 59.6681C31.3267 59.6681 31.5673 59.5627 31.7532 59.352C31.9391 59.1413 32.033 58.8702 32.033 58.5404C32.033 58.2107 31.941 57.9298 31.7551 57.7269C31.5712 57.524 31.3247 57.4226 31.0176 57.4226C30.7104 57.4226 30.4678 57.5279 30.2859 57.7425C30.1039 57.9552 30.0139 58.2224 30.0139 58.5424L30.0119 58.5404Z" fill="#1D1D1B"/>
<path d="M33.5003 60.1831V56.9094H34.1342V57.4771H34.1772C34.234 57.3269 34.3416 57.1923 34.4981 57.0772C34.6546 56.9621 34.8405 56.9036 35.0557 56.9036H35.3433V57.5415H35.0361C34.7622 57.5415 34.547 57.6352 34.3905 57.8225C34.234 58.0097 34.1557 58.2575 34.1557 58.5677V60.1812H33.4964L33.5003 60.1831Z" fill="#1D1D1B"/>
<path d="M35.7502 58.5561C35.7502 58.2166 35.8226 57.9142 35.9655 57.6508C36.1083 57.3874 36.3039 57.1845 36.5524 57.0421C36.8009 56.8997 37.0806 56.8275 37.3898 56.8275C37.6382 56.8275 37.8652 56.8704 38.0706 56.9582C38.2741 57.046 38.4443 57.165 38.5773 57.3192C38.7104 57.4713 38.814 57.6508 38.8864 57.8537C38.9588 58.0566 38.996 58.2771 38.996 58.5112V58.7551H36.4096C36.4213 59.0418 36.5191 59.274 36.7011 59.4496C36.883 59.6252 37.1237 59.713 37.4211 59.713C37.6284 59.713 37.8163 59.6661 37.9806 59.5725C38.1449 59.4789 38.2604 59.352 38.3249 59.194H38.9647C38.8786 59.5159 38.6967 59.7754 38.4169 59.9724C38.1371 60.1695 37.7986 60.267 37.4015 60.267C36.9124 60.267 36.5152 60.1071 36.21 59.7852C35.9048 59.4632 35.7502 59.0555 35.7502 58.558V58.5561ZM36.4213 58.2478H38.3425C38.323 57.9786 38.2232 57.7659 38.0452 57.6098C37.8671 57.4538 37.648 57.3757 37.3898 57.3757C37.1315 57.3757 36.9182 57.4577 36.7343 57.6196C36.5504 57.7835 36.4467 57.9922 36.4213 58.2459V58.2478Z" fill="#1D1D1B"/>
<path d="M39.6025 59.2135H40.2246C40.2677 59.553 40.5064 59.7247 40.9426 59.7247C41.1559 59.7247 41.3202 59.6817 41.4376 59.594C41.555 59.5081 41.6137 59.3911 41.6137 59.2447C41.6137 59.1374 41.5785 59.0496 41.5081 58.9833C41.4376 58.917 41.3457 58.8682 41.2322 58.837C41.1187 58.8058 40.9935 58.7785 40.8566 58.7551C40.7196 58.7316 40.5827 58.7024 40.4477 58.6673C40.3127 58.6302 40.1875 58.5814 40.074 58.5209C39.9605 58.4605 39.8686 58.3668 39.7981 58.2439C39.7277 58.121 39.6925 57.9688 39.6925 57.7874C39.6925 57.5084 39.806 57.2782 40.0349 57.0987C40.2638 56.9192 40.5631 56.8275 40.9368 56.8275C41.2733 56.8275 41.555 56.9153 41.782 57.0909C42.0089 57.2665 42.1341 57.5064 42.1596 57.8127H41.555C41.5374 57.6703 41.4728 57.5572 41.3613 57.4772C41.2518 57.3952 41.0992 57.3543 40.9074 57.3543C40.7255 57.3543 40.5807 57.3933 40.4711 57.4713C40.3616 57.5494 40.3068 57.6508 40.3068 57.7757C40.3068 57.8615 40.3342 57.9317 40.3909 57.9903C40.4477 58.0469 40.5201 58.0878 40.612 58.1132C40.702 58.1386 40.8057 58.162 40.9231 58.1854C41.0405 58.2088 41.1579 58.2302 41.2792 58.2478C41.4005 58.2654 41.5198 58.2985 41.6372 58.3434C41.7546 58.3883 41.8563 58.4429 41.9483 58.5073C42.0383 58.5717 42.1126 58.6653 42.1693 58.7863C42.2261 58.9072 42.2535 59.0516 42.2535 59.2174C42.2535 59.5315 42.1341 59.7851 41.8935 59.9783C41.6528 60.1714 41.33 60.269 40.9231 60.269C40.5161 60.269 40.2012 60.1753 39.9742 59.9861C39.7492 59.7988 39.624 59.5413 39.6025 59.2174V59.2135Z" fill="#1D1D1B"/>
<path d="M43.3276 59.791C43.0321 59.475 42.8854 59.0633 42.8854 58.5561C42.8854 58.0488 43.0321 57.6333 43.3237 57.3114C43.6152 56.9894 43.9908 56.8275 44.4486 56.8275C44.5953 56.8275 44.7343 56.847 44.8614 56.888C44.9886 56.929 45.0982 56.9816 45.1842 57.046C45.2703 57.1104 45.3408 57.1709 45.3916 57.2255C45.4425 57.2801 45.4855 57.3328 45.5207 57.3855H45.5657V56.9095H46.2251V60.1831H45.5775V59.7188H45.5384C45.2781 60.0836 44.926 60.2651 44.478 60.2651C44.0065 60.2651 43.623 60.1071 43.3276 59.791ZM43.5565 58.5463C43.5565 58.8838 43.6504 59.155 43.8362 59.3598C44.0241 59.5647 44.2686 59.6661 44.5738 59.6661C44.879 59.6661 45.1255 59.5588 45.3094 59.3462C45.4934 59.1316 45.5853 58.8663 45.5853 58.5463C45.5853 58.2029 45.4894 57.9298 45.2997 57.7289C45.1079 57.5279 44.8653 57.4284 44.568 57.4284C44.2706 57.4284 44.026 57.5338 43.8382 57.7425C43.6504 57.9513 43.5565 58.2205 43.5565 58.5483V58.5463Z" fill="#1D1D1B"/>
<path d="M49.0893 59.791C48.7939 59.4749 48.6472 59.0633 48.6472 58.556C48.6472 58.0488 48.7939 57.6332 49.0854 57.3113C49.3769 56.9894 49.7526 56.8275 50.2104 56.8275C50.3571 56.8275 50.496 56.847 50.6232 56.888C50.7503 56.9289 50.8599 56.9816 50.946 57.046C51.0321 57.1104 51.1025 57.1709 51.1534 57.2255C51.2042 57.2801 51.2473 57.3328 51.2825 57.3855H51.3275V55.4872H51.9868V60.1812H51.3392V59.7168H51.3001C51.0399 60.0817 50.6877 60.2631 50.2397 60.2631C49.7682 60.2631 49.3847 60.1051 49.0893 59.789V59.791ZM49.3182 58.5463C49.3182 58.8838 49.4121 59.155 49.598 59.3598C49.7858 59.5647 50.0304 59.6661 50.3356 59.6661C50.6408 59.6661 50.8873 59.5588 51.0712 59.3462C51.2551 59.1316 51.3471 58.8662 51.3471 58.5463C51.3471 58.2029 51.2512 57.9298 51.0614 57.7288C50.8697 57.5279 50.6271 57.4284 50.3297 57.4284C50.0323 57.4284 49.7878 57.5337 49.5999 57.7425C49.4121 57.9512 49.3182 58.2205 49.3182 58.5482V58.5463Z" fill="#1D1D1B"/>
<path d="M52.699 58.5561C52.699 58.2166 52.7714 57.9142 52.9142 57.6508C53.057 57.3874 53.2527 57.1845 53.5011 57.0421C53.7496 56.8997 54.0294 56.8275 54.3385 56.8275C54.587 56.8275 54.8139 56.8704 55.0193 56.9582C55.2228 57.046 55.393 57.165 55.526 57.3192C55.6591 57.4713 55.7628 57.6508 55.8352 57.8537C55.9076 58.0566 55.9447 58.2771 55.9447 58.5112V58.7551H53.3583C53.37 59.0418 53.4679 59.274 53.6498 59.4496C53.8318 59.6252 54.0724 59.713 54.3698 59.713C54.5772 59.713 54.765 59.6661 54.9293 59.5725C55.0937 59.4789 55.2091 59.352 55.2737 59.194H55.9134C55.8273 59.5159 55.6454 59.7754 55.3656 59.9724C55.0858 60.1695 54.7474 60.267 54.3502 60.267C53.8611 60.267 53.4639 60.1071 53.1587 59.7852C52.8535 59.4632 52.699 59.0555 52.699 58.558V58.5561ZM53.37 58.2478H55.2913C55.2717 57.9786 55.1719 57.7659 54.9939 57.6098C54.8159 57.4538 54.5967 57.3757 54.3385 57.3757C54.0802 57.3757 53.867 57.4577 53.6831 57.6196C53.4992 57.7835 53.3955 57.9922 53.37 58.2459V58.2478Z" fill="#1D1D1B"/>
<path d="M56.5982 59.3696V55.4891H57.2575V59.3305C57.2575 59.4183 57.279 59.4847 57.3221 59.5315C57.3651 59.5783 57.4277 59.6017 57.5099 59.6017H57.6469V60.1831H57.3769C57.1304 60.1831 56.9386 60.1109 56.8017 59.9685C56.6667 59.8261 56.5982 59.6271 56.5982 59.3696Z" fill="#1D1D1B"/>
<path d="M59.9711 57.9922C59.9711 57.5669 60.069 57.1806 60.2626 56.8353C60.4563 56.49 60.7283 56.2188 61.0785 56.0198C61.4287 55.8208 61.8219 55.7213 62.2563 55.7213C62.7728 55.7213 63.2188 55.8579 63.5945 56.133C63.9701 56.4081 64.2245 56.7651 64.3594 57.2021H63.6121C63.5045 56.9426 63.3323 56.7378 63.0995 56.5856C62.8647 56.4334 62.585 56.3573 62.2582 56.3573C61.7906 56.3573 61.4091 56.5114 61.1176 56.8197C60.8241 57.1279 60.6774 57.5181 60.6774 57.9883C60.6774 58.4585 60.8241 58.8584 61.1196 59.1667C61.413 59.4749 61.7965 59.6291 62.2661 59.6291C62.6691 59.6291 63.0075 59.5159 63.2834 59.2877C63.5593 59.0594 63.7099 58.7687 63.7334 58.4136H62.1526V57.8459H64.4886V57.9044C64.4886 58.2653 64.4338 58.5912 64.3262 58.8858C64.2147 59.194 64.0562 59.4476 63.8547 59.6466C63.6532 59.8456 63.4145 59.9997 63.1445 60.1051C62.8725 60.2104 62.5791 60.2631 62.2621 60.2631C61.9452 60.2631 61.6322 60.2065 61.3485 60.0914C61.0648 59.9763 60.8222 59.8183 60.6207 59.6174C60.4192 59.4164 60.2607 59.1764 60.1472 58.8936C60.0337 58.6126 59.975 58.3102 59.975 57.9883L59.9711 57.9922Z" fill="#1D1D1B"/>
<path d="M65.2927 60.1831V56.9094H65.9266V57.4771H65.9696C66.0263 57.3269 66.1339 57.1923 66.2905 57.0772C66.447 56.9621 66.6328 56.9036 66.848 56.9036H67.1356V57.5415H66.8285C66.5546 57.5415 66.3394 57.6352 66.1829 57.8225C66.0263 58.0097 65.9481 58.2575 65.9481 58.5677V60.1812H65.2888L65.2927 60.1831Z" fill="#1D1D1B"/>
<path d="M67.8439 59.0125V56.9094H68.5032V58.8935C68.5032 59.1218 68.5717 59.3071 68.7106 59.4476C68.8495 59.5881 69.0236 59.6583 69.2349 59.6583C69.4658 59.6583 69.6555 59.5803 69.8062 59.4242C69.9568 59.2681 70.0312 59.0711 70.0312 58.8331V56.9114H70.6905V60.1851H70.0507V59.748H70.0077C69.9353 59.8944 69.816 60.0173 69.6477 60.1187C69.4795 60.2182 69.2799 60.269 69.049 60.269C68.6832 60.269 68.3917 60.1499 68.1726 59.9139C67.9534 59.6778 67.8439 59.3774 67.8439 59.0145V59.0125Z" fill="#1D1D1B"/>
<path d="M71.657 61.621V56.9095H72.2967V57.3777H72.3398C72.3672 57.3387 72.3926 57.3016 72.422 57.2684C72.4494 57.2333 72.4963 57.1865 72.5609 57.1299C72.6254 57.0714 72.6959 57.0226 72.7683 56.9816C72.8406 56.9407 72.9326 56.9056 73.0441 56.8743C73.1556 56.8431 73.273 56.8295 73.3943 56.8295C73.8678 56.8295 74.2532 56.9875 74.5467 57.3035C74.8401 57.6196 74.9869 58.0312 74.9869 58.5385C74.9869 59.0457 74.8421 59.4613 74.5525 59.7832C74.263 60.1071 73.8893 60.267 73.4334 60.267C73.2848 60.267 73.1458 60.2475 73.0148 60.2066C72.8856 60.1656 72.7761 60.1149 72.69 60.0505C72.6039 59.988 72.5335 59.9276 72.4807 59.871C72.4278 59.8144 72.3848 59.7598 72.3515 59.7071H72.3144V61.6229H71.655L71.657 61.621ZM72.2967 58.5404C72.2967 58.8838 72.3926 59.1589 72.5824 59.3618C72.7741 59.5647 73.0167 59.6681 73.3141 59.6681C73.6115 59.6681 73.8521 59.5627 74.038 59.352C74.2238 59.1413 74.3178 58.8702 74.3178 58.5404C74.3178 58.2107 74.2258 57.9298 74.0399 57.7269C73.8541 57.524 73.6095 57.4226 73.3024 57.4226C72.9952 57.4226 72.7526 57.5279 72.5706 57.7425C72.3887 57.9552 72.2987 58.2224 72.2987 58.5424L72.2967 58.5404Z" fill="#1D1D1B"/>
<path d="M75.5523 58.5483C75.5523 58.2244 75.6267 57.9318 75.7734 57.6684C75.9221 57.405 76.1275 57.2001 76.3936 57.0519C76.6597 56.9036 76.957 56.8295 77.2877 56.8295C77.6183 56.8295 77.9157 56.9056 78.1818 57.0558C78.4479 57.206 78.6513 57.4128 78.7981 57.6742C78.9448 57.9357 79.0172 58.2283 79.0172 58.5502C79.0172 58.8721 78.9428 59.1648 78.7941 59.4262C78.6455 59.6876 78.44 59.8944 78.174 60.0427C77.9079 60.1909 77.6105 60.267 77.2818 60.267C76.779 60.267 76.3642 60.1051 76.0395 59.7793C75.7147 59.4535 75.5504 59.0438 75.5504 58.5502L75.5523 58.5483ZM76.2234 58.5483C76.2234 58.8741 76.3232 59.1433 76.5227 59.354C76.7223 59.5647 76.9766 59.67 77.2838 59.67C77.5909 59.67 77.8492 59.5647 78.0487 59.352C78.2483 59.1394 78.3481 58.8721 78.3481 58.5483C78.3481 58.2244 78.2483 57.9552 78.0487 57.7445C77.8492 57.5338 77.5948 57.4304 77.2838 57.4304C76.9727 57.4304 76.7184 57.5357 76.5208 57.7464C76.3232 57.9571 76.2234 58.2244 76.2234 58.5483Z" fill="#1D1D1B"/>
<path d="M81.5058 58.5814V55.8013H82.1827V58.5755C82.1827 58.9072 82.2707 59.1686 82.4449 59.3559C82.619 59.5451 82.8714 59.6388 83.2001 59.6388C83.5287 59.6388 83.7792 59.5432 83.9533 59.3539C84.1294 59.1647 84.2174 58.9033 84.2174 58.5677V55.7993H84.8885V58.5736C84.8885 59.0828 84.7359 59.4925 84.4326 59.8007C84.1294 60.109 83.7185 60.2631 83.2001 60.2631C82.6816 60.2631 82.259 60.1109 81.9577 59.8046C81.6564 59.4983 81.5058 59.0906 81.5058 58.5794V58.5814Z" fill="#1D1D1B"/>
<path d="M85.9469 60.1831V55.8013H86.6708L88.7544 59.0437H88.7916V55.8013H89.4509V60.1831H88.7212L86.6532 56.9406H86.6141V60.1831H85.9489H85.9469Z" fill="#1D1D1B"/>
<path d="M90.1259 60.1831L91.7498 55.8013H92.5734L94.2032 60.1831H93.4891L93.1428 59.233H91.1668L90.8205 60.1831H90.124H90.1259ZM91.38 58.6243H92.9295L92.1782 56.5582H92.1313L91.378 58.6243H91.38Z" fill="#1D1D1B"/>
<path d="M94.4594 57.9922C94.4594 57.6742 94.5162 57.3757 94.6316 57.0948C94.7451 56.8138 94.9036 56.5739 95.1031 56.3729C95.3027 56.172 95.5453 56.012 95.827 55.8969C96.1107 55.7798 96.4139 55.7233 96.7387 55.7233C97.263 55.7233 97.713 55.8657 98.0887 56.1505C98.4643 56.4354 98.7167 56.8119 98.8478 57.2821H98.118C98.0221 56.9953 97.85 56.769 97.5995 56.607C97.3511 56.4451 97.0635 56.3632 96.7387 56.3632C96.4452 56.3632 96.1772 56.4334 95.9366 56.5758C95.6959 56.7182 95.5061 56.9133 95.3692 57.1631C95.2322 57.4128 95.1638 57.6898 95.1638 57.9961C95.1638 58.4663 95.3144 58.8565 95.6137 59.1667C95.9131 59.4769 96.2887 59.631 96.7387 59.631C97.0635 59.631 97.3491 59.551 97.5976 59.3891C97.8461 59.2272 98.0182 59.0048 98.118 58.716H98.8595C98.7343 59.1842 98.4819 59.5608 98.1004 59.8437C97.7189 60.1266 97.265 60.269 96.7387 60.269C96.4139 60.269 96.1087 60.2124 95.825 60.0973C95.5414 59.9822 95.2988 59.8242 95.1012 59.6232C94.9016 59.4223 94.7451 59.1823 94.6316 58.8994C94.5181 58.6185 94.4594 58.3161 94.4594 57.9942V57.9922Z" fill="#1D1D1B"/>
<path d="M99.7125 60.1831V55.8013H102.317V56.3963H100.389V57.6683H102.041V58.2556H100.389V59.5939H102.381V60.1831H99.7125Z" fill="#1D1D1B"/>
<path d="M103.23 60.1831V55.8013H104.021L105.547 59.3305H105.584L106.979 55.8013H107.763V60.1831H107.11V57.1845H107.073L105.881 60.1831H105.228L103.923 57.1552H103.884V60.1831H103.23Z" fill="#1D1D1B"/>
</g>
<defs>
<linearGradient id="paint0_linear_91_1227" x1="0.221148" y1="26.7436" x2="98.3489" y2="26.7436" gradientUnits="userSpaceOnUse">
<stop stop-color="#EF7F16"/>
<stop offset="0.25" stop-color="#80BA27"/>
<stop offset="0.5" stop-color="#C3D100"/>
<stop offset="0.75" stop-color="#00A7E2"/>
<stop offset="1" stop-color="#0075BE"/>
</linearGradient>
<linearGradient id="paint1_linear_91_1227" x1="0.221091" y1="8.98021" x2="98.3489" y2="8.98021" gradientUnits="userSpaceOnUse">
<stop stop-color="#EF7F16"/>
<stop offset="0.25" stop-color="#80BA27"/>
<stop offset="0.5" stop-color="#C3D100"/>
<stop offset="0.75" stop-color="#00A7E2"/>
<stop offset="1" stop-color="#0075BE"/>
</linearGradient>
<linearGradient id="paint2_linear_91_1227" x1="0.221059" y1="44.5285" x2="98.3488" y2="44.5285" gradientUnits="userSpaceOnUse">
<stop stop-color="#EF7F16"/>
<stop offset="0.25" stop-color="#80BA27"/>
<stop offset="0.5" stop-color="#C3D100"/>
<stop offset="0.75" stop-color="#00A7E2"/>
<stop offset="1" stop-color="#0075BE"/>
</linearGradient>
<clipPath id="clip0_91_1227">
<rect width="113" height="62" fill="white"/>
</clipPath>
</defs>
</svg>
