<svg width="29" height="28" viewBox="0 0 29 28" fill="none" xmlns="http://www.w3.org/2000/svg">
<path d="M4 22.75V7C4 6.76794 4.09219 6.54538 4.25628 6.38128C4.42038 6.21719 4.64294 6.125 4.875 6.125H10.7047C10.8939 6.12578 11.0779 6.1871 11.2297 6.3L14.2703 8.575C14.4221 8.6879 14.6061 8.74922 14.7953 8.75H22.375C22.6071 8.75 22.8296 8.84219 22.9937 9.00628C23.1578 9.17038 23.25 9.39294 23.25 9.625V12.25" stroke="black" stroke-width="1.5" stroke-linecap="round" stroke-linejoin="round"/>
<path d="M4 22.75L7.30313 12.8516C7.3607 12.6765 7.47206 12.5242 7.62132 12.4161C7.77058 12.3081 7.95013 12.25 8.13438 12.25H25.5359C25.6743 12.25 25.8107 12.2828 25.9339 12.3457C26.0571 12.4086 26.1637 12.4999 26.2448 12.612C26.3259 12.724 26.3793 12.8538 26.4006 12.9905C26.4219 13.1272 26.4104 13.267 26.3672 13.3984L23.25 22.75H4Z" stroke="black" stroke-width="1.5" stroke-linecap="round" stroke-linejoin="round"/>
</svg>
