<svg width="33" height="33" viewBox="0 0 33 33" fill="none" xmlns="http://www.w3.org/2000/svg">
<path d="M27.5 7.5H5.5" stroke="black" stroke-width="2" stroke-linecap="round" stroke-linejoin="round"/>
<path d="M13.5 13.5V21.5" stroke="black" stroke-width="2" stroke-linecap="round" stroke-linejoin="round"/>
<path d="M19.5 13.5V21.5" stroke="black" stroke-width="2" stroke-linecap="round" stroke-linejoin="round"/>
<path d="M25.5 7.5V26.5C25.5 26.7652 25.3946 27.0196 25.2071 27.2071C25.0196 27.3946 24.7652 27.5 24.5 27.5H8.5C8.23478 27.5 7.98043 27.3946 7.79289 27.2071C7.60536 27.0196 7.5 26.7652 7.5 26.5V7.5" stroke="black" stroke-width="2" stroke-linecap="round" stroke-linejoin="round"/>
<path d="M21.5 7.5V5.5C21.5 4.96957 21.2893 4.46086 20.9142 4.08579C20.5391 3.71071 20.0304 3.5 19.5 3.5H13.5C12.9696 3.5 12.4609 3.71071 12.0858 4.08579C11.7107 4.46086 11.5 4.96957 11.5 5.5V7.5" stroke="black" stroke-width="2" stroke-linecap="round" stroke-linejoin="round"/>
</svg>
