<svg width="24" height="24" viewBox="0 0 24 24" fill="none" xmlns="http://www.w3.org/2000/svg">
<path fill-rule="evenodd" clip-rule="evenodd" d="M18.1875 12.75C18.1875 12.4393 18.4393 12.1875 18.75 12.1875H23.25C23.5607 12.1875 23.8125 12.4393 23.8125 12.75C23.8125 13.0607 23.5607 13.3125 23.25 13.3125H18.75C18.4393 13.3125 18.1875 13.0607 18.1875 12.75Z" fill="white"/>
<path fill-rule="evenodd" clip-rule="evenodd" d="M21 9.9375C21.3107 9.9375 21.5625 10.1893 21.5625 10.5V15C21.5625 15.3107 21.3107 15.5625 21 15.5625C20.6893 15.5625 20.4375 15.3107 20.4375 15V10.5C20.4375 10.1893 20.6893 9.9375 21 9.9375Z" fill="white"/>
<path fill-rule="evenodd" clip-rule="evenodd" d="M10.125 4.3125C7.32906 4.3125 5.0625 6.57906 5.0625 9.375C5.0625 12.1709 7.32906 14.4375 10.125 14.4375C12.9209 14.4375 15.1875 12.1709 15.1875 9.375C15.1875 6.57906 12.9209 4.3125 10.125 4.3125ZM3.9375 9.375C3.9375 5.95774 6.70774 3.1875 10.125 3.1875C13.5423 3.1875 16.3125 5.95774 16.3125 9.375C16.3125 12.7923 13.5423 15.5625 10.125 15.5625C6.70774 15.5625 3.9375 12.7923 3.9375 9.375Z" fill="white"/>
<path fill-rule="evenodd" clip-rule="evenodd" d="M10.1251 15.5614C8.67388 15.5614 7.24031 15.8792 5.9251 16.4926C4.6099 17.1059 3.44498 17.9998 2.51223 19.1115C2.31255 19.3495 1.95775 19.3806 1.71976 19.1809C1.48177 18.9812 1.45072 18.6264 1.6504 18.3884C2.68875 17.1509 3.98554 16.1557 5.44964 15.473C6.91373 14.7902 8.5096 14.4364 10.1251 14.4364C11.7405 14.4364 13.3364 14.7902 14.8005 15.473C16.2646 16.1557 17.5614 17.1509 18.5997 18.3884C18.7994 18.6264 18.7683 18.9812 18.5304 19.1809C18.2924 19.3806 17.9376 19.3495 17.7379 19.1115C16.8051 17.9998 15.6402 17.1059 14.325 16.4926C13.0098 15.8792 11.5762 15.5614 10.1251 15.5614Z" fill="white"/>
</svg>
