<svg width="33" height="32" viewBox="0 0 33 32" fill="none" xmlns="http://www.w3.org/2000/svg">
<path d="M26.5 5H6.5C5.94772 5 5.5 5.44772 5.5 6V26C5.5 26.5523 5.94772 27 6.5 27H26.5C27.0523 27 27.5 26.5523 27.5 26V6C27.5 5.44772 27.0523 5 26.5 5Z" stroke="black" stroke-width="1.5" stroke-linecap="round" stroke-linejoin="round"/>
<path d="M22.5 3V7" stroke="black" stroke-width="1.5" stroke-linecap="round" stroke-linejoin="round"/>
<path d="M10.5 3V7" stroke="black" stroke-width="1.5" stroke-linecap="round" stroke-linejoin="round"/>
<path d="M5.5 11H27.5" stroke="black" stroke-width="1.5" stroke-linecap="round" stroke-linejoin="round"/>
<path d="M12 16H15.5L13.5 18.5C13.8291 18.4994 14.1533 18.5801 14.4438 18.7349C14.7343 18.8897 14.9821 19.1137 15.1653 19.3872C15.3484 19.6607 15.4612 19.9752 15.4937 20.3027C15.5261 20.6303 15.4773 20.9608 15.3514 21.2649C15.2255 21.569 15.0265 21.8374 14.772 22.0462C14.5176 22.2549 14.2155 22.3977 13.8927 22.4618C13.5698 22.5258 13.2361 22.5092 12.9212 22.4134C12.6063 22.3176 12.32 22.1455 12.0875 21.9125" stroke="black" stroke-width="1.5" stroke-linecap="round" stroke-linejoin="round"/>
<path d="M18.5 17.5L20.5 16V22.5" stroke="black" stroke-width="1.5" stroke-linecap="round" stroke-linejoin="round"/>
</svg>
