<svg width="28" height="29" viewBox="0 0 28 29" fill="none" xmlns="http://www.w3.org/2000/svg">
<g clip-path="url(#clip0_30_831)">
<path d="M27.1285 3.89502C27.292 4.05903 27.3838 4.28118 27.3838 4.51277C27.3838 4.74436 27.292 4.9665 27.1285 5.13052L25.3032 6.95752L21.8032 3.45752L23.6285 1.63052C23.7926 1.46648 24.0151 1.37433 24.2471 1.37433C24.4791 1.37433 24.7017 1.46648 24.8657 1.63052L27.1285 3.89327V3.89502ZM24.066 8.19302L20.566 4.69302L8.64324 16.6175C8.54693 16.7138 8.47442 16.8313 8.43149 16.9605L7.02274 21.185C6.99719 21.262 6.99356 21.3446 7.01226 21.4236C7.03096 21.5026 7.07125 21.5748 7.12863 21.6321C7.18601 21.6895 7.25821 21.7298 7.33717 21.7485C7.41612 21.7672 7.49873 21.7636 7.57574 21.738L11.8002 20.3293C11.9293 20.2868 12.0468 20.2149 12.1432 20.1193L24.066 8.19477V8.19302Z" stroke="#3D3D3D" stroke-width="1.5" stroke-linejoin="round"/>
<path fill-rule="evenodd" clip-rule="evenodd" d="M1.75 24.125C1.75 24.8212 2.02656 25.4889 2.51884 25.9812C3.01113 26.4734 3.67881 26.75 4.375 26.75H23.625C24.3212 26.75 24.9889 26.4734 25.4812 25.9812C25.9734 25.4889 26.25 24.8212 26.25 24.125V13.625C26.25 13.3929 26.1578 13.1704 25.9937 13.0063C25.8296 12.8422 25.6071 12.75 25.375 12.75C25.1429 12.75 24.9204 12.8422 24.7563 13.0063C24.5922 13.1704 24.5 13.3929 24.5 13.625V24.125C24.5 24.3571 24.4078 24.5796 24.2437 24.7437C24.0796 24.9078 23.8571 25 23.625 25H4.375C4.14294 25 3.92038 24.9078 3.75628 24.7437C3.59219 24.5796 3.5 24.3571 3.5 24.125V4.875C3.5 4.64294 3.59219 4.42038 3.75628 4.25628C3.92038 4.09219 4.14294 4 4.375 4H15.75C15.9821 4 16.2046 3.90781 16.3687 3.74372C16.5328 3.57962 16.625 3.35706 16.625 3.125C16.625 2.89294 16.5328 2.67038 16.3687 2.50628C16.2046 2.34219 15.9821 2.25 15.75 2.25H4.375C3.67881 2.25 3.01113 2.52656 2.51884 3.01884C2.02656 3.51113 1.75 4.17881 1.75 4.875V24.125Z" fill="#3D3D3D"/>
</g>
<defs>
<clipPath id="clip0_30_831">
<rect width="28" height="28" fill="white" transform="translate(0 0.5)"/>
</clipPath>
</defs>
</svg>
