<svg width="16" height="20" viewBox="0 0 16 20" fill="none" xmlns="http://www.w3.org/2000/svg">
<path d="M15.9401 3.59V16.39C15.9401 16.8367 15.8101 17.2367 15.5501 17.59C15.2901 17.9367 14.9401 18.17 14.5001 18.29L8.77006 19.94C8.69006 19.96 8.60006 19.98 8.50006 20H8.28006C8.06006 20 7.86006 19.97 7.68006 19.91C7.50006 19.85 7.31673 19.77 7.13006 19.67L3.38006 17.55C3.24006 17.47 3.13006 17.3667 3.05006 17.24C2.97006 17.1133 2.93006 16.97 2.93006 16.81C2.93006 16.57 3.01673 16.3667 3.19006 16.2C3.35673 16.0333 3.56006 15.95 3.80006 15.95H8.66006V4.14L5.00006 5.44C4.71339 5.54667 4.48006 5.73333 4.30006 6C4.12006 6.25333 4.03006 6.53667 4.03006 6.85V13.58C4.03006 13.86 3.96006 14.1133 3.82006 14.34C3.68673 14.5667 3.49673 14.7467 3.25006 14.88L1.53006 15.82C1.37006 15.9067 1.21006 15.95 1.05006 15.95C0.776726 15.95 0.543392 15.8533 0.350059 15.66C0.156725 15.4667 0.0600586 15.23 0.0600586 14.95V5.47C0.0600586 5.12333 0.150059 4.8 0.330059 4.5C0.516725 4.16667 0.760059 3.91333 1.06006 3.74L7.22006 0.24C7.36006 0.16 7.51006 0.0999999 7.67006 0.0599999C7.83006 0.0199999 7.99006 0 8.15006 0C8.26339 0 8.36672 0.00999997 8.46006 0.03C8.55339 0.0433333 8.65673 0.0666666 8.77006 0.0999999L14.5001 1.69C14.7201 1.75 14.9167 1.84 15.0901 1.96C15.2634 2.08 15.4134 2.22333 15.5401 2.39C15.6734 2.56333 15.7734 2.75 15.8401 2.95C15.9067 3.15667 15.9401 3.37 15.9401 3.59ZM14.6201 16.39V3.59C14.6201 3.43667 14.5801 3.30333 14.5001 3.19C14.4001 3.06333 14.2767 2.98667 14.1301 2.96L11.3101 2.18C11.1034 2.12 10.8834 2.06 10.6501 2C10.4301 1.92667 10.2134 1.86333 10.0001 1.81V18.21L14.1301 17C14.2767 16.9733 14.4001 16.9033 14.5001 16.79C14.5801 16.6767 14.6201 16.5433 14.6201 16.39Z" fill="white"/>
</svg>
