<svg width="24" height="24" viewBox="0 0 24 24" fill="none" xmlns="http://www.w3.org/2000/svg">
<path fill-rule="evenodd" clip-rule="evenodd" d="M4 10.875C4 7.07804 7.07804 4 10.875 4C14.672 4 17.75 7.07804 17.75 10.875C17.75 14.672 14.672 17.75 10.875 17.75C7.07804 17.75 4 14.672 4 10.875ZM10.875 2C5.97347 2 2 5.97347 2 10.875C2 15.7765 5.97347 19.75 10.875 19.75C12.9654 19.75 14.8871 19.0273 16.4037 17.818L20.2927 21.7071C20.6833 22.0976 21.3164 22.0976 21.707 21.7071C22.0975 21.3166 22.0975 20.6834 21.707 20.2929L17.8179 16.4038C19.0272 14.8872 19.75 12.9655 19.75 10.875C19.75 5.97347 15.7765 2 10.875 2Z" fill="white"/>
</svg>
