<svg width="102" height="169" viewBox="0 0 102 169" fill="none" xmlns="http://www.w3.org/2000/svg">
<path d="M13.8775 68.1956C21.4695 68.1956 27.3744 62.197 27.3744 54.605C27.3744 47.013 21.4695 41.1081 13.8775 41.1081C6.28548 41.1081 0.286865 47.013 0.286865 54.605C0.286865 62.197 6.28548 68.1956 13.8775 68.1956ZM13.8775 136.992C21.4695 136.992 27.3744 130.994 27.3744 123.402C27.3744 115.903 21.4695 109.905 13.8775 109.905C6.28548 109.905 0.286865 115.903 0.286865 123.402C0.286865 130.994 6.28548 136.992 13.8775 136.992Z" fill="#484E68"/>
<path d="M80.7995 168.298H101.795C88.0166 152.082 77.4253 115.903 77.4253 84.2232C77.4253 52.4492 88.0166 16.3638 101.795 0.242538H80.7995C61.8664 23.3934 53.4309 50.5747 53.4309 84.3169C53.4309 117.778 61.7727 145.053 80.7995 168.298Z" fill="#484E68"/>
</svg>
